{
.appVersion = "3151";
.formatVersion = 3;
customParameters = (
{
name = vendorID;
value = COMM;
},
{
name = panose;
value = (
2,
13,
10,
4,
3,
5,
2,
12,
2,
3
);
},
{
name = unicodeRanges;
value = (
0,
1,
2
);
},
{
name = codePageRanges;
value = (
"1252",
"1250",
"1254",
"1257",
"bit 29"
);
},
{
name = fsType;
value = (
2
);
},
{
name = "Family Alignment Zones";
value = (
{
pos = 709;
size = 19;
},
{
pos = 685;
size = 14;
},
{
pos = 510;
size = 17;
},
{
pos = 0;
size = "-17";
}
);
},
{
name = glyphOrder;
value = (
.notdef,
Eth,
eth,
Lslash,
lslash,
Scaron,
scaron,
Yacute,
yacute,
Thorn,
thorn,
Zcaron,
zcaron,
onehalf,
onequarter,
onesuperior,
threequarters,
threesuperior,
twosuperior,
brokenbar,
minus,
multiply,
space,
exclam,
quotedbl,
numbersign,
dollar,
percent,
ampersand,
quotesingle,
parenleft,
parenright,
asterisk,
plus,
comma,
hyphen,
period,
slash,
zero,
one,
two,
three,
four,
five,
six,
seven,
eight,
nine,
colon,
semicolon,
less,
equal,
greater,
question,
at,
A,
B,
C,
D,
E,
F,
G,
H,
I,
J,
K,
L,
M,
N,
O,
P,
Q,
R,
S,
T,
U,
V,
W,
X,
Y,
Z,
bracketleft,
backslash,
bracketright,
asciicircum,
underscore,
grave,
a,
b,
c,
d,
e,
f,
g,
h,
i,
j,
k,
l,
m,
n,
o,
p,
q,
r,
s,
t,
u,
v,
w,
x,
y,
z,
braceleft,
bar,
braceright,
asciitilde,
Adieresis,
Aring,
Ccedilla,
Eacute,
Ntilde,
Odieresis,
Udieresis,
aacute,
agrave,
acircumflex,
adieresis,
atilde,
aring,
ccedilla,
eacute,
egrave,
ecircumflex,
edieresis,
iacute,
igrave,
icircumflex,
idieresis,
ntilde,
oacute,
ograve,
ocircumflex,
odieresis,
otilde,
uacute,
ugrave,
ucircumflex,
udieresis,
dagger,
degree,
cent,
sterling,
section,
bullet,
paragraph,
germandbls,
registered,
copyright,
trademark,
acute,
dieresis,
notequal,
AE,
Oslash,
infinity,
plusminus,
lessequal,
greaterequal,
yen,
mu,
partialdiff,
summation,
product,
pi,
integral,
ordfeminine,
ordmasculine,
Omega,
ae,
oslash,
questiondown,
exclamdown,
logicalnot,
radical,
florin,
approxequal,
Delta,
guillemotleft,
guillemotright,
ellipsis,
uni00A0,
Agrave,
Atilde,
Otilde,

glyphs = (
{
glyphname = Eth;
kernLeft = Eth;
kernRight = Eth;
layers = (
{
hints = (
{
horizontal = 1;
place = (0, 171);
place = (0, 171);
type = Stem;
},
{
horizontal = 1;
place = (289, 153);
place = (289, 153);
type = Stem;
},
{
horizontal = 1;
place = (544, 171);
place = (544, 171);
type = Stem;
},
{
place = (529, 210);
place = (529, 210);
type = Stem;
}
);
layerId = m01;
shapes = (
{
closed = 1;
nodes = (
(4,0,l),
(347,0,ls),
(593,0,o),
(739,166,o),
(739,408,cs),
(739,601,o),
(613,715,o),
(426,715,cs),
(142,715,l),
(89,442,l),
(44,442,l),
(15,289,l),
(60,289,l)
);
},
{
closed = 1;
nodes = (
(243,171,l),
(266,289,l),
(407,289,l),
(436,442,l),
(295,442,l),
(315,544,l),
(390,544,ls),
(480,544,o),
(529,493,o),
(529,393,cs),
(529,264,o),
(460,171,o),
(345,171,cs)
);
}
);
width = 730;
}
);
note = Eth;
unicode = 208;
},
{
glyphname = eth;
kernLeft = eth;
kernRight = eth;
layers = (
{
hints = (
{
horizontal = 1;
place = (-16, 126);
place = (-16, 126);
type = Stem;
},
{
horizontal = 1;
place = (391, 122);
place = (391, 122);
type = Stem;
},
{
horizontal = 1;
place = (574, 141);
place = (574, 141);
type = Stem;
},
{
place = (9, 186);
place = (9, 186);
type = Stem;
},
{
place = (375, 192);
place = (375, 192);
type = Stem;
},
{
horizontal = 1;
place = (621, 94);
place = (621, 94);
type = Stem;
}
);
layerId = m01;
shapes = (
{
closed = 1;
nodes = (
(164,532,l),
(295,574,l),
(327,540,o),
(353,506,o),
(369,475,c),
(367,475,l),
(340,500,o),
(304,513,o),
(258,513,cs),
(99,513,o),
(9,377,o),
(9,219,cs),
(9,68,o),
(108,-16,o),
(264,-16,cs),
(472,-16,o),
(567,158,o),
(567,342,cs),
(567,458,o),
(519,556,o),
(457,626,c),
(530,649,l),
(513,706,l),
(409,673,l),
(390,689,o),
(370,703,o),
(350,715,c),
(128,715,l),
(167,689,o),
(209,656,o),
(248,621,c),
(146,589,l)
);
},
{
closed = 1;
nodes = (
(195,277,o),
(221,391,o),
(302,391,cs),
(357,391,o),
(375,350,o),
(375,303,cs),
(375,226,o),
(346,110,o),
(264,110,cs),
(210,110,o),
(195,157,o),
(195,207,cs)
);
}
);
width = 579;
}
);
note = eth;
unicode = 240;
},
{
glyphname = Lslash;
layers = (
{
hints = (
{
horizontal = 1;
place = (0, 177);
place = (0, 177);
type = Stem;
},
{
horizontal = 1;
place = (715, -20);
target = down;
type = TopGhost;
},
{
place = (-19, 557);
place = (-19, 557);
type = Stem;
}
);
layerId = m01;
shapes = (
{
closed = 1;
nodes = (
(2,0,l),
(504,0,l),
(538,177,l),
(242,177,l),
(267,306,l),
(466,393,l),
(494,536,l),
(294,449,l),
(346,715,l),
(140,715,l),
(69,351,l),
(8,324,l),
(-19,181,l),
(42,207,l)
);
}
);
width = 571;
}
);
note = Lslash;
unicode = 321;
},
{
glyphname = lslash;
layers = (
{
hints = (
{
horizontal = 1;
place = (0, 21);
target = up;
type = BottomGhost;
},
{
horizontal = 1;
place = (511, -20);
target = down;
type = TopGhost;
},
{
horizontal = 1;
place = (715, -20);
target = down;
type = TopGhost;
},
{
place = (-10, 355);
place = (-10, 355);
type = Stem;
}
);
layerId = m01;
shapes = (
{
closed = 1;
nodes = (
(319,374,l),
(345,511,l),
(286,476,l),
(332,715,l),
(141,715,l),
(70,347,l),
(17,316,l),
(-10,179,l),
(43,211,l),
(3,0,l),
(194,0,l),
(259,338,l)
);
}
);
width = 297;
}
);
note = lslash;
unicode = 322;
},
{
glyphname = Scaron;
kernLeft = Scaron;
kernRight = Scaron;
layers = (
{
hints = (
{
horizontal = 1;
place = (-17, 160);
place = (-17, 160);
type = Stem;
},
{
horizontal = 1;
place = (575, 153);
place = (575, 153);
type = Stem;
},
{
place = (66, 200);
place = (66, 200);
type = Stem;
},
{
place = (409, 213);
place = (409, 213);
type = Stem;
},
{
horizontal = 1;
place = (746, 137);
place = (746, 137);
type = Stem;
}
);
layerId = m01;
shapes = (
{
closed = 1;
nodes = (
(470,-17,o),
(622,62,o),
(622,235,cs),
(622,358,o),
(527,405,o),
(426,440,cs),
(312,479,o),
(266,485,o),
(266,524,cs),
(266,560,o),
(308,575,o),
(346,575,cs),
(398,575,o),
(432,552,o),
(434,510,c),
(637,510,l),
(644,682,o),
(485,728,o),
(352,728,cs),
(192,728,o),
(66,651,o),
(66,493,cs),
(66,373,o),
(153,325,o),
(282,280,cs),
(357,254,o),
(408,239,o),
(409,204,cs),
(409,155,o),
(363,143,o),
(316,143,cs),
(250,143,o),
(204,172,o),
(203,228,c),
(-8,228,l),
(-11,33,o),
(162,-17,o),
(310,-17,cs)
);
},
{
closed = 1;
nodes = (
(597,883,l),
(433,883,l),
(386,832,l),
(384,832,l),
(349,883,l),
(200,883,l),
(293,746,l),
(458,746,l)
);
}
);
width = 642;
}
);
note = Scaron;
unicode = 352;
},
{
glyphname = scaron;
kernLeft = scaron;
kernRight = scaron;
layers = (
{
hints = (
{
horizontal = 1;
place = (-17, 115);
place = (-17, 115);
type = Stem;
},
{
horizontal = 1;
place = (368, 158);
place = (368, 158);
type = Stem;
},
{
horizontal = 1;
place = (566, 149);
place = (566, 149);
type = Stem;
},
{
place = (32, 175);
place = (32, 175);
type = Stem;
},
{
place = (299, 178);
place = (299, 178);
type = Stem;
},
{
horizontal = 1;
place = (414, 112);
place = (414, 112);
type = Stem;
},
{
horizontal = 1;
place = (-17, 182);
place = (-17, 182);
type = Stem;
},
{
horizontal = 1;
place = (566, 86);
place = (566, 86);
type = Stem;
}
);
layerId = m01;
shapes = (
{
closed = 1;
nodes = (
(382,-17,o),
(477,47,o),
(477,175,cs),
(477,277,o),
(388,308,o),
(302,328,cs),
(236,343,o),
(207,354,o),
(207,379,cs),
(207,403,o),
(236,414,o),
(265,414,cs),
(301,414,o),
(326,401,o),
(329,368,c),
(500,368,l),
(496,490,o),
(385,526,o),
(273,526,cs),
(137,526,o),
(32,464,o),
(32,347,cs),
(32,255,o),
(96,221,o),
(190,197,cs),
(251,181,o),
(299,176,o),
(299,140,cs),
(299,110,o),
(274,98,o),
(240,98,cs),
(184,98,o),
(165,125,o),
(164,165,c),
(-12,165,l),
(-13,19,o),
(118,-17,o),
(234,-17,cs)
);
},
{
closed = 1;
nodes = (
(509,715,l),
(347,715,l),
(296,652,l),
(294,652,l),
(263,715,l),
(112,715,l),
(202,566,l),
(367,566,l)
);
}
);
width = 510;
}
);
note = scaron;
unicode = 353;
},
{
glyphname = Yacute;
kernLeft = Yacute;
kernRight = Yacute;
layers = (
{
hints = (
{
horizontal = 1;
place = (0, 21);
target = up;
type = BottomGhost;
},
{
horizontal = 1;
place = (715, -20);
target = down;
type = TopGhost;
},
{
horizontal = 1;
place = (746, 135);
place = (746, 135);
type = Stem;
},
{
place = (81, 685);
place = (81, 685);
type = Stem;
}
);
layerId = m01;
shapes = (
{
closed = 1;
nodes = (
(184,0,l),
(390,0,l),
(437,245,l),
(766,715,l),
(544,715,l),
(441,556,ls),
(405,501,o),
(370,440,o),
(370,440,c),
(368,440,l),
(368,440,o),
(359,501,o),
(343,556,cs),
(301,715,l),
(81,715,l),
(232,253,l)
);
},
{
closed = 1;
nodes = (
(618,881,l),
(410,881,l),
(346,746,l),
(486,746,l)
);
}
);
width = 673;
}
);
note = Yacute;
unicode = 221;
},
{
glyphname = yacute;
kernLeft = yacute;
kernRight = yacute;
layers = (
{
hints = (
{
horizontal = 1;
place = (-169, 146);
place = (-169, 146);
type = Stem;
},
{
horizontal = 1;
place = (510, -20);
target = down;
type = TopGhost;
},
{
horizontal = 1;
place = (566, 155);
place = (566, 155);
type = Stem;
},
{
place = (-17, 625);
place = (-17, 625);
type = Stem;
}
);
layerId = m01;
shapes = (
{
closed = 1;
nodes = (
(-17,-169,l),
(115,-169,ls),
(216,-169,o),
(284,-122,o),
(333,-27,cs),
(608,510,l),
(421,510,l),
(325,305,ls),
(300,252,o),
(272,180,o),
(272,180,c),
(270,180,l),
(270,180,o),
(268,258,o),
(262,311,cs),
(241,510,l),
(47,510,l),
(129,88,ls),
(134,64,o),
(138,42,o),
(138,26,cs),
(138,-12,o),
(110,-23,o),
(77,-23,cs),
(11,-23,l)
);
},
{
closed = 1;
nodes = (
(263,566,l),
(403,566,l),
(553,721,l),
(341,721,l)
);
}
);
width = 553;
}
);
note = yacute;
unicode = 253;
},
{
glyphname = Thorn;
kernRight = Thorn;
layers = (
{
hints = (
{
horizontal = 1;
place = (0, 21);
target = up;
type = BottomGhost;
},
{
horizontal = 1;
place = (129, 160);
place = (129, 160);
type = Stem;
},
{
horizontal = 1;
place = (454, 171);
place = (454, 171);
type = Stem;
},
{
horizontal = 1;
place = (715, -20);
target = down;
type = TopGhost;
},
{
place = (462, 205);
place = (462, 205);
type = Stem;
}
);
layerId = m01;
shapes = (
{
closed = 1;
nodes = (
(-8,0,l),
(198,0,l),
(222,129,l),
(389,129,ls),
(549,129,o),
(667,233,o),
(667,402,cs),
(667,470,o),
(643,522,o),
(607,559,cs),
(566,601,o),
(504,625,o),
(399,625,cs),
(319,625,l),
(336,715,l),
(130,715,l)
);
},
{
closed = 1;
nodes = (
(285,454,l),
(386,454,ls),
(436,454,o),
(462,432,o),
(462,385,cs),
(462,322,o),
(418,289,o),
(366,289,cs),
(253,289,l)
);
}
);
width = 654;
}
);
note = Thorn;
unicode = 222;
},
{
glyphname = thorn;
kernRight = thorn;
layers = (
{
hints = (
{
horizontal = 1;
place = (-169, 21);
target = up;
type = BottomGhost;
},
{
horizontal = 1;
place = (-17, 137);
place = (-17, 137);
type = Stem;
},
{
horizontal = 1;
place = (383, 143);
place = (383, 143);
type = Stem;
},
{
horizontal = 1;
place = (715, -20);
target = down;
type = TopGhost;
},
{
place = (392, 191);
place = (392, 191);
type = Stem;
}
);
layerId = m01;
shapes = (
{
closed = 1;
nodes = (
(-50,-169,l),
(136,-169,l),
(180,57,l),
(183,57,l),
(207,11,o),
(260,-17,o),
(329,-17,cs),
(499,-17,o),
(583,148,o),
(583,305,cs),
(583,430,o),
(517,526,o),
(404,526,cs),
(339,526,o),
(297,498,o),
(261,461,c),
(258,461,l),
(307,715,l),
(121,715,l)
);
},
{
closed = 1;
nodes = (
(207,290,o),
(250,383,o),
(321,383,cs),
(376,383,o),
(392,337,o),
(392,291,cs),
(392,215,o),
(363,120,o),
(286,120,cs),
(227,120,o),
(207,170,o),
(207,219,cs)
);
}
);
width = 594;
}
);
note = thorn;
unicode = 254;
},
{
glyphname = Zcaron;
kernLeft = Zcaron;
kernRight = Zcaron;
layers = (
{
hints = (
{
horizontal = 1;
place = (0, 174);
place = (0, 174);
type = Stem;
},
{
horizontal = 1;
place = (541, 174);
place = (541, 174);
type = Stem;
},
{
horizontal = 1;
place = (746, 137);
place = (746, 137);
type = Stem;
},
{
place = (-29, 730);
place = (-29, 730);
type = Stem;
}
);
layerId = m01;
shapes = (
{
closed = 1;
nodes = (
(-29,0,l),
(582,0,l),
(615,174,l),
(349,174,ls),
(306,174,o),
(263,172,o),
(263,172,c),
(263,175,l),
(263,175,o),
(310,212,o),
(350,250,cs),
(672,561,l),
(701,715,l),
(134,715,l),
(101,541,l),
(321,541,ls),
(359,541,o),
(394,544,o),
(394,544,c),
(394,541,l),
(394,541,o),
(356,510,o),
(327,482,cs),
(3,169,l)
);
},
{
closed = 1;
nodes = (
(649,883,l),
(485,883,l),
(438,832,l),
(436,832,l),
(401,883,l),
(252,883,l),
(345,746,l),
(510,746,l)
);
}
);
width = 652;
}
);
note = Zcaron;
unicode = 381;
},
{
glyphname = zcaron;
kernLeft = zcaron;
kernRight = zcaron;
layers = (
{
hints = (
{
horizontal = 1;
place = (0, 138);
place = (0, 138);
type = Stem;
},
{
horizontal = 1;
place = (373, 137);
place = (373, 137);
type = Stem;
},
{
horizontal = 1;
place = (566, 149);
place = (566, 149);
type = Stem;
},
{
place = (-31, 565);
place = (-31, 565);
type = Stem;
},
{
horizontal = 1;
place = (566, 86);
place = (566, 86);
type = Stem;
}
);
layerId = m01;
shapes = (
{
closed = 1;
nodes = (
(534,715,l),
(372,715,l),
(321,652,l),
(319,652,l),
(288,715,l),
(137,715,l),
(227,566,l),
(392,566,l)
);
},
{
closed = 1;
nodes = (
(-31,0,l),
(437,0,l),
(463,138,l),
(300,138,ls),
(254,138,o),
(218,136,o),
(218,136,c),
(218,139,l),
(218,139,o),
(259,168,o),
(295,201,cs),
(494,382,l),
(518,510,l),
(84,510,l),
(58,373,l),
(193,373,ls),
(225,373,o),
(264,375,o),
(264,375,c),
(264,372,l),
(264,372,o),
(234,349,o),
(206,324,cs),
(-6,134,l)
);
}
);
width = 505;
}
);
note = zcaron;
unicode = 382;
},
{
glyphname = onehalf;
layers = (
{
hints = (
{
horizontal = 1;
place = (0, 100);
place = (0, 100);
type = Stem;
},
{
horizontal = 1;
place = (307, 98);
place = (307, 98);
type = Stem;
},
{
horizontal = 1;
place = (538, 181);
place = (538, 181);
type = Stem;
},
{
place = (684, 126);
place = (684, 126);
type = Stem;
},
{
horizontal = 1;
place = (715, -20);
target = down;
type = TopGhost;
}
);
layerId = m01;
shapes = (
{
closed = 1;
nodes = (
(226,719,l),
(203,661,o),
(157,631,o),
(90,628,c),
(72,538,l),
(161,538,l),
(118,318,l),
(254,318,l),
(332,719,l)
);
},
{
closed = 1;
nodes = (
(32,0,l),
(144,0,l),
(804,715,l),
(693,715,l)
);
},
{
closed = 1;
nodes = (
(684,244,o),
(664,232,o),
(635,217,cs),
(591,194,o),
(542,174,o),
(495,137,cs),
(455,108,o),
(424,68,o),
(413,0,c),
(759,0,l),
(779,100,l),
(615,100,l),
(615,101,l),
(649,126,o),
(707,143,o),
(754,178,cs),
(787,202,o),
(810,238,o),
(810,286,cs),
(810,370,o),
(733,405,o),
(657,405,cs),
(560,405,o),
(478,351,o),
(461,242,c),
(583,242,l),
(591,281,o),
(614,307,o),
(645,307,cs),
(668,307,o),
(684,297,o),
(684,274,cs)
);
}
);
width = 861;
}
);
note = onehalf;
unicode = 189;
},
{
glyphname = onequarter;
layers = (
{
hints = (
{
horizontal = 1;
place = (84, 85);
place = (84, 85);
type = Stem;
},
{
horizontal = 1;
place = (715, -20);
target = down;
type = TopGhost;
},
{
place = (26, 772);
place = (26, 772);
type = Stem;
},
{
horizontal = 1;
place = (0, 169);
place = (0, 169);
type = Stem;
},
{
horizontal = 1;
place = (538, 181);
place = (538, 181);
type = Stem;
}
);
layerId = m01;
shapes = (
{
closed = 1;
nodes = (
(381,178,l),
(362,84,l),
(554,84,l),
(538,0,l),
(665,0,l),
(681,84,l),
(737,84,l),
(755,169,l),
(698,169,l),
(743,401,l),
(614,401,l)
);
},
{
closed = 1;
nodes = (
(26,0,l),
(138,0,l),
(798,715,l),
(687,715,l)
);
},
{
closed = 1;
nodes = (
(226,719,l),
(203,661,o),
(157,631,o),
(90,628,c),
(72,538,l),
(161,538,l),
(118,318,l),
(254,318,l),
(332,719,l)
);
},
{
closed = 1;
nodes = (
(571,169,l),
(475,169,l),
(475,170,l),
(592,282,l),
(593,282,l)
);
}
);
width = 797;
}
);
note = onequarter;
unicode = 188;
},
{
glyphname = onesuperior;
layers = (
{
hints = (
{
horizontal = 1;
place = (508, 181);
place = (508, 181);
type = Stem;
},
{
place = (69, 260);
place = (69, 260);
type = Stem;
}
);
layerId = m01;
shapes = (
{
closed = 1;
nodes = (
(223,689,l),
(200,631,o),
(154,601,o),
(87,598,c),
(69,508,l),
(158,508,l),
(115,288,l),
(251,288,l),
(329,689,l)
);
}
);
width = 290;
}
);
note = onesuperior;
unicode = 185;
},
{
glyphname = threequarters;
layers = (
{
hints = (
{
horizontal = 1;
place = (84, 85);
place = (84, 85);
type = Stem;
},
{
horizontal = 1;
place = (308, 91);
place = (308, 91);
type = Stem;
},
{
horizontal = 1;
place = (521, -20);
target = down;
type = TopGhost;
},
{
horizontal = 1;
place = (590, 133);
place = (590, 133);
type = Stem;
},
{
place = (285, 125);
place = (285, 125);
type = Stem;
},
{
horizontal = 1;
place = (0, 169);
place = (0, 169);
type = Stem;
},
{
horizontal = 1;
place = (481, 80);
place = (481, 80);
type = Stem;
},
{
horizontal = 1;
place = (634, 89);
place = (634, 89);
type = Stem;
},
{
place = (303, 120);
place = (303, 120);
type = Stem;
},
{
horizontal = 1;
place = (715, -20);
target = down;
type = TopGhost;
}
);
layerId = m01;
shapes = (
{
closed = 1;
nodes = (
(471,178,l),
(452,84,l),
(644,84,l),
(628,0,l),
(755,0,l),
(771,84,l),
(827,84,l),
(845,169,l),
(788,169,l),
(833,401,l),
(704,401,l)
);
},
{
closed = 1;
nodes = (
(202,590,l),
(209,614,o),
(228,634,o),
(259,634,cs),
(281,634,o),
(303,625,o),
(303,599,cs),
(303,573,o),
(280,561,o),
(248,561,cs),
(221,561,l),
(205,481,l),
(231,481,ls),
(266,481,o),
(285,469,o),
(285,442,cs),
(285,414,o),
(260,399,o),
(232,399,cs),
(196,399,o),
(177,419,o),
(176,452,c),
(54,452,l),
(54,351,o),
(139,308,o),
(232,308,cs),
(315,308,o),
(410,346,o),
(410,440,cs),
(410,478,o),
(387,506,o),
(357,521,c),
(357,522,l),
(394,537,o),
(422,569,o),
(423,610,cs),
(424,688,o),
(348,723,o),
(269,723,cs),
(171,723,o),
(99,668,o),
(84,590,c)
);
},
{
closed = 1;
nodes = (
(115,0,l),
(227,0,l),
(887,715,l),
(776,715,l)
);
},
{
closed = 1;
nodes = (
(661,169,l),
(565,169,l),
(565,170,l),
(682,282,l),
(683,282,l)
);
}
);
width = 888;
}
);
note = threequarters;
unicode = 190;
},
{
glyphname = threesuperior;
layers = (
{
hints = (
{
horizontal = 1;
place = (278, 91);
place = (278, 91);
type = Stem;
},
{
horizontal = 1;
place = (560, 133);
place = (560, 133);
type = Stem;
},
{
place = (276, 125);
place = (276, 125);
type = Stem;
},
{
horizontal = 1;
place = (451, 80);
place = (451, 80);
type = Stem;
},
{
horizontal = 1;
place = (604, 89);
place = (604, 89);
type = Stem;
},
{
place = (294, 120);
place = (294, 120);
type = Stem;
}
);
layerId = m01;
shapes = (
{
closed = 1;
nodes = (
(193,560,l),
(200,584,o),
(219,604,o),
(250,604,cs),
(272,604,o),
(294,595,o),
(294,569,cs),
(294,543,o),
(271,531,o),
(239,531,cs),
(212,531,l),
(196,451,l),
(222,451,ls),
(257,451,o),
(276,439,o),
(276,412,cs),
(276,384,o),
(251,369,o),
(223,369,cs),
(187,369,o),
(168,389,o),
(167,422,c),
(45,422,l),
(45,321,o),
(130,278,o),
(223,278,cs),
(306,278,o),
(401,316,o),
(401,410,cs),
(401,448,o),
(378,476,o),
(348,491,c),
(348,492,l),
(385,507,o),
(413,539,o),
(414,580,cs),
(415,658,o),
(339,693,o),
(260,693,cs),
(162,693,o),
(90,638,o),
(75,560,c)
);
}
);
width = 419;
}
);
note = threesuperior;
unicode = 179;
},
{
glyphname = twosuperior;
layers = (
{
hints = (
{
horizontal = 1;
place = (288, 100);
place = (288, 100);
type = Stem;
},
{
horizontal = 1;
place = (595, 98);
place = (595, 98);
type = Stem;
},
{
place = (294, 126);
place = (294, 126);
type = Stem;
},
{
horizontal = 1;
place = (530, 163);
place = (530, 163);
type = Stem;
}
);
layerId = m01;
shapes = (
{
closed = 1;
nodes = (
(294,532,o),
(274,520,o),
(245,505,cs),
(201,482,o),
(152,462,o),
(105,425,cs),
(65,396,o),
(34,356,o),
(23,288,c),
(369,288,l),
(389,388,l),
(225,388,l),
(225,389,l),
(259,414,o),
(317,431,o),
(364,466,cs),
(397,490,o),
(420,526,o),
(420,574,cs),
(420,658,o),
(343,693,o),
(267,693,cs),
(170,693,o),
(88,639,o),
(71,530,c),
(193,530,l),
(201,569,o),
(224,595,o),
(255,595,cs),
(278,595,o),
(294,585,o),
(294,562,cs)
);
}
);
width = 411;
}
);
note = twosuperior;
unicode = 178;
},
{
glyphname = brokenbar;
layers = (
{
hints = (
{
horizontal = 1;
place = (-144, 898);
place = (-144, 898);
type = Stem;
},
{
place = (79, 115);
place = (79, 115);
type = Stem;
}
);
layerId = m01;
shapes = (
{
closed = 1;
nodes = (
(79,-144,l),
(194,-144,l),
(194,229,l),
(79,229,l)
);
},
{
closed = 1;
nodes = (
(79,392,l),
(194,392,l),
(194,754,l),
(79,754,l)
);
}
);
width = 232;
}
);
note = brokenbar;
unicode = 166;
},
{
glyphname = minus;
kernLeft = minus;
kernRight = minus;
layers = (
{
hints = (
{
horizontal = 1;
place = (250, 161);
place = (250, 161);
type = Stem;
},
{
place = (42, 498);
place = (42, 498);
type = Stem;
}
);
layerId = m01;
shapes = (
{
closed = 1;
nodes = (
(42,250,l),
(508,250,l),
(540,411,l),
(74,411,l)
);
}
);
width = 554;
}
);
note = minus;
unicode = 8722;
},
{
glyphname = multiply;
layers = (
{
hints = (
{
horizontal = 1;
place = (79, 500);
place = (79, 500);
type = Stem;
},
{
place = (16, 539);
place = (16, 539);
type = Stem;
}
);
layerId = m01;
shapes = (
{
closed = 1;
nodes = (
(380,81,l),
(506,192,l),
(396,327,l),
(555,468,l),
(453,579,l),
(301,444,l),
(192,579,l),
(67,468,l),
(176,333,l),
(16,191,l),
(117,79,l),
(271,215,l)
);
}
);
width = 554;
}
);
note = multiply;
unicode = 215;
},
{
glyphname = exclam;
kernLeft = exclam;
layers = (
{
hints = (
{
horizontal = 1;
place = (0, 191);
place = (0, 191);
type = Stem;
},
{
horizontal = 1;
place = (715, -20);
target = down;
type = TopGhost;
},
{
place = (-12, 330);
place = (-12, 330);
type = Stem;
}
);
layerId = m01;
shapes = (
{
closed = 1;
nodes = (
(82,258,l),
(181,258,l),
(282,529,l),
(318,715,l),
(126,715,l),
(93,541,l)
);
},
{
closed = 1;
nodes = (
(-12,0,l),
(180,0,l),
(217,191,l),
(25,191,l)
);
}
);
width = 269;
}
);
note = exclam;
unicode = 33;
},
{
glyphname = quotedbl;
kernLeft = quotedbl;
kernRight = quotedbl;
layers = (
{
hints = (
{
horizontal = 1;
place = (428, 287);
place = (428, 287);
type = Stem;
},
{
place = (72, 436);
place = (72, 436);
type = Stem;
}
);
layerId = m01;
shapes = (
{
closed = 1;
nodes = (
(292,428,l),
(453,428,l),
(508,715,l),
(347,715,l)
);
},
{
closed = 1;
nodes = (
(72,428,l),
(234,428,l),
(289,715,l),
(127,715,l)
);
}
);
width = 460;
}
);
note = quotedbl;
unicode = 34;
},
{
glyphname = numbersign;
layers = (
{
hints = (
{
horizontal = 1;
place = (0, 21);
target = up;
type = BottomGhost;
},
{
horizontal = 1;
place = (162, 146);
place = (162, 146);
type = Stem;
},
{
horizontal = 1;
place = (390, 146);
place = (390, 146);
type = Stem;
},
{
horizontal = 1;
place = (686, -20);
target = down;
type = TopGhost;
},
{
place = (17, 603);
place = (17, 603);
type = Stem;
}
);
layerId = m01;
shapes = (
{
closed = 1;
nodes = (
(81,390,l),
(168,390,l),
(146,308,l),
(58,308,l),
(17,162,l),
(105,162,l),
(61,0,l),
(174,0,l),
(218,162,l),
(315,162,l),
(270,0,l),
(383,0,l),
(428,162,l),
(514,162,l),
(555,308,l),
(469,308,l),
(491,390,l),
(579,390,l),
(620,536,l),
(532,536,l),
(573,686,l),
(459,686,l),
(418,536,l),
(322,536,l),
(363,686,l),
(250,686,l),
(209,536,l),
(122,536,l)
);
},
{
closed = 1;
nodes = (
(281,390,l),
(377,390,l),
(355,308,l),
(259,308,l)
);
}
);
width = 596;
}
);
note = numbersign;
unicode = 35;
},
{
glyphname = dollar;
layers = (
{
hints = (
{
horizontal = 1;
place = (-16, 21);
target = up;
type = BottomGhost;
},
{
horizontal = 1;
place = (483, 215);
place = (483, 215);
type = Stem;
},
{
place = (72, 189);
place = (72, 189);
type = Stem;
},
{
place = (386, 193);
place = (386, 193);
type = Stem;
},
{
horizontal = 1;
place = (-11, 21);
target = up;
type = BottomGhost;
},
{
place = (442, 182);
place = (442, 182);
type = Stem;
},
{
horizontal = 1;
place = (698, -20);
target = down;
type = TopGhost;
},
{
place = (0, 196);
place = (0, 196);
type = Stem;
},
{
horizontal = 1;
place = (-16, 149);
place = (-16, 149);
type = Stem;
},
{
horizontal = 1;
place = (554, 144);
place = (554, 144);
type = Stem;
}
);
layerId = m01;
shapes = (
{
closed = 1;
nodes = (
(205,-109,l),
(266,-109,l),
(284,-16,l),
(296,-16,ls),
(445,-16,o),
(579,51,o),
(579,215,cs),
(579,316,o),
(504,373,o),
(371,430,c),
(393,546,l),
(420,537,o),
(439,517,o),
(442,483,c),
(624,483,l),
(624,620,o),
(528,677,o),
(422,693,c),
(435,760,l),
(374,760,l),
(362,698,l),
(356,698,ls),
(197,699,o),
(72,625,o),
(72,478,cs),
(72,375,o),
(132,333,o),
(278,268,c),
(253,139,l),
(213,152,o),
(196,185,o),
(196,227,c),
(0,227,l),
(-7,82,o),
(92,8,o),
(224,-11,c)
);
},
{
closed = 1;
nodes = (
(386,149,o),
(349,136,o),
(313,133,c),
(334,242,l),
(377,221,o),
(386,209,o),
(386,188,cs)
);
},
{
closed = 1;
nodes = (
(261,541,o),
(305,553,o),
(334,554,c),
(314,455,l),
(267,477,o),
(261,487,o),
(261,505,cs)
);
}
);
width = 622;
}
);
note = dollar;
unicode = 36;
},
{
glyphname = percent;
kernLeft = percent;
layers = (
{
hints = (
{
horizontal = 1;
place = (-17, 95);
place = (-17, 95);
type = Stem;
},
{
horizontal = 1;
place = (297, 95);
place = (297, 95);
type = Stem;
},
{
horizontal = 1;
place = (606, 93);
place = (606, 93);
type = Stem;
},
{
place = (64, 134);
place = (64, 134);
type = Stem;
},
{
place = (472, 134);
place = (472, 134);
type = Stem;
},
{
place = (716, 136);
place = (716, 136);
type = Stem;
},
{
place = (308, 136);
place = (308, 136);
type = Stem;
},
{
horizontal = 1;
place = (0, 21);
target = up;
type = BottomGhost;
},
{
horizontal = 1;
place = (686, -20);
target = down;
type = TopGhost;
},
{
horizontal = 1;
place = (292, 93);
place = (292, 93);
type = Stem;
}
);
layerId = m01;
shapes = (
{
closed = 1;
nodes = (
(363,297,o),
(444,408,o),
(444,530,cs),
(444,643,o),
(368,699,o),
(275,699,cs),
(145,699,o),
(64,587,o),
(64,466,cs),
(64,363,o),
(133,297,o),
(232,297,cs)
);
},
{
closed = 1;
nodes = (
(148,0,l),
(251,0,l),
(769,686,l),
(666,686,l)
);
},
{
closed = 1;
nodes = (
(198,498,o),
(216,606,o),
(269,606,cs),
(297,606,o),
(308,582,o),
(308,545,cs),
(308,502,o),
(292,392,o),
(240,392,cs),
(204,392,o),
(198,426,o),
(198,454,cs)
);
},
{
closed = 1;
nodes = (
(771,-17,o),
(852,94,o),
(852,216,cs),
(852,329,o),
(776,385,o),
(683,385,cs),
(553,385,o),
(472,273,o),
(472,152,cs),
(472,49,o),
(541,-17,o),
(640,-17,cs)
);
},
{
closed = 1;
nodes = (
(606,184,o),
(624,292,o),
(677,292,cs),
(705,292,o),
(716,268,o),
(716,231,cs),
(716,188,o),
(700,78,o),
(648,78,cs),
(612,78,o),
(606,112,o),
(606,140,cs)
);
}
);
width = 888;
}
);
note = percent;
unicode = 37;
},
{
glyphname = ampersand;
kernLeft = ampersand;
kernRight = ampersand;
layers = (
{
hints = (
{
horizontal = 1;
place = (-9, 146);
place = (-9, 146);
type = Stem;
},
{
horizontal = 1;
place = (601, 127);
place = (601, 127);
type = Stem;
},
{
place = (16, 191);
place = (16, 191);
type = Stem;
},
{
place = (450, 160);
place = (450, 160);
type = Stem;
},
{
horizontal = 1;
place = (0, 21);
target = up;
type = BottomGhost;
},
{
horizontal = 1;
place = (0, 147);
place = (0, 147);
type = Stem;
},
{
place = (179, 169);
place = (179, 169);
type = Stem;
}
);
layerId = m01;
shapes = (
{
closed = 1;
nodes = (
(325,-9,o),
(384,10,o),
(429,41,c),
(452,0,l),
(676,0,l),
(585,147,l),
(642,207,o),
(685,271,o),
(707,349,c),
(545,349,l),
(536,321,o),
(522,294,o),
(507,274,c),
(445,375,l),
(543,411,o),
(610,467,o),
(610,553,cs),
(610,675,o),
(511,728,o),
(401,728,cs),
(284,728,o),
(179,660,o),
(179,539,cs),
(179,493,o),
(192,454,o),
(211,424,c),
(102,387,o),
(16,319,o),
(16,193,cs),
(16,43,o),
(139,-8,o),
(260,-9,cs)
);
},
{
closed = 1;
nodes = (
(208,262,o),
(238,291,o),
(274,307,c),
(360,159,l),
(342,148,o),
(318,137,o),
(289,137,cs),
(237,137,o),
(205,165,o),
(207,216,cs)
);
},
{
closed = 1;
nodes = (
(435,601,o),
(450,577,o),
(450,549,cs),
(450,506,o),
(412,479,o),
(382,466,c),
(363,484,o),
(348,511,o),
(348,539,cs),
(348,577,o),
(370,601,o),
(402,601,cs)
);
}
);
width = 725;
}
);
note = ampersand;
unicode = 38;
},
{
glyphname = quotesingle;
kernLeft = quotedbl;
kernRight = quotedbl;
layers = (
{
hints = (
{
horizontal = 1;
place = (428, 287);
place = (428, 287);
type = Stem;
},
{
place = (72, 217);
place = (72, 217);
type = Stem;
}
);
layerId = m01;
shapes = (
{
closed = 1;
nodes = (
(72,428,l),
(234,428,l),
(289,715,l),
(127,715,l)
);
}
);
width = 240;
}
);
note = quotesingle;
unicode = 39;
},
{
glyphname = parenleft;
kernRight = parenleft;
layers = (
{
hints = (
{
horizontal = 1;
place = (-144, 898);
place = (-144, 898);
type = Stem;
},
{
place = (32, 175);
place = (32, 175);
type = Stem;
}
);
layerId = m01;
shapes = (
{
closed = 1;
nodes = (
(234,-144,l),
(220,-79,o),
(207,11,o),
(207,113,cs),
(207,358,o),
(290,564,o),
(413,754,c),
(250,754,l),
(120,597,o),
(32,387,o),
(32,127,cs),
(32,22,o),
(52,-69,o),
(81,-144,c)
);
}
);
width = 330;
}
);
note = parenleft;
unicode = 40;
},
{
glyphname = parenright;
kernLeft = parenright;
layers = (
{
hints = (
{
horizontal = 1;
place = (-144, 898);
place = (-144, 898);
type = Stem;
},
{
place = (141, 175);
place = (141, 175);
type = Stem;
}
);
layerId = m01;
shapes = (
{
closed = 1;
nodes = (
(114,754,l),
(128,689,o),
(141,599,o),
(141,497,cs),
(141,252,o),
(58,46,o),
(-65,-144,c),
(98,-144,l),
(228,13,o),
(316,223,o),
(316,483,cs),
(316,588,o),
(296,679,o),
(267,754,c)
);
}
);
width = 330;
}
);
note = parenright;
unicode = 41;
},
{
glyphname = asterisk;
kernLeft = asterisk;
kernRight = asterisk;
layers = (
{
hints = (
{
horizontal = 1;
place = (715, -20);
target = down;
type = TopGhost;
},
{
place = (79, 414);
place = (79, 414);
type = Stem;
}
);
layerId = m01;
shapes = (
{
closed = 1;
nodes = (
(169,319,l),
(267,426,l),
(330,314,l),
(423,370,l),
(359,479,l),
(493,516,l),
(472,613,l),
(349,578,l),
(375,715,l),
(267,715,l),
(241,580,l),
(130,630,l),
(79,537,l),
(193,486,l),
(97,385,l)
);
}
);
width = 472;
}
);
note = asterisk;
unicode = 42;
},
{
glyphname = plus;
kernLeft = minus;
kernRight = minus;
layers = (
{
hints = (
{
horizontal = 1;
place = (250, 161);
place = (250, 161);
type = Stem;
},
{
place = (42, 498);
place = (42, 498);
type = Stem;
}
);
layerId = m01;
shapes = (
{
closed = 1;
nodes = (
(42,250,l),
(189,250,l),
(157,83,l),
(329,83,l),
(361,250,l),
(508,250,l),
(540,411,l),
(392,411,l),
(424,576,l),
(252,576,l),
(220,411,l),
(74,411,l)
);
}
);
width = 554;
}
);
note = plus;
unicode = 43;
},
{
glyphname = comma;
kernLeft = comma;
kernRight = comma;
layers = (
{
hints = (
{
horizontal = 1;
place = (0, 191);
place = (0, 191);
type = Stem;
},
{
place = (-57, 263);
place = (-57, 263);
type = Stem;
}
);
layerId = m01;
shapes = (
{
closed = 1;
nodes = (
(-57,-191,l),
(16,-189,o),
(70,-169,o),
(107,-132,cs),
(141,-98,o),
(159,-50,o),
(172,18,cs),
(206,191,l),
(15,191,l),
(-22,0,l),
(62,0,l),
(51,-66,o),
(18,-96,o),
(-40,-102,c)
);
}
);
width = 247;
}
);
note = comma;
unicode = 44;
},
{
glyphname = hyphen;
kernLeft = hyphen;
kernRight = hyphen;
layers = (
{
hints = (
{
horizontal = 1;
place = (175, 160);
place = (175, 160);
type = Stem;
},
{
place = (13, 299);
place = (13, 299);
type = Stem;
}
);
layerId = m01;
shapes = (
{
closed = 1;
nodes = (
(13,175,l),
(281,175,l),
(312,335,l),
(44,335,l)
);
}
);
width = 326;
}
);
note = hyphen;
unicode = 45;
},
{
glyphname = period;
kernLeft = comma;
kernRight = comma;
layers = (
{
hints = (
{
horizontal = 1;
place = (0, 191);
place = (0, 191);
type = Stem;
},
{
place = (-22, 228);
place = (-22, 228);
type = Stem;
}
);
layerId = m01;
shapes = (
{
closed = 1;
nodes = (
(-22,0,l),
(169,0,l),
(206,191,l),
(15,191,l)
);
}
);
width = 247;
}
);
note = period;
unicode = 46;
},
{
glyphname = slash;
kernLeft = slash;
kernRight = slash;
layers = (
{
hints = (
{
horizontal = 1;
place = (0, 21);
target = up;
type = BottomGhost;
},
{
horizontal = 1;
place = (715, -20);
target = down;
type = TopGhost;
},
{
place = (-40, 558);
place = (-40, 558);
type = Stem;
}
);
layerId = m01;
shapes = (
{
closed = 1;
nodes = (
(-40,0,l),
(134,0,l),
(518,715,l),
(344,715,l)
);
}
);
width = 452;
}
);
note = slash;
unicode = 47;
},
{
glyphname = zero;
kernLeft = zero;
kernRight = zero;
layers = (
{
hints = (
{
horizontal = 1;
place = (-16, 147);
place = (-16, 147);
type = Stem;
},
{
horizontal = 1;
place = (554, 145);
place = (554, 145);
type = Stem;
},
{
place = (28, 198);
place = (28, 198);
type = Stem;
},
{
place = (469, 199);
place = (469, 199);
type = Stem;
}
);
layerId = m01;
shapes = (
{
closed = 1;
nodes = (
(540,-16,o),
(668,192,o),
(668,404,cs),
(668,595,o),
(548,699,o),
(384,699,cs),
(155,699,o),
(28,489,o),
(28,280,cs),
(28,93,o),
(145,-16,o),
(313,-16,cs)
);
},
{
closed = 1;
nodes = (
(226,358,o),
(262,554,o),
(380,554,cs),
(453,554,o),
(469,482,o),
(469,423,cs),
(469,320,o),
(433,131,o),
(317,131,cs),
(244,131,o),
(226,193,o),
(226,256,cs)
);
}
);
width = 663;
}
);
note = zero;
unicode = 48;
},
{
glyphname = one;
kernLeft = one;
kernRight = one;
layers = (
{
hints = (
{
horizontal = 1;
place = (0, 21);
target = up;
type = BottomGhost;
},
{
horizontal = 1;
place = (691, -20);
target = down;
type = TopGhost;
},
{
place = (44, 391);
place = (44, 391);
type = Stem;
}
);
layerId = m01;
shapes = (
{
closed = 1;
nodes = (
(104,0,l),
(301,0,l),
(435,691,l),
(289,691,l),
(248,585,o),
(173,539,o),
(70,535,c),
(44,398,l),
(181,398,l)
);
}
);
width = 406;
}
);
note = one;
unicode = 49;
},
{
glyphname = two;
kernLeft = two;
kernRight = two;
layers = (
{
hints = (
{
horizontal = 1;
place = (0, 165);
place = (0, 165);
type = Stem;
},
{
horizontal = 1;
place = (543, 156);
place = (543, 156);
type = Stem;
},
{
place = (422, 196);
place = (422, 196);
type = Stem;
}
);
layerId = m01;
shapes = (
{
closed = 1;
nodes = (
(519,0,l),
(551,165,l),
(273,165,l),
(273,167,l),
(345,215,o),
(427,247,o),
(505,298,cs),
(572,341,o),
(618,400,o),
(618,497,cs),
(618,642,o),
(493,699,o),
(368,699,cs),
(254,699,o),
(167,653,o),
(121,594,cs),
(86,550,o),
(68,507,o),
(55,418,c),
(242,418,l),
(250,466,o),
(261,492,o),
(283,514,cs),
(302,533,o),
(327,544,o),
(357,543,cs),
(399,543,o),
(422,521,o),
(422,479,cs),
(422,436,o),
(395,405,o),
(334,369,cs),
(266,329,o),
(164,279,o),
(89,219,cs),
(25,168,o),
(-12,112,o),
(-33,0,c)
);
}
);
width = 604;
}
);
note = two;
unicode = 50;
},
{
glyphname = three;
kernLeft = three;
kernRight = three;
layers = (
{
hints = (
{
horizontal = 1;
place = (-17, 148);
place = (-17, 148);
type = Stem;
},
{
horizontal = 1;
place = (285, 130);
place = (285, 130);
type = Stem;
},
{
horizontal = 1;
place = (552, 147);
place = (552, 147);
type = Stem;
},
{
place = (5, 188);
place = (5, 188);
type = Stem;
},
{
place = (395, 198);
place = (395, 198);
type = Stem;
},
{
place = (424, 191);
place = (424, 191);
type = Stem;
}
);
layerId = m01;
shapes = (
{
closed = 1;
nodes = (
(449,-17,o),
(593,59,o),
(593,212,cs),
(593,285,o),
(550,331,o),
(502,353,c),
(502,355,l),
(576,384,o),
(615,438,o),
(615,509,cs),
(615,657,o),
(474,699,o),
(355,699,cs),
(194,699,o),
(76,610,o),
(56,463,c),
(241,463,l),
(251,518,o),
(286,552,o),
(347,552,cs),
(392,552,o),
(425,527,o),
(424,487,cs),
(424,431,o),
(375,415,o),
(328,415,cs),
(283,415,l),
(258,285,l),
(287,285,ls),
(358,285,o),
(396,259,o),
(395,212,cs),
(395,161,o),
(348,131,o),
(298,131,cs),
(219,131,o),
(193,181,o),
(193,240,c),
(5,240,l),
(-6,62,o),
(133,-17,o),
(298,-17,cs)
);
}
);
width = 620;
}
);
note = three;
unicode = 51;
},
{
glyphname = four;
kernLeft = four;
kernRight = four;
layers = (
{
hints = (
{
horizontal = 1;
place = (0, 21);
target = up;
type = BottomGhost;
},
{
horizontal = 1;
place = (154, 147);
place = (154, 147);
type = Stem;
},
{
horizontal = 1;
place = (691, -20);
target = down;
type = TopGhost;
},
{
place = (-3, 629);
place = (-3, 629);
type = Stem;
}
);
layerId = m01;
shapes = (
{
closed = 1;
nodes = (
(285,0,l),
(475,0,l),
(504,154,l),
(597,154,l),
(626,301,l),
(533,301,l),
(609,691,l),
(420,691,l),
(29,317,l),
(-3,154,l),
(314,154,l)
);
},
{
closed = 1;
nodes = (
(176,303,l),
(379,497,l),
(381,497,l),
(343,301,l),
(176,301,l)
);
}
);
width = 634;
}
);
note = four;
unicode = 52;
},
{
glyphname = five;
kernLeft = five;
kernRight = five;
layers = (
{
hints = (
{
horizontal = 1;
place = (-17, 154);
place = (-17, 154);
type = Stem;
},
{
horizontal = 1;
place = (341, 130);
place = (341, 130);
type = Stem;
},
{
horizontal = 1;
place = (528, 157);
place = (528, 157);
type = Stem;
},
{
place = (397, 198);
place = (397, 198);
type = Stem;
},
{
horizontal = 1;
place = (300, 132);
place = (300, 132);
type = Stem;
}
);
layerId = m01;
shapes = (
{
closed = 1;
nodes = (
(477,-17,o),
(595,98,o),
(595,259,cs),
(595,390,o),
(519,471,o),
(390,471,cs),
(322,471,o),
(277,450,o),
(255,432,c),
(252,432,l),
(281,528,l),
(589,528,l),
(620,685,l),
(157,685,l),
(43,300,l),
(225,300,l),
(243,325,o),
(276,341,o),
(310,341,cs),
(368,341,o),
(398,301,o),
(397,253,cs),
(397,189,o),
(356,137,o),
(291,137,cs),
(238,137,o),
(198,166,o),
(194,211,c),
(3,211,l),
(12,40,o),
(144,-17,o),
(291,-17,cs)
);
}
);
width = 617;
}
);
note = five;
unicode = 53;
},
{
glyphname = six;
kernLeft = six;
kernRight = six;
layers = (
{
hints = (
{
horizontal = 1;
place = (-16, 143);
place = (-16, 143);
type = Stem;
},
{
horizontal = 1;
place = (333, 139);
place = (333, 139);
type = Stem;
},
{
horizontal = 1;
place = (563, 136);
place = (563, 136);
type = Stem;
},
{
place = (26, 187);
place = (26, 187);
type = Stem;
},
{
place = (423, 187);
place = (423, 187);
type = Stem;
},
{
horizontal = 1;
place = (509, 190);
place = (509, 190);
type = Stem;
}
);
layerId = m01;
shapes = (
{
closed = 1;
nodes = (
(475,-15,o),
(610,86,o),
(610,260,cs),
(610,396,o),
(503,472,o),
(395,472,cs),
(329,472,o),
(282,446,o),
(243,411,c),
(241,411,l),
(268,512,o),
(321,563,o),
(385,563,cs),
(424,563,o),
(454,545,o),
(457,509,c),
(645,509,l),
(631,649,o),
(520,699,o),
(397,699,cs),
(306,699,o),
(225,668,o),
(167,614,cs),
(68,522,o),
(26,378,o),
(26,257,cs),
(26,70,o),
(144,-16,o),
(307,-16,cs)
);
},
{
closed = 1;
nodes = (
(213,286,o),
(267,333,o),
(329,333,cs),
(386,333,o),
(423,296,o),
(423,245,cs),
(423,173,o),
(370,127,o),
(307,127,cs),
(250,127,o),
(213,163,o),
(213,216,cs)
);
}
);
width = 631;
}
);
note = six;
unicode = 54;
},
{
glyphname = seven;
kernLeft = seven;
kernRight = seven;
layers = (
{
hints = (
{
horizontal = 1;
place = (0, 21);
target = up;
type = BottomGhost;
},
{
horizontal = 1;
place = (515, 170);
place = (515, 170);
type = Stem;
},
{
place = (65, 550);
place = (65, 550);
type = Stem;
}
);
layerId = m01;
shapes = (
{
closed = 1;
nodes = (
(269,0,l),
(315,219,o),
(445,420,o),
(586,537,c),
(615,685,l),
(98,685,l),
(65,515,l),
(375,515,l),
(375,513,l),
(265,423,o),
(124,243,o),
(67,0,c)
);
}
);
width = 550;
}
);
note = seven;
unicode = 55;
},
{
glyphname = eight;
kernLeft = eight;
kernRight = eight;
layers = (
{
hints = (
{
horizontal = 1;
place = (-17, 139);
place = (-17, 139);
type = Stem;
},
{
horizontal = 1;
place = (299, 118);
place = (299, 118);
type = Stem;
},
{
horizontal = 1;
place = (570, 129);
place = (570, 129);
type = Stem;
},
{
place = (2, 194);
place = (2, 194);
type = Stem;
},
{
place = (435, 178);
place = (435, 178);
type = Stem;
},
{
place = (398, 190);
place = (398, 190);
type = Stem;
},
{
place = (82, 175);
place = (82, 175);
type = Stem;
}
);
layerId = m01;
shapes = (
{
closed = 1;
nodes = (
(436,-17,o),
(588,55,o),
(588,211,cs),
(588,270,o),
(562,322,o),
(505,351,c),
(505,354,l),
(574,389,o),
(613,432,o),
(613,513,cs),
(613,641,o),
(479,699,o),
(355,699,cs),
(213,699,o),
(82,619,o),
(82,485,cs),
(82,437,o),
(101,394,o),
(143,365,c),
(143,362,l),
(60,332,o),
(2,278,o),
(2,181,cs),
(2,37,o),
(152,-17,o),
(284,-17,cs)
);
},
{
closed = 1;
nodes = (
(196,266,o),
(251,299,o),
(304,299,cs),
(358,299,o),
(397,269,o),
(398,221,cs),
(399,159,o),
(347,123,o),
(292,122,cs),
(237,122,o),
(196,152,o),
(196,202,cs)
);
},
{
closed = 1;
nodes = (
(257,543,o),
(308,569,o),
(351,570,cs),
(399,570,o),
(434,542,o),
(435,498,cs),
(436,440,o),
(389,417,o),
(342,417,cs),
(293,417,o),
(257,438,o),
(257,485,cs)
);
}
);
width = 611;
}
);
note = eight;
unicode = 56;
},
{
glyphname = nine;
kernLeft = nine;
kernRight = nine;
layers = (
{
hints = (
{
horizontal = 1;
place = (-16, 136);
place = (-16, 136);
type = Stem;
},
{
horizontal = 1;
place = (207, 139);
place = (207, 139);
type = Stem;
},
{
horizontal = 1;
place = (556, 143);
place = (556, 143);
type = Stem;
},
{
place = (49, 188);
place = (49, 188);
type = Stem;
},
{
place = (447, 185);
place = (447, 185);
type = Stem;
},
{
horizontal = 1;
place = (-16, 192);
place = (-16, 192);
type = Stem;
}
);
layerId = m01;
shapes = (
{
closed = 1;
nodes = (
(183,698,o),
(49,591,o),
(49,417,cs),
(49,281,o),
(155,207,o),
(263,207,cs),
(329,207,o),
(376,233,o),
(415,268,c),
(417,268,l),
(391,164,o),
(341,120,o),
(272,120,cs),
(232,120,o),
(203,137,o),
(198,176,c),
(10,176,l),
(22,30,o),
(138,-16,o),
(261,-16,cs),
(355,-16,o),
(436,8,o),
(494,62,cs),
(593,154,o),
(632,283,o),
(632,431,cs),
(632,611,o),
(514,699,o),
(351,699,cs)
);
},
{
closed = 1;
nodes = (
(447,395,o),
(393,346,o),
(331,346,cs),
(274,346,o),
(237,385,o),
(237,436,cs),
(237,508,o),
(288,556,o),
(351,556,cs),
(408,556,o),
(447,518,o),
(447,465,cs)
);
}
);
width = 626;
}
);
note = nine;
unicode = 57;
},
{
glyphname = colon;
kernLeft = colon;
kernRight = colon;
layers = (
{
hints = (
{
horizontal = 1;
place = (0, 191);
place = (0, 191);
type = Stem;
},
{
horizontal = 1;
place = (319, 191);
place = (319, 191);
type = Stem;
},
{
place = (-19, 290);
place = (-19, 290);
type = Stem;
}
);
layerId = m01;
shapes = (
{
closed = 1;
nodes = (
(43,319,l),
(234,319,l),
(271,510,l),
(80,510,l)
);
},
{
closed = 1;
nodes = (
(-19,0,l),
(172,0,l),
(209,191,l),
(18,191,l)
);
}
);
width = 253;
}
);
note = colon;
unicode = 58;
},
{
glyphname = semicolon;
kernLeft = colon;
kernRight = colon;
layers = (
{
hints = (
{
horizontal = 1;
place = (0, 191);
place = (0, 191);
type = Stem;
},
{
horizontal = 1;
place = (319, 191);
place = (319, 191);
type = Stem;
},
{
place = (-54, 325);
place = (-54, 325);
type = Stem;
}
);
layerId = m01;
shapes = (
{
closed = 1;
nodes = (
(43,319,l),
(234,319,l),
(271,510,l),
(80,510,l)
);
},
{
closed = 1;
nodes = (
(-54,-191,l),
(19,-189,o),
(73,-169,o),
(110,-132,cs),
(144,-98,o),
(162,-50,o),
(175,18,cs),
(209,191,l),
(18,191,l),
(-19,0,l),
(65,0,l),
(54,-66,o),
(21,-96,o),
(-37,-102,c)
);
}
);
width = 253;
}
);
note = semicolon;
unicode = 59;
},
{
glyphname = less;
layers = (
{
hints = (
{
horizontal = 1;
place = (47, 519);
place = (47, 519);
type = Stem;
},
{
place = (37, 469);
place = (37, 469);
type = Stem;
}
);
layerId = m01;
shapes = (
{
closed = 1;
nodes = (
(406,47,l),
(440,228,l),
(306,281,ls),
(265,297,o),
(215,312,o),
(215,312,c),
(215,314,l),
(215,314,o),
(273,329,o),
(319,345,cs),
(474,397,l),
(506,566,l),
(72,416,l),
(37,239,l)
);
}
);
width = 495;
}
);
note = less;
unicode = 60;
},
{
glyphname = equal;
layers = (
{
hints = (
{
horizontal = 1;
place = (115, 154);
place = (115, 154);
type = Stem;
},
{
horizontal = 1;
place = (347, 154);
place = (347, 154);
type = Stem;
},
{
place = (16, 541);
place = (16, 541);
type = Stem;
}
);
layerId = m01;
shapes = (
{
closed = 1;
nodes = (
(61,347,l),
(527,347,l),
(557,501,l),
(91,501,l)
);
},
{
closed = 1;
nodes = (
(16,115,l),
(482,115,l),
(512,269,l),
(46,269,l)
);
}
);
width = 554;
}
);
note = equal;
unicode = 61;
},
{
glyphname = greater;
layers = (
{
hints = (
{
horizontal = 1;
place = (48, 519);
place = (48, 519);
type = Stem;
},
{
place = (7, 469);
place = (7, 469);
type = Stem;
}
);
layerId = m01;
shapes = (
{
closed = 1;
nodes = (
(107,567,l),
(73,386,l),
(207,333,ls),
(248,317,o),
(298,302,o),
(298,302,c),
(298,300,l),
(298,300,o),
(240,285,o),
(194,269,cs),
(39,217,l),
(7,48,l),
(441,198,l),
(476,375,l)
);
}
);
width = 495;
}
);
note = greater;
unicode = 62;
},
{
glyphname = question;
kernLeft = question;
layers = (
{
hints = (
{
horizontal = 1;
place = (0, 191);
place = (0, 191);
type = Stem;
},
{
horizontal = 1;
place = (573, 155);
place = (573, 155);
type = Stem;
},
{
place = (389, 203);
place = (389, 203);
type = Stem;
}
);
layerId = m01;
shapes = (
{
closed = 1;
nodes = (
(349,258,l),
(353,280,o),
(357,299,o),
(377,314,cs),
(395,328,o),
(422,341,o),
(477,369,cs),
(551,405,o),
(592,465,o),
(592,545,cs),
(592,693,o),
(453,728,o),
(350,728,cs),
(193,728,o),
(78,656,o),
(52,491,c),
(243,491,l),
(253,548,o),
(288,573,o),
(330,573,cs),
(365,573,o),
(389,557,o),
(389,523,cs),
(389,468,o),
(297,448,o),
(246,406,cs),
(208,374,o),
(198,342,o),
(182,258,c)
);
},
{
closed = 1;
nodes = (
(116,0,l),
(308,0,l),
(345,191,l),
(153,191,l)
);
}
);
width = 559;
}
);
note = question;
unicode = 63;
},
{
glyphname = at;
kernLeft = at;
kernRight = at;
layers = (
{
hints = (
{
horizontal = 1;
place = (-109, 96);
place = (-109, 96);
type = Stem;
},
{
horizontal = 1;
place = (84, 118);
place = (84, 118);
type = Stem;
},
{
horizontal = 1;
place = (400, 117);
place = (400, 117);
type = Stem;
},
{
horizontal = 1;
place = (619, 95);
place = (619, 95);
type = Stem;
},
{
place = (37, 113);
place = (37, 113);
type = Stem;
},
{
place = (230, 158);
place = (230, 158);
type = Stem;
},
{
place = (521, 125);
place = (521, 125);
type = Stem;
},
{
place = (787, 111);
place = (787, 111);
type = Stem;
},
{
horizontal = 1;
place = (76, 97);
place = (76, 97);
type = Stem;
}
);
layerId = m01;
shapes = (
{
closed = 1;
nodes = (
(432,84,o),
(474,112,o),
(506,159,c),
(508,159,l),
(525,102,o),
(580,76,o),
(653,76,cs),
(819,76,o),
(898,209,o),
(898,350,cs),
(898,581,o),
(718,714,o),
(498,714,cs),
(234,714,o),
(37,525,o),
(37,268,cs),
(37,37,o),
(208,-109,o),
(441,-109,cs),
(518,-109,o),
(592,-97,o),
(658,-68,c),
(626,22,l),
(572,2,o),
(508,-13,o),
(448,-13,cs),
(256,-13,o),
(150,104,o),
(150,269,cs),
(150,489,o),
(308,619,o),
(495,619,cs),
(668,619,o),
(787,529,o),
(787,347,cs),
(787,268,o),
(760,173,o),
(678,173,cs),
(651,173,o),
(640,194,o),
(649,238,cs),
(709,505,l),
(560,505,l),
(547,446,l),
(545,446,l),
(529,491,o),
(497,517,o),
(441,517,cs),
(299,517,o),
(230,384,o),
(230,262,cs),
(230,150,o),
(279,84,o),
(374,84,cs)
);
},
{
closed = 1;
nodes = (
(402,202,o),
(388,230,o),
(388,266,cs),
(388,327,o),
(415,400,o),
(475,400,cs),
(505,400,o),
(521,372,o),
(521,334,cs),
(521,274,o),
(492,202,o),
(433,202,cs)
);
}
);
width = 911;
}
);
note = at;
unicode = 64;
},
{
glyphname = A;
kernLeft = A;
kernRight = A;
layers = (
{
hints = (
{
horizontal = 1;
place = (0, 21);
target = up;
type = BottomGhost;
},
{
horizontal = 1;
place = (106, 142);
place = (106, 142);
type = Stem;
},
{
horizontal = 1;
place = (715, -20);
target = down;
type = TopGhost;
},
{
place = (-55, 730);
place = (-55, 730);
type = Stem;
}
);
layerId = m01;
shapes = (
{
closed = 1;
nodes = (
(460,0,l),
(675,0,l),
(543,715,l),
(334,715,l),
(-55,0,l),
(153,0,l),
(206,106,l),
(445,106,l)
);
},
{
closed = 1;
nodes = (
(350,391,ls),
(367,426,o),
(393,483,o),
(393,483,c),
(395,483,l),
(395,483,o),
(400,426,o),
(405,391,cs),
(425,248,l),
(278,248,l)
);
}
);
width = 718;
}
);
note = A;
unicode = 65;
},
{
glyphname = B;
layers = (
{
hints = (
{
horizontal = 1;
place = (0, 162);
place = (0, 162);
type = Stem;
},
{
horizontal = 1;
place = (304, 132);
place = (304, 132);
type = Stem;
},
{
horizontal = 1;
place = (555, 160);
place = (555, 160);
type = Stem;
},
{
place = (461, 197);
place = (461, 197);
type = Stem;
},
{
place = (485, 199);
place = (485, 199);
type = Stem;
}
);
layerId = m01;
shapes = (
{
closed = 1;
nodes = (
(-8,0,l),
(387,0,ls),
(460,0,o),
(510,15,o),
(557,45,cs),
(626,90,o),
(658,167,o),
(658,238,cs),
(658,308,o),
(619,356,o),
(566,381,c),
(566,384,l),
(637,410,o),
(684,465,o),
(684,539,cs),
(684,600,o),
(658,643,o),
(623,670,cs),
(587,697,o),
(534,715,o),
(454,715,cs),
(130,715,l)
);
},
{
closed = 1;
nodes = (
(225,162,l),
(252,304,l),
(391,304,ls),
(430,304,o),
(461,281,o),
(461,241,cs),
(461,186,o),
(421,162,o),
(377,162,cs)
);
},
{
closed = 1;
nodes = (
(278,436,l),
(301,555,l),
(424,555,ls),
(460,555,o),
(485,534,o),
(485,502,cs),
(485,452,o),
(445,436,o),
(413,436,cs)
);
}
);
width = 674;
}
);
note = B;
unicode = 66;
},
{
glyphname = C;
kernLeft = C;
kernRight = C;
layers = (
{
hints = (
{
horizontal = 1;
place = (-17, 170);
place = (-17, 170);
type = Stem;
},
{
horizontal = 1;
place = (557, 171);
place = (557, 171);
type = Stem;
},
{
place = (28, 210);
place = (28, 210);
type = Stem;
},
{
place = (520, 207);
place = (520, 207);
type = Stem;
}
);
layerId = m01;
shapes = (
{
closed = 1;
nodes = (
(520,-17,o),
(668,71,o),
(704,266,c),
(494,266,l),
(477,191,o),
(426,153,o),
(360,153,cs),
(270,153,o),
(238,225,o),
(238,306,cs),
(238,425,o),
(290,557,o),
(414,557,cs),
(487,557,o),
(519,512,o),
(520,450,c),
(727,450,l),
(723,546,o),
(691,623,o),
(624,673,cs),
(575,710,o),
(509,728,o),
(417,728,cs),
(181,728,o),
(28,531,o),
(28,301,cs),
(28,91,o),
(162,-17,o),
(359,-17,cs)
);
}
);
width = 706;
}
);
note = C;
unicode = 67;
},
{
glyphname = D;
kernRight = Eth;
layers = (
{
hints = (
{
horizontal = 1;
place = (0, 171);
place = (0, 171);
type = Stem;
},
{
horizontal = 1;
place = (544, 171);
place = (544, 171);
type = Stem;
},
{
place = (517, 210);
place = (517, 210);
type = Stem;
}
);
layerId = m01;
shapes = (
{
closed = 1;
nodes = (
(-8,0,l),
(335,0,ls),
(581,0,o),
(727,166,o),
(727,408,cs),
(727,601,o),
(601,715,o),
(414,715,cs),
(130,715,l)
);
},
{
closed = 1;
nodes = (
(231,171,l),
(303,544,l),
(378,544,ls),
(468,544,o),
(517,493,o),
(517,393,cs),
(517,264,o),
(448,171,o),
(333,171,cs)
);
}
);
width = 718;
}
);
note = D;
unicode = 68;
},
{
glyphname = E;
kernRight = E;
layers = (
{
hints = (
{
horizontal = 1;
place = (0, 177);
place = (0, 177);
type = Stem;
},
{
horizontal = 1;
place = (292, 155);
place = (292, 155);
type = Stem;
},
{
horizontal = 1;
place = (547, 168);
place = (547, 168);
type = Stem;
},
{
place = (-8, 678);
place = (-8, 678);
type = Stem;
}
);
layerId = m01;
shapes = (
{
closed = 1;
nodes = (
(-8,0,l),
(546,0,l),
(580,177,l),
(232,177,l),
(254,292,l),
(535,292,l),
(565,447,l),
(285,447,l),
(303,547,l),
(637,547,l),
(670,715,l),
(130,715,l)
);
}
);
width = 623;
}
);
note = E;
unicode = 69;
},
{
glyphname = F;
kernRight = F;
layers = (
{
hints = (
{
horizontal = 1;
place = (0, 21);
target = up;
type = BottomGhost;
},
{
horizontal = 1;
place = (261, 160);
place = (261, 160);
type = Stem;
},
{
horizontal = 1;
place = (541, 174);
place = (541, 174);
type = Stem;
},
{
place = (-8, 675);
place = (-8, 675);
type = Stem;
}
);
layerId = m01;
shapes = (
{
closed = 1;
nodes = (
(-8,0,l),
(198,0,l),
(248,261,l),
(525,261,l),
(556,421,l),
(280,421,l),
(302,541,l),
(633,541,l),
(667,715,l),
(130,715,l)
);
}
);
width = 595;
}
);
note = F;
unicode = 70;
},
{
glyphname = G;
kernLeft = C;
kernRight = G;
layers = (
{
hints = (
{
horizontal = 1;
place = (0, 21);
target = up;
type = BottomGhost;
},
{
horizontal = 1;
place = (240, 148);
place = (240, 148);
type = Stem;
},
{
horizontal = 1;
place = (557, 171);
place = (557, 171);
type = Stem;
},
{
place = (26, 212);
place = (26, 212);
type = Stem;
},
{
horizontal = 1;
place = (-17, 168);
place = (-17, 168);
type = Stem;
}
);
layerId = m01;
shapes = (
{
closed = 1;
nodes = (
(514,0,l),
(651,0,l),
(726,388,l),
(435,388,l),
(406,240,l),
(500,240,l),
(483,184,o),
(441,151,o),
(371,151,cs),
(274,151,o),
(238,214,o),
(238,303,cs),
(238,430,o),
(298,557,o),
(424,557,cs),
(482,557,o),
(518,525,o),
(524,472,c),
(726,472,l),
(723,654,o),
(587,728,o),
(429,728,cs),
(176,728,o),
(26,516,o),
(26,296,cs),
(26,214,o),
(44,150,o),
(79,100,cs),
(131,25,o),
(213,-17,o),
(320,-17,cs),
(397,-17,o),
(471,19,o),
(510,71,c),
(512,71,l)
);
}
);
width = 728;
}
);
note = G;
unicode = 71;
},
{
glyphname = H;
layers = (
{
hints = (
{
horizontal = 1;
place = (0, 21);
target = up;
type = BottomGhost;
},
{
horizontal = 1;
place = (281, 171);
place = (281, 171);
type = Stem;
},
{
horizontal = 1;
place = (715, -20);
target = down;
type = TopGhost;
},
{
place = (-8, 761);
place = (-8, 761);
type = Stem;
}
);
layerId = m01;
shapes = (
{
closed = 1;
nodes = (
(336,715,l),
(130,715,l),
(-8,0,l),
(198,0,l),
(252,281,l),
(463,281,l),
(409,0,l),
(615,0,l),
(753,715,l),
(547,715,l),
(496,452,l),
(285,452,l)
);
}
);
width = 707;
}
);
note = H;
unicode = 72;
},
{
glyphname = I;
layers = (
{
hints = (
{
horizontal = 1;
place = (0, 21);
target = up;
type = BottomGhost;
},
{
horizontal = 1;
place = (715, -20);
target = down;
type = TopGhost;
},
{
place = (-8, 344);
place = (-8, 344);
type = Stem;
}
);
layerId = m01;
shapes = (
{
closed = 1;
nodes = (
(-8,0,l),
(198,0,l),
(336,715,l),
(130,715,l)
);
}
);
width = 290;
}
);
note = I;
unicode = 73;
},
{
glyphname = J;
kernLeft = J;
kernRight = J;
layers = (
{
hints = (
{
horizontal = 1;
place = (-13, 173);
place = (-13, 173);
type = Stem;
},
{
horizontal = 1;
place = (715, -20);
target = down;
type = TopGhost;
},
{
place = (-4, 616);
place = (-4, 616);
type = Stem;
}
);
layerId = m01;
shapes = (
{
closed = 1;
nodes = (
(329,-13,o),
(393,14,o),
(440,56,cs),
(481,93,o),
(501,139,o),
(513,203,cs),
(612,715,l),
(407,715,l),
(312,225,ls),
(304,185,o),
(286,160,o),
(246,160,cs),
(195,160,o),
(182,191,o),
(191,237,cs),
(201,290,l),
(11,290,l),
(3,250,ls),
(-33,69,o),
(81,-13,o),
(237,-13,cs)
);
}
);
width = 562;
}
);
note = J;
unicode = 74;
},
{
glyphname = K;
kernRight = K;
layers = (
{
hints = (
{
horizontal = 1;
place = (0, 21);
target = up;
type = BottomGhost;
},
{
horizontal = 1;
place = (715, -20);
target = down;
type = TopGhost;
},
{
place = (-8, 789);
place = (-8, 789);
type = Stem;
}
);
layerId = m01;
shapes = (
{
closed = 1;
nodes = (
(432,0,l),
(659,0,l),
(465,421,l),
(781,715,l),
(542,715,l),
(289,472,l),
(336,715,l),
(130,715,l),
(-8,0,l),
(198,0,l),
(241,222,l),
(306,283,l)
);
}
);
width = 702;
}
);
note = K;
unicode = 75;
},
{
glyphname = L;
kernRight = L;
layers = (
{
hints = (
{
horizontal = 1;
place = (0, 177);
place = (0, 177);
type = Stem;
},
{
horizontal = 1;
place = (715, -20);
target = down;
type = TopGhost;
},
{
place = (-8, 536);
place = (-8, 536);
type = Stem;
}
);
layerId = m01;
shapes = (
{
closed = 1;
nodes = (
(-8,0,l),
(494,0,l),
(528,177,l),
(232,177,l),
(336,715,l),
(130,715,l)
);
}
);
width = 556;
}
);
note = L;
unicode = 76;
},
{
glyphname = M;
layers = (
{
hints = (
{
horizontal = 1;
place = (0, 21);
target = up;
type = BottomGhost;
},
{
horizontal = 1;
place = (715, -20);
target = down;
type = TopGhost;
},
{
place = (-8, 894);
place = (-8, 894);
type = Stem;
}
);
layerId = m01;
shapes = (
{
closed = 1;
nodes = (
(-8,0,l),
(173,0,l),
(260,448,l),
(262,448,l),
(294,0,l),
(445,0,l),
(647,448,l),
(649,448,l),
(562,0,l),
(748,0,l),
(886,715,l),
(613,715,l),
(430,315,l),
(428,315,l),
(395,715,l),
(130,715,l)
);
}
);
width = 840;
}
);
note = M;
unicode = 77;
},
{
glyphname = N;
layers = (
{
hints = (
{
horizontal = 1;
place = (0, 21);
target = up;
type = BottomGhost;
},
{
horizontal = 1;
place = (715, -20);
target = down;
type = TopGhost;
},
{
place = (-8, 767);
place = (-8, 767);
type = Stem;
}
);
layerId = m01;
shapes = (
{
closed = 1;
nodes = (
(-8,0,l),
(191,0,l),
(271,413,l),
(273,413,l),
(407,0,l),
(621,0,l),
(759,715,l),
(560,715,l),
(480,305,l),
(478,305,l),
(337,715,l),
(130,715,l)
);
}
);
width = 713;
}
);
note = N;
unicode = 78;
},
{
glyphname = O;
kernLeft = C;
kernRight = O;
layers = (
{
hints = (
{
horizontal = 1;
place = (-17, 166);
place = (-17, 166);
type = Stem;
},
{
horizontal = 1;
place = (562, 166);
place = (562, 166);
type = Stem;
},
{
place = (29, 207);
place = (29, 207);
type = Stem;
},
{
place = (542, 207);
place = (542, 207);
type = Stem;
}
);
layerId = m01;
shapes = (
{
closed = 1;
nodes = (
(594,-16,o),
(749,175,o),
(749,404,cs),
(749,614,o),
(620,728,o),
(423,728,cs),
(187,728,o),
(31,532,o),
(29,299,cs),
(27,86,o),
(176,-17,o),
(362,-17,cs)
);
},
{
closed = 1;
nodes = (
(236,415,o),
(291,561,o),
(416,562,cs),
(509,562,o),
(542,493,o),
(542,405,cs),
(542,287,o),
(488,149,o),
(365,149,cs),
(273,149,o),
(236,218,o),
(236,299,cs)
);
}
);
width = 740;
}
);
note = O;
unicode = 79;
},
{
glyphname = P;
kernRight = P;
layers = (
{
hints = (
{
horizontal = 1;
place = (0, 21);
target = up;
type = BottomGhost;
},
{
horizontal = 1;
place = (219, 160);
place = (219, 160);
type = Stem;
},
{
horizontal = 1;
place = (544, 171);
place = (544, 171);
type = Stem;
},
{
place = (480, 205);
place = (480, 205);
type = Stem;
}
);
layerId = m01;
shapes = (
{
closed = 1;
nodes = (
(-8,0,l),
(198,0,l),
(240,219,l),
(407,219,ls),
(567,219,o),
(685,323,o),
(685,492,cs),
(685,560,o),
(661,612,o),
(625,649,cs),
(584,691,o),
(522,715,o),
(417,715,cs),
(130,715,l)
);
},
{
closed = 1;
nodes = (
(303,544,l),
(404,544,ls),
(454,544,o),
(480,522,o),
(480,475,cs),
(480,412,o),
(436,379,o),
(384,379,cs),
(271,379,l)
);
}
);
width = 652;
}
);
note = P;
unicode = 80;
},
{
glyphname = Q;
kernLeft = C;
kernRight = Q;
layers = (
{
hints = (
{
horizontal = 1;
place = (-17, 164);
place = (-17, 164);
type = Stem;
},
{
horizontal = 1;
place = (562, 166);
place = (562, 166);
type = Stem;
},
{
place = (29, 207);
place = (29, 207);
type = Stem;
},
{
place = (542, 207);
place = (542, 207);
type = Stem;
}
);
layerId = m01;
shapes = (
{
closed = 1;
nodes = (
(421,-16,o),
(475,-4,o),
(523,18,c),
(607,-67,l),
(702,24,l),
(631,96,l),
(706,173,o),
(749,283,o),
(749,404,cs),
(749,614,o),
(620,728,o),
(420,728,cs),
(184,728,o),
(31,532,o),
(29,299,cs),
(27,86,o),
(176,-17,o),
(362,-17,cs)
);
},
{
closed = 1;
nodes = (
(428,304,l),
(332,213,l),
(395,149,l),
(385,147,o),
(375,147,o),
(365,147,cs),
(273,147,o),
(236,218,o),
(236,299,cs),
(236,415,o),
(291,561,o),
(416,562,cs),
(509,562,o),
(542,493,o),
(542,405,cs),
(542,331,o),
(531,269,o),
(506,224,c)
);
}
);
width = 740;
}
);
note = Q;
unicode = 81;
},
{
glyphname = R;
kernRight = R;
layers = (
{
hints = (
{
horizontal = 1;
place = (0, 11);
place = (0, 11);
type = Stem;
},
{
horizontal = 1;
place = (250, 147);
place = (250, 147);
type = Stem;
},
{
horizontal = 1;
place = (553, 162);
place = (553, 162);
type = Stem;
},
{
place = (424, 200);
place = (424, 200);
type = Stem;
},
{
place = (481, 206);
place = (481, 206);
type = Stem;
}
);
layerId = m01;
shapes = (
{
closed = 1;
nodes = (
(336,250,ls),
(404,250,o),
(424,215,o),
(424,156,cs),
(424,118,o),
(421,74,o),
(421,46,cs),
(421,28,o),
(423,9,o),
(429,0,c),
(637,0,l),
(637,11,l),
(629,17,o),
(623,33,o),
(623,60,cs),
(622,97,o),
(624,147,o),
(624,179,cs),
(624,256,o),
(596,303,o),
(543,325,c),
(543,328,l),
(637,360,o),
(687,416,o),
(687,523,cs),
(687,655,o),
(572,715,o),
(433,715,cs),
(130,715,l),
(-8,0,l),
(198,0,l),
(246,250,l)
);
},
{
closed = 1;
nodes = (
(305,553,l),
(401,553,ls),
(455,553,o),
(481,527,o),
(481,484,cs),
(481,423,o),
(437,397,o),
(385,397,cs),
(275,397,l)
);
}
);
width = 680;
}
);
note = R;
unicode = 82;
},
{
glyphname = S;
kernLeft = Scaron;
kernRight = Scaron;
layers = (
{
hints = (
{
horizontal = 1;
place = (-17, 160);
place = (-17, 160);
type = Stem;
},
{
horizontal = 1;
place = (575, 153);
place = (575, 153);
type = Stem;
},
{
place = (66, 200);
place = (66, 200);
type = Stem;
},
{
place = (409, 213);
place = (409, 213);
type = Stem;
}
);
layerId = m01;
shapes = (
{
closed = 1;
nodes = (
(470,-17,o),
(622,62,o),
(622,235,cs),
(622,358,o),
(527,405,o),
(426,440,cs),
(312,479,o),
(266,485,o),
(266,524,cs),
(266,560,o),
(308,575,o),
(346,575,cs),
(398,575,o),
(432,552,o),
(434,510,c),
(637,510,l),
(644,682,o),
(485,728,o),
(352,728,cs),
(192,728,o),
(66,651,o),
(66,493,cs),
(66,373,o),
(153,325,o),
(282,280,cs),
(357,254,o),
(408,239,o),
(409,204,cs),
(409,155,o),
(363,143,o),
(316,143,cs),
(250,143,o),
(204,172,o),
(203,228,c),
(-8,228,l),
(-11,33,o),
(162,-17,o),
(310,-17,cs)
);
}
);
width = 642;
}
);
note = S;
unicode = 83;
},
{
glyphname = T;
kernLeft = T;
kernRight = T;
layers = (
{
hints = (
{
horizontal = 1;
place = (0, 21);
target = up;
type = BottomGhost;
},
{
horizontal = 1;
place = (539, 176);
place = (539, 176);
type = Stem;
},
{
place = (69, 634);
place = (69, 634);
type = Stem;
}
);
layerId = m01;
shapes = (
{
closed = 1;
nodes = (
(69,539,l),
(265,539,l),
(161,0,l),
(366,0,l),
(470,539,l),
(669,539,l),
(703,715,l),
(103,715,l)
);
}
);
width = 630;
}
);
note = T;
unicode = 84;
},
{
glyphname = U;
kernLeft = U;
kernRight = U;
layers = (
{
hints = (
{
horizontal = 1;
place = (-13, 166);
place = (-13, 166);
type = Stem;
},
{
horizontal = 1;
place = (715, -20);
target = down;
type = TopGhost;
},
{
place = (36, 206);
place = (36, 206);
type = Stem;
}
);
layerId = m01;
shapes = (
{
closed = 1;
nodes = (
(526,-13,o),
(631,80,o),
(664,252,cs),
(753,715,l),
(548,715,l),
(459,257,ls),
(446,189,o),
(409,153,o),
(346,153,cs),
(265,153,o),
(231,198,o),
(245,271,cs),
(331,715,l),
(125,715,l),
(44,296,ls),
(1,74,o),
(146,-13,o),
(338,-13,cs)
);
}
);
width = 703;
}
);
note = U;
unicode = 85;
},
{
glyphname = V;
kernLeft = V;
kernRight = V;
layers = (
{
hints = (
{
horizontal = 1;
place = (0, 21);
target = up;
type = BottomGhost;
},
{
horizontal = 1;
place = (715, -20);
target = down;
type = TopGhost;
},
{
place = (84, 678);
place = (84, 678);
type = Stem;
}
);
layerId = m01;
shapes = (
{
closed = 1;
nodes = (
(177,0,l),
(408,0,l),
(762,715,l),
(550,715,l),
(397,379,ls),
(369,318,o),
(337,240,o),
(337,240,c),
(336,240,l),
(336,240,o),
(332,318,o),
(326,379,cs),
(293,715,l),
(84,715,l)
);
}
);
width = 673;
}
);
note = V;
unicode = 86;
},
{
glyphname = W;
kernLeft = W;
kernRight = W;
layers = (
{
hints = (
{
horizontal = 1;
place = (0, 21);
target = up;
type = BottomGhost;
},
{
horizontal = 1;
place = (715, -20);
target = down;
type = TopGhost;
},
{
place = (519, 143);
place = (519, 143);
type = Stem;
}
);
layerId = m01;
shapes = (
{
closed = 1;
nodes = (
(138,0,l),
(349,0,l),
(463,303,ls),
(486,365,o),
(511,446,o),
(511,446,c),
(513,446,l),
(513,446,o),
(512,365,o),
(514,303,cs),
(524,0,l),
(732,0,l),
(1038,715,l),
(826,715,l),
(736,472,ls),
(706,392,o),
(664,267,o),
(664,267,c),
(662,267,l),
(662,267,o),
(664,379,o),
(661,462,cs),
(651,715,l),
(465,715,l),
(367,460,ls),
(335,378,o),
(296,267,o),
(296,267,c),
(294,267,l),
(294,267,o),
(298,392,o),
(296,470,cs),
(289,715,l),
(85,715,l)
);
}
);
width = 950;
}
);
note = W;
unicode = 87;
},
{
glyphname = X;
kernLeft = X;
kernRight = X;
layers = (
{
hints = (
{
horizontal = 1;
place = (0, 21);
target = up;
type = BottomGhost;
},
{
horizontal = 1;
place = (520, -20);
target = down;
type = TopGhost;
},
{
horizontal = 1;
place = (715, -20);
target = down;
type = TopGhost;
},
{
place = (-58, 856);
place = (-58, 856);
type = Stem;
}
);
layerId = m01;
shapes = (
{
closed = 1;
nodes = (
(-58,0,l),
(186,0,l),
(355,224,l),
(357,224,l),
(444,0,l),
(682,0,l),
(513,368,l),
(798,715,l),
(561,715,l),
(413,520,l),
(411,520,l),
(330,715,l),
(100,715,l),
(259,382,l)
);
}
);
width = 723;
}
);
note = X;
unicode = 88;
},
{
glyphname = Y;
kernLeft = Yacute;
kernRight = Yacute;
layers = (
{
hints = (
{
horizontal = 1;
place = (0, 21);
target = up;
type = BottomGhost;
},
{
horizontal = 1;
place = (715, -20);
target = down;
type = TopGhost;
},
{
place = (81, 685);
place = (81, 685);
type = Stem;
}
);
layerId = m01;
shapes = (
{
closed = 1;
nodes = (
(184,0,l),
(390,0,l),
(437,245,l),
(766,715,l),
(544,715,l),
(441,556,ls),
(405,501,o),
(370,440,o),
(370,440,c),
(368,440,l),
(368,440,o),
(359,501,o),
(343,556,cs),
(301,715,l),
(81,715,l),
(232,253,l)
);
}
);
width = 673;
}
);
note = Y;
unicode = 89;
},
{
glyphname = Z;
kernLeft = Zcaron;
kernRight = Zcaron;
layers = (
{
hints = (
{
horizontal = 1;
place = (0, 174);
place = (0, 174);
type = Stem;
},
{
horizontal = 1;
place = (541, 174);
place = (541, 174);
type = Stem;
},
{
place = (-29, 730);
place = (-29, 730);
type = Stem;
}
);
layerId = m01;
shapes = (
{
closed = 1;
nodes = (
(-29,0,l),
(582,0,l),
(615,174,l),
(349,174,ls),
(306,174,o),
(263,172,o),
(263,172,c),
(263,175,l),
(263,175,o),
(310,212,o),
(350,250,cs),
(672,561,l),
(701,715,l),
(134,715,l),
(101,541,l),
(321,541,ls),
(359,541,o),
(394,544,o),
(394,544,c),
(394,541,l),
(394,541,o),
(356,510,o),
(327,482,cs),
(3,169,l)
);
}
);
width = 652;
}
);
note = Z;
unicode = 90;
},
{
glyphname = bracketleft;
kernRight = bracketleft;
layers = (
{
hints = (
{
horizontal = 1;
place = (-144, 142);
place = (-144, 142);
type = Stem;
},
{
horizontal = 1;
place = (610, 144);
place = (610, 144);
type = Stem;
},
{
place = (-28, 497);
place = (-28, 497);
type = Stem;
}
);
layerId = m01;
shapes = (
{
closed = 1;
nodes = (
(-28,-144,l),
(295,-144,l),
(322,-2,l),
(173,-2,l),
(292,610,l),
(441,610,l),
(469,754,l),
(146,754,l)
);
}
);
width = 407;
}
);
note = bracketleft;
unicode = 91;
},
{
glyphname = backslash;
kernLeft = backslash;
kernRight = backslash;
layers = (
{
hints = (
{
horizontal = 1;
place = (0, 21);
target = up;
type = BottomGhost;
},
{
horizontal = 1;
place = (715, -20);
target = down;
type = TopGhost;
},
{
place = (88, 282);
place = (88, 282);
type = Stem;
}
);
layerId = m01;
shapes = (
{
closed = 1;
nodes = (
(207,0,l),
(370,0,l),
(251,715,l),
(88,715,l)
);
}
);
width = 428;
}
);
note = backslash;
unicode = 92;
},
{
glyphname = bracketright;
kernLeft = bracketright;
layers = (
{
hints = (
{
horizontal = 1;
place = (-144, 142);
place = (-144, 142);
type = Stem;
},
{
horizontal = 1;
place = (610, 144);
place = (610, 144);
type = Stem;
},
{
place = (-44, 497);
place = (-44, 497);
type = Stem;
}
);
layerId = m01;
shapes = (
{
closed = 1;
nodes = (
(-44,-144,l),
(279,-144,l),
(453,754,l),
(130,754,l),
(102,610,l),
(251,610,l),
(132,-2,l),
(-17,-2,l)
);
}
);
width = 407;
}
);
note = bracketright;
unicode = 93;
},
{
glyphname = asciicircum;
layers = (
{
hints = (
{
horizontal = 1;
place = (422, 293);
place = (422, 293);
type = Stem;
},
{
place = (35, 470);
place = (35, 470);
type = Stem;
}
);
layerId = m01;
shapes = (
{
closed = 1;
nodes = (
(35,422,l),
(198,422,l),
(295,552,l),
(296,552,l),
(346,422,l),
(505,422,l),
(382,715,l),
(260,715,l)
);
}
);
width = 476;
}
);
note = asciicircum;
unicode = 94;
},
{
glyphname = underscore;
layers = (
{
hints = (
{
horizontal = 1;
place = (-169, 116);
place = (-169, 116);
type = Stem;
},
{
place = (-85, 457);
place = (-85, 457);
type = Stem;
}
);
layerId = m01;
shapes = (
{
closed = 1;
nodes = (
(-85,-169,l),
(350,-169,l),
(372,-53,l),
(-63,-53,l)
);
}
);
width = 430;
}
);
note = underscore;
unicode = 95;
},
{
glyphname = grave;
layers = (
{
hints = (
{
horizontal = 1;
place = (566, 155);
place = (566, 155);
type = Stem;
},
{
place = (148, 248);
place = (148, 248);
type = Stem;
}
);
layerId = m01;
shapes = (
{
closed = 1;
nodes = (
(256,566,l),
(396,566,l),
(351,721,l),
(148,721,l)
);
}
);
width = 492;
}
);
note = grave;
unicode = 96;
},
{
glyphname = a;
kernLeft = a;
kernRight = a;
layers = (
{
hints = (
{
horizontal = 1;
place = (0, 8);
place = (0, 8);
type = Stem;
},
{
horizontal = 1;
place = (403, 123);
place = (403, 123);
type = Stem;
},
{
place = (-9, 179);
place = (-9, 179);
type = Stem;
},
{
place = (288, 181);
place = (288, 181);
type = Stem;
},
{
place = (344, 181);
place = (344, 181);
type = Stem;
},
{
horizontal = 1;
place = (342, 184);
place = (342, 184);
type = Stem;
},
{
horizontal = 1;
place = (-13, 21);
target = up;
type = BottomGhost;
},
{
horizontal = 1;
place = (-13, 113);
place = (-13, 113);
type = Stem;
}
);
layerId = m01;
shapes = (
{
closed = 1;
nodes = (
(477,0,l),
(478,8,l),
(468,18,o),
(466,41,o),
(475,84,cs),
(519,309,ls),
(538,404,o),
(508,460,o),
(461,491,cs),
(418,519,o),
(362,526,o),
(307,526,cs),
(140,526,o),
(61,450,o),
(41,342,c),
(218,342,l),
(228,382,o),
(253,403,o),
(296,403,cs),
(331,403,o),
(344,384,o),
(344,363,cs),
(344,313,o),
(298,305,o),
(192,299,cs),
(68,292,o),
(-9,245,o),
(-9,131,cs),
(-9,44,o),
(49,-13,o),
(149,-13,cs),
(195,-13,o),
(248,9,o),
(286,56,c),
(288,56,l),
(288,34,o),
(291,12,o),
(296,0,c)
);
},
{
closed = 1;
nodes = (
(192,100,o),
(170,113,o),
(170,147,cs),
(170,194,o),
(213,203,o),
(247,208,cs),
(279,213,o),
(303,219,o),
(323,228,c),
(314,183,ls),
(301,119,o),
(265,100,o),
(226,100,cs)
);
}
);
width = 542;
}
);
note = a;
unicode = 97;
},
{
glyphname = b;
kernLeft = b;
kernRight = thorn;
layers = (
{
hints = (
{
horizontal = 1;
place = (-17, 142);
place = (-17, 142);
type = Stem;
},
{
horizontal = 1;
place = (391, 135);
place = (391, 135);
type = Stem;
},
{
horizontal = 1;
place = (715, -20);
target = down;
type = TopGhost;
},
{
place = (394, 187);
place = (394, 187);
type = Stem;
},
{
horizontal = 1;
place = (0, 125);
place = (0, 125);
type = Stem;
}
);
layerId = m01;
shapes = (
{
closed = 1;
nodes = (
(502,-17,o),
(581,159,o),
(581,302,cs),
(581,429,o),
(518,526,o),
(403,526,cs),
(343,526,o),
(301,502,o),
(261,461,c),
(258,461,l),
(307,715,l),
(121,715,l),
(-17,0,l),
(161,0,l),
(175,77,l),
(177,77,l),
(205,9,o),
(267,-17,o),
(332,-17,cs)
);
},
{
closed = 1;
nodes = (
(211,301,o),
(249,391,o),
(326,391,cs),
(381,391,o),
(394,338,o),
(394,292,cs),
(394,220,o),
(364,125,o),
(287,125,cs),
(228,125,o),
(211,178,o),
(211,230,cs)
);
}
);
width = 592;
}
);
note = b;
unicode = 98;
},
{
glyphname = c;
kernLeft = c;
kernRight = c;
layers = (
{
hints = (
{
horizontal = 1;
place = (-16, 132);
place = (-16, 132);
type = Stem;
},
{
horizontal = 1;
place = (394, 131);
place = (394, 131);
type = Stem;
},
{
place = (9, 187);
place = (9, 187);
type = Stem;
},
{
place = (370, 176);
place = (370, 176);
type = Stem;
}
);
layerId = m01;
shapes = (
{
closed = 1;
nodes = (
(401,-15,o),
(511,63,o),
(535,206,c),
(360,206,l),
(345,145,o),
(309,116,o),
(267,116,cs),
(213,116,o),
(196,159,o),
(196,208,cs),
(196,282,o),
(228,394,o),
(307,394,cs),
(354,394,o),
(367,362,o),
(370,321,c),
(546,321,l),
(543,462,o),
(444,525,o),
(311,525,cs),
(129,525,o),
(9,387,o),
(9,210,cs),
(9,46,o),
(132,-16,o),
(269,-16,cs)
);
}
);
width = 550;
}
);
note = c;
unicode = 99;
},
{
glyphname = d;
kernLeft = d;
layers = (
{
hints = (
{
horizontal = 1;
place = (-17, 141);
place = (-17, 141);
type = Stem;
},
{
horizontal = 1;
place = (392, 134);
place = (392, 134);
type = Stem;
},
{
horizontal = 1;
place = (715, -20);
target = down;
type = TopGhost;
},
{
place = (9, 194);
place = (9, 194);
type = Stem;
},
{
horizontal = 1;
place = (0, 124);
place = (0, 124);
type = Stem;
}
);
layerId = m01;
shapes = (
{
closed = 1;
nodes = (
(264,-17,o),
(320,19,o),
(350,61,c),
(352,61,l),
(341,0,l),
(518,0,l),
(656,715,l),
(470,715,l),
(418,448,l),
(415,448,l),
(384,497,o),
(340,526,o),
(271,526,cs),
(99,526,o),
(10,363,o),
(9,206,cs),
(8,70,o),
(86,-17,o),
(202,-17,cs)
);
},
{
closed = 1;
nodes = (
(203,295,o),
(236,391,o),
(313,392,cs),
(370,392,o),
(389,338,o),
(389,289,cs),
(389,217,o),
(351,124,o),
(277,124,cs),
(221,124,o),
(203,174,o),
(203,222,cs)
);
}
);
width = 601;
}
);
note = d;
unicode = 100;
},
{
glyphname = e;
kernLeft = c;
kernRight = e;
layers = (
{
hints = (
{
horizontal = 1;
place = (-14, 127);
place = (-14, 127);
type = Stem;
},
{
horizontal = 1;
place = (209, 100);
place = (209, 100);
type = Stem;
},
{
horizontal = 1;
place = (401, 126);
place = (401, 126);
type = Stem;
},
{
place = (9, 177);
place = (9, 177);
type = Stem;
},
{
place = (372, 171);
place = (372, 171);
type = Stem;
},
{
horizontal = 1;
place = (-14, 166);
place = (-14, 166);
type = Stem;
}
);
layerId = m01;
shapes = (
{
closed = 1;
nodes = (
(538,209,l),
(557,339,o),
(528,438,o),
(445,491,cs),
(408,514,o),
(363,527,o),
(300,527,cs),
(129,527,o),
(9,394,o),
(9,221,cs),
(9,68,o),
(123,-14,o),
(273,-14,cs),
(331,-14,o),
(382,-1,o),
(431,29,cs),
(475,56,o),
(509,97,o),
(526,152,c),
(346,152,l),
(333,124,o),
(304,113,o),
(273,113,cs),
(205,113,o),
(187,161,o),
(186,209,c)
);
},
{
closed = 1;
nodes = (
(353,401,o),
(374,359,o),
(372,309,c),
(199,309,l),
(218,377,o),
(261,401,o),
(299,401,cs)
);
}
);
width = 553;
}
);
note = e;
unicode = 101;
},
{
glyphname = f;
kernLeft = f;
kernRight = f;
layers = (
{
hints = (
{
horizontal = 1;
place = (0, 21);
target = up;
type = BottomGhost;
},
{
horizontal = 1;
place = (397, 113);
place = (397, 113);
type = Stem;
},
{
horizontal = 1;
place = (587, 128);
place = (587, 128);
type = Stem;
},
{
place = (19, 421);
place = (19, 421);
type = Stem;
},
{
horizontal = 1;
place = (708, 7);
place = (708, 7);
type = Stem;
}
);
layerId = m01;
shapes = (
{
closed = 1;
nodes = (
(33,397,l),
(96,397,l),
(19,0,l),
(205,0,l),
(281,397,l),
(379,397,l),
(402,510,l),
(304,510,l),
(307,528,ls),
(315,577,o),
(348,587,o),
(390,587,cs),
(398,587,o),
(405,587,o),
(416,586,c),
(440,708,l),
(412,712,o),
(383,715,o),
(348,715,cs),
(289,715,o),
(232,706,o),
(190,672,cs),
(157,646,o),
(136,602,o),
(125,546,cs),
(118,510,l),
(56,510,l)
);
}
);
width = 362;
}
);
note = f;
unicode = 102;
},
{
glyphname = g;
kernLeft = g;
kernRight = g;
layers = (
{
hints = (
{
horizontal = 1;
place = (-178, 169);
place = (-178, 169);
type = Stem;
},
{
horizontal = 1;
place = (25, 130);
place = (25, 130);
type = Stem;
},
{
horizontal = 1;
place = (392, 134);
place = (392, 134);
type = Stem;
},
{
place = (10, 183);
place = (10, 183);
type = Stem;
},
{
horizontal = 1;
place = (392, 118);
place = (392, 118);
type = Stem;
},
{
horizontal = 1;
place = (-178, 125);
place = (-178, 125);
type = Stem;
}
);
layerId = m01;
shapes = (
{
closed = 1;
nodes = (
(287,-178,o),
(348,-167,o),
(394,-136,cs),
(446,-101,o),
(480,-49,o),
(497,40,cs),
(589,510,l),
(412,510,l),
(400,447,l),
(397,447,l),
(364,504,o),
(313,526,o),
(252,526,cs),
(99,526,o),
(10,368,o),
(10,227,cs),
(10,107,o),
(93,25,o),
(196,25,cs),
(247,26,o),
(289,49,o),
(318,81,c),
(322,81,l),
(312,29,ls),
(302,-21,o),
(278,-53,o),
(225,-53,cs),
(186,-53,o),
(160,-38,o),
(154,-9,c),
(-24,-9,l),
(-11,-129,o),
(102,-178,o),
(219,-178,cs)
);
},
{
closed = 1;
nodes = (
(193,313,o),
(228,392,o),
(299,392,cs),
(351,392,o),
(370,346,o),
(370,301,cs),
(370,233,o),
(333,154,o),
(264,155,cs),
(212,155,o),
(193,199,o),
(193,245,cs)
);
}
);
width = 573;
}
);
note = g;
unicode = 103;
},
{
glyphname = h;
kernLeft = b;
kernRight = h;
layers = (
{
hints = (
{
horizontal = 1;
place = (0, 21);
target = up;
type = BottomGhost;
},
{
horizontal = 1;
place = (526, -20);
target = down;
type = TopGhost;
},
{
horizontal = 1;
place = (715, -20);
target = down;
type = TopGhost;
},
{
place = (370, 191);
place = (370, 191);
type = Stem;
},
{
horizontal = 1;
place = (377, 149);
place = (377, 149);
type = Stem;
}
);
layerId = m01;
shapes = (
{
closed = 1;
nodes = (
(306,715,l),
(121,715,l),
(-17,0,l),
(169,0,l),
(223,281,ls),
(234,335,o),
(270,377,o),
(316,377,cs),
(365,377,o),
(376,342,o),
(367,297,cs),
(309,0,l),
(495,0,l),
(554,306,ls),
(582,449,o),
(521,526,o),
(416,526,cs),
(343,526,o),
(292,488,o),
(256,442,c),
(253,442,l)
);
}
);
width = 575;
}
);
note = h;
unicode = 104;
},
{
glyphname = i;
kernLeft = b;
layers = (
{
hints = (
{
horizontal = 1;
place = (0, 21);
target = up;
type = BottomGhost;
},
{
horizontal = 1;
place = (510, -20);
target = down;
type = TopGhost;
},
{
horizontal = 1;
place = (572, 143);
place = (572, 143);
type = Stem;
},
{
place = (-17, 324);
place = (-17, 324);
type = Stem;
}
);
layerId = m01;
shapes = (
{
closed = 1;
nodes = (
(-17,0,l),
(169,0,l),
(268,510,l),
(82,510,l)
);
},
{
closed = 1;
nodes = (
(94,572,l),
(280,572,l),
(307,715,l),
(121,715,l)
);
}
);
width = 253;
}
);
note = i;
unicode = 105;
},
{
glyphname = j;
kernLeft = j;
kernRight = j;
layers = (
{
hints = (
{
horizontal = 1;
place = (-174, 139);
place = (-174, 139);
type = Stem;
},
{
horizontal = 1;
place = (510, -20);
target = down;
type = TopGhost;
},
{
horizontal = 1;
place = (572, 143);
place = (572, 143);
type = Stem;
},
{
place = (-133, 440);
place = (-133, 440);
type = Stem;
}
);
layerId = m01;
shapes = (
{
closed = 1;
nodes = (
(9,-174,o),
(62,-164,o),
(100,-134,cs),
(131,-109,o),
(156,-65,o),
(167,-7,cs),
(268,510,l),
(82,510,l),
(-16,11,ls),
(-26,-40,o),
(-53,-38,o),
(-108,-35,c),
(-133,-164,l),
(-110,-170,o),
(-81,-174,o),
(-43,-174,cs)
);
},
{
closed = 1;
nodes = (
(94,572,l),
(280,572,l),
(307,715,l),
(121,715,l)
);
}
);
width = 253;
}
);
note = j;
unicode = 106;
},
{
glyphname = k;
kernLeft = b;
kernRight = k;
layers = (
{
hints = (
{
horizontal = 1;
place = (0, 21);
target = up;
type = BottomGhost;
},
{
horizontal = 1;
place = (510, -20);
target = down;
type = TopGhost;
},
{
horizontal = 1;
place = (715, -20);
target = down;
type = TopGhost;
},
{
place = (-17, 609);
place = (-17, 609);
type = Stem;
}
);
layerId = m01;
shapes = (
{
closed = 1;
nodes = (
(304,715,l),
(121,715,l),
(-17,0,l),
(166,0,l),
(192,137,l),
(245,186,l),
(311,0,l),
(513,0,l),
(390,319,l),
(592,510,l),
(384,510,l),
(234,352,l)
);
}
);
width = 557;
}
);
note = k;
unicode = 107;
},
{
glyphname = l;
kernLeft = b;
layers = (
{
hints = (
{
horizontal = 1;
place = (0, 21);
target = up;
type = BottomGhost;
},
{
horizontal = 1;
place = (715, -20);
target = down;
type = TopGhost;
},
{
place = (-17, 329);
place = (-17, 329);
type = Stem;
}
);
layerId = m01;
shapes = (
{
closed = 1;
nodes = (
(-17,0,l),
(174,0,l),
(312,715,l),
(121,715,l)
);
}
);
width = 258;
}
);
note = l;
unicode = 108;
},
{
glyphname = m;
kernLeft = m;
kernRight = h;
layers = (
{
hints = (
{
horizontal = 1;
place = (0, 21);
target = up;
type = BottomGhost;
},
{
horizontal = 1;
place = (377, 133);
place = (377, 133);
type = Stem;
},
{
place = (672, 191);
place = (672, 191);
type = Stem;
},
{
horizontal = 1;
place = (377, 149);
place = (377, 149);
type = Stem;
}
);
layerId = m01;
shapes = (
{
closed = 1;
nodes = (
(-17,0,l),
(169,0,l),
(222,275,ls),
(234,335,o),
(264,377,o),
(310,377,cs),
(358,377,o),
(363,340,o),
(354,295,cs),
(297,0,l),
(483,0,l),
(536,275,ls),
(548,339,o),
(578,377,o),
(624,377,cs),
(671,377,o),
(677,342,o),
(668,295,cs),
(611,0,l),
(797,0,l),
(856,303,ls),
(881,431,o),
(838,526,o),
(715,526,cs),
(650,526,o),
(592,499,o),
(545,434,c),
(542,434,l),
(522,491,o),
(480,526,o),
(413,526,cs),
(337,526,o),
(291,488,o),
(248,431,c),
(245,431,l),
(260,510,l),
(82,510,l)
);
}
);
width = 877;
}
);
note = m;
unicode = 109;
},
{
glyphname = n;
kernLeft = m;
kernRight = h;
layers = (
{
hints = (
{
horizontal = 1;
place = (0, 21);
target = up;
type = BottomGhost;
},
{
horizontal = 1;
place = (377, 133);
place = (377, 133);
type = Stem;
},
{
place = (370, 191);
place = (370, 191);
type = Stem;
},
{
horizontal = 1;
place = (526, -20);
target = down;
type = TopGhost;
}
);
layerId = m01;
shapes = (
{
closed = 1;
nodes = (
(260,510,l),
(82,510,l),
(-17,0,l),
(169,0,l),
(223,281,ls),
(234,335,o),
(270,377,o),
(316,377,cs),
(365,377,o),
(376,342,o),
(367,297,cs),
(309,0,l),
(495,0,l),
(554,306,ls),
(582,449,o),
(521,526,o),
(416,526,cs),
(343,526,o),
(285,485,o),
(247,430,c),
(244,430,l)
);
}
);
width = 575;
}
);
note = n;
unicode = 110;
},
{
glyphname = o;
kernLeft = c;
kernRight = o;
layers = (
{
hints = (
{
horizontal = 1;
place = (-16, 126);
place = (-16, 126);
type = Stem;
},
{
horizontal = 1;
place = (398, 127);
place = (398, 127);
type = Stem;
},
{
place = (9, 187);
place = (9, 187);
type = Stem;
},
{
place = (373, 189);
place = (373, 189);
type = Stem;
}
);
layerId = m01;
shapes = (
{
closed = 1;
nodes = (
(445,-16,o),
(563,117,o),
(562,293,cs),
(561,454,o),
(436,525,o),
(306,525,cs),
(125,525,o),
(9,387,o),
(9,214,cs),
(9,54,o),
(136,-16,o),
(262,-16,cs)
);
},
{
closed = 1;
nodes = (
(195,272,o),
(221,398,o),
(302,398,cs),
(356,398,o),
(373,349,o),
(373,299,cs),
(374,229,o),
(347,110,o),
(265,110,cs),
(212,110,o),
(196,155,o),
(196,207,cs)
);
}
);
width = 572;
}
);
note = o;
unicode = 111;
},
{
glyphname = p;
kernLeft = p;
kernRight = thorn;
layers = (
{
hints = (
{
horizontal = 1;
place = (-169, 21);
target = up;
type = BottomGhost;
},
{
horizontal = 1;
place = (-17, 132);
place = (-17, 132);
type = Stem;
},
{
horizontal = 1;
place = (382, 128);
place = (382, 128);
type = Stem;
},
{
place = (392, 191);
place = (392, 191);
type = Stem;
},
{
horizontal = 1;
place = (382, 144);
place = (382, 144);
type = Stem;
}
);
layerId = m01;
shapes = (
{
closed = 1;
nodes = (
(-50,-169,l),
(136,-169,l),
(181,61,l),
(184,61,l),
(214,10,o),
(265,-17,o),
(334,-17,cs),
(504,-17,o),
(583,148,o),
(583,305,cs),
(583,430,o),
(517,526,o),
(404,526,cs),
(339,526,o),
(287,492,o),
(248,442,c),
(246,442,l),
(259,510,l),
(82,510,l)
);
},
{
closed = 1;
nodes = (
(207,290,o),
(250,382,o),
(322,382,cs),
(377,382,o),
(392,331,o),
(392,285,cs),
(392,217,o),
(362,115,o),
(285,115,cs),
(226,115,o),
(207,170,o),
(207,219,cs)
);
}
);
width = 594;
}
);
note = p;
unicode = 112;
},
{
glyphname = q;
kernLeft = d;
kernRight = q;
layers = (
{
hints = (
{
horizontal = 1;
place = (-169, 21);
target = up;
type = BottomGhost;
},
{
horizontal = 1;
place = (-17, 136);
place = (-17, 136);
type = Stem;
},
{
horizontal = 1;
place = (384, 142);
place = (384, 142);
type = Stem;
},
{
place = (8, 190);
place = (8, 190);
type = Stem;
},
{
horizontal = 1;
place = (384, 126);
place = (384, 126);
type = Stem;
}
);
layerId = m01;
shapes = (
{
closed = 1;
nodes = (
(295,-169,l),
(481,-169,l),
(613,510,l),
(436,510,l),
(421,434,l),
(418,434,l),
(392,493,o),
(338,526,o),
(276,526,cs),
(106,526,o),
(8,356,o),
(8,194,cs),
(8,67,o),
(81,-17,o),
(194,-17,cs),
(251,-17,o),
(301,11,o),
(334,52,c),
(337,52,l)
);
},
{
closed = 1;
nodes = (
(198,293,o),
(233,384,o),
(310,384,cs),
(366,384,o),
(385,332,o),
(385,282,cs),
(385,204,o),
(343,119,o),
(268,119,cs),
(215,119,o),
(198,166,o),
(198,214,cs)
);
}
);
width = 597;
}
);
note = q;
unicode = 113;
},
{
glyphname = r;
kernLeft = m;
kernRight = r;
layers = (
{
hints = (
{
horizontal = 1;
place = (0, 21);
target = up;
type = BottomGhost;
},
{
horizontal = 1;
place = (359, 151);
place = (359, 151);
type = Stem;
},
{
place = (-17, 458);
place = (-17, 458);
type = Stem;
},
{
horizontal = 1;
place = (516, -20);
target = down;
type = TopGhost;
},
{
horizontal = 1;
place = (359, 162);
place = (359, 162);
type = Stem;
}
);
layerId = m01;
shapes = (
{
closed = 1;
nodes = (
(260,510,l),
(82,510,l),
(-17,0,l),
(169,0,l),
(207,198,ls),
(232,327,o),
(293,373,o),
(406,355,c),
(410,355,l),
(441,516,l),
(435,519,o),
(421,521,o),
(406,521,cs),
(343,521,o),
(290,493,o),
(246,425,c),
(243,425,l)
);
}
);
width = 404;
}
);
note = r;
unicode = 114;
},
{
glyphname = s;
kernLeft = scaron;
kernRight = scaron;
layers = (
{
hints = (
{
horizontal = 1;
place = (-17, 115);
place = (-17, 115);
type = Stem;
},
{
horizontal = 1;
place = (368, 158);
place = (368, 158);
type = Stem;
},
{
place = (32, 175);
place = (32, 175);
type = Stem;
},
{
place = (299, 178);
place = (299, 178);
type = Stem;
},
{
horizontal = 1;
place = (414, 112);
place = (414, 112);
type = Stem;
},
{
horizontal = 1;
place = (-17, 182);
place = (-17, 182);
type = Stem;
}
);
layerId = m01;
shapes = (
{
closed = 1;
nodes = (
(382,-17,o),
(477,47,o),
(477,175,cs),
(477,277,o),
(388,308,o),
(302,328,cs),
(236,343,o),
(207,354,o),
(207,379,cs),
(207,403,o),
(236,414,o),
(265,414,cs),
(301,414,o),
(326,401,o),
(329,368,c),
(500,368,l),
(496,490,o),
(385,526,o),
(273,526,cs),
(137,526,o),
(32,464,o),
(32,347,cs),
(32,255,o),
(96,221,o),
(190,197,cs),
(251,181,o),
(299,176,o),
(299,140,cs),
(299,110,o),
(274,98,o),
(240,98,cs),
(184,98,o),
(165,125,o),
(164,165,c),
(-12,165,l),
(-13,19,o),
(118,-17,o),
(234,-17,cs)
);
}
);
width = 510;
}
);
note = s;
unicode = 115;
},
{
glyphname = t;
kernLeft = t;
kernRight = t;
layers = (
{
hints = (
{
horizontal = 1;
place = (-10, 21);
target = up;
type = BottomGhost;
},
{
horizontal = 1;
place = (397, 113);
place = (397, 113);
type = Stem;
},
{
place = (48, 192);
place = (48, 192);
type = Stem;
},
{
horizontal = 1;
place = (-10, 143);
place = (-10, 143);
type = Stem;
}
);
layerId = m01;
shapes = (
{
closed = 1;
nodes = (
(33,397,l),
(98,397,l),
(53,161,ls),
(31,48,o),
(79,-10,o),
(204,-10,cs),
(245,-10,o),
(275,-3,o),
(297,3,c),
(323,135,l),
(312,134,o),
(297,133,o),
(287,133,cs),
(245,133,o),
(233,146,o),
(240,186,cs),
(280,397,l),
(375,397,l),
(398,510,l),
(303,510,l),
(335,675,l),
(153,675,l),
(121,510,l),
(56,510,l)
);
}
);
width = 364;
}
);
note = t;
unicode = 116;
},
{
glyphname = u;
kernLeft = u;
kernRight = u;
layers = (
{
hints = (
{
horizontal = 1;
place = (0, 135);
place = (0, 135);
type = Stem;
},
{
horizontal = 1;
place = (510, -20);
target = down;
type = TopGhost;
},
{
place = (9, 194);
place = (9, 194);
type = Stem;
},
{
horizontal = 1;
place = (-16, 21);
target = up;
type = BottomGhost;
}
);
layerId = m01;
shapes = (
{
closed = 1;
nodes = (
(312,0,l),
(489,0,l),
(588,510,l),
(402,510,l),
(347,225,ls),
(336,166,o),
(300,135,o),
(254,135,cs),
(205,135,o),
(197,178,o),
(206,223,cs),
(262,510,l),
(76,510,l),
(15,195,ls),
(-12,58,o),
(54,-16,o),
(161,-16,cs),
(236,-16,o),
(288,24,o),
(324,81,c),
(327,81,l)
);
}
);
width = 572;
}
);
note = u;
unicode = 117;
},
{
glyphname = v;
kernLeft = v;
kernRight = v;
layers = (
{
hints = (
{
horizontal = 1;
place = (0, 21);
target = up;
type = BottomGhost;
},
{
horizontal = 1;
place = (510, -20);
target = down;
type = TopGhost;
},
{
place = (45, 562);
place = (45, 562);
type = Stem;
}
);
layerId = m01;
shapes = (
{
closed = 1;
nodes = (
(125,0,l),
(343,0,l),
(607,510,l),
(417,510,l),
(324,312,ls),
(299,260,o),
(268,189,o),
(268,189,c),
(267,189,l),
(267,189,o),
(261,260,o),
(256,312,cs),
(235,510,l),
(45,510,l)
);
}
);
width = 554;
}
);
note = v;
unicode = 118;
},
{
glyphname = w;
kernLeft = w;
kernRight = w;
layers = (
{
hints = (
{
horizontal = 1;
place = (0, 21);
target = up;
type = BottomGhost;
},
{
horizontal = 1;
place = (510, -20);
target = down;
type = TopGhost;
},
{
place = (414, 120);
place = (414, 120);
type = Stem;
},
{
place = (425, 116);
place = (425, 116);
type = Stem;
}
);
layerId = m01;
shapes = (
{
closed = 1;
nodes = (
(106,0,l),
(283,0,l),
(375,214,ls),
(392,254,o),
(412,314,o),
(412,314,c),
(414,314,l),
(414,314,o),
(415,256,o),
(418,214,cs),
(433,0,l),
(611,0,l),
(862,510,l),
(671,510,l),
(589,325,ls),
(571,284,o),
(544,214,o),
(544,214,c),
(542,214,l),
(542,214,o),
(540,284,o),
(538,329,cs),
(530,510,l),
(373,510,l),
(294,329,ls),
(276,287,o),
(251,216,o),
(251,216,c),
(249,216,l),
(249,216,o),
(247,284,o),
(245,325,cs),
(234,510,l),
(45,510,l)
);
}
);
width = 809;
}
);
note = w;
unicode = 119;
},
{
glyphname = x;
kernLeft = x;
kernRight = x;
layers = (
{
hints = (
{
horizontal = 1;
place = (0, 21);
target = up;
type = BottomGhost;
},
{
horizontal = 1;
place = (510, -20);
target = down;
type = TopGhost;
},
{
place = (-53, 665);
place = (-53, 665);
type = Stem;
}
);
layerId = m01;
shapes = (
{
closed = 1;
nodes = (
(-53,0,l),
(162,0,l),
(266,149,l),
(268,149,l),
(315,0,l),
(523,0,l),
(408,260,l),
(612,510,l),
(402,510,l),
(315,379,l),
(313,379,l),
(276,510,l),
(68,510,l),
(175,271,l)
);
}
);
width = 576;
}
);
note = x;
unicode = 120;
},
{
glyphname = y;
kernLeft = yacute;
kernRight = yacute;
layers = (
{
hints = (
{
horizontal = 1;
place = (-169, 146);
place = (-169, 146);
type = Stem;
},
{
horizontal = 1;
place = (510, -20);
target = down;
type = TopGhost;
},
{
place = (-17, 625);
place = (-17, 625);
type = Stem;
}
);
layerId = m01;
shapes = (
{
closed = 1;
nodes = (
(-17,-169,l),
(115,-169,ls),
(216,-169,o),
(284,-122,o),
(333,-27,cs),
(608,510,l),
(421,510,l),
(325,305,ls),
(300,252,o),
(272,180,o),
(272,180,c),
(270,180,l),
(270,180,o),
(268,258,o),
(262,311,cs),
(241,510,l),
(47,510,l),
(129,88,ls),
(134,64,o),
(138,42,o),
(138,26,cs),
(138,-12,o),
(110,-23,o),
(77,-23,cs),
(11,-23,l)
);
}
);
width = 553;
}
);
note = y;
unicode = 121;
},
{
glyphname = z;
kernLeft = zcaron;
kernRight = zcaron;
layers = (
{
hints = (
{
horizontal = 1;
place = (0, 138);
place = (0, 138);
type = Stem;
},
{
horizontal = 1;
place = (373, 137);
place = (373, 137);
type = Stem;
},
{
place = (-31, 549);
place = (-31, 549);
type = Stem;
}
);
layerId = m01;
shapes = (
{
closed = 1;
nodes = (
(-31,0,l),
(437,0,l),
(463,138,l),
(300,138,ls),
(254,138,o),
(218,136,o),
(218,136,c),
(218,139,l),
(218,139,o),
(259,168,o),
(295,201,cs),
(494,382,l),
(518,510,l),
(84,510,l),
(58,373,l),
(193,373,ls),
(225,373,o),
(264,375,o),
(264,375,c),
(264,372,l),
(264,372,o),
(234,349,o),
(206,324,cs),
(-6,134,l)
);
}
);
width = 505;
}
);
note = z;
unicode = 122;
},
{
glyphname = braceleft;
kernRight = bracketleft;
layers = (
{
hints = (
{
horizontal = 1;
place = (-144, 143);
place = (-144, 143);
type = Stem;
},
{
horizontal = 1;
place = (255, 139);
place = (255, 139);
type = Stem;
},
{
horizontal = 1;
place = (609, 145);
place = (609, 145);
type = Stem;
},
{
place = (64, 208);
place = (64, 208);
type = Stem;
}
);
layerId = m01;
shapes = (
{
closed = 1;
nodes = (
(295,-144,l),
(322,-1,l),
(308,-1,ls),
(256,-1,o),
(231,8,o),
(241,56,cs),
(268,190,ls),
(282,259,o),
(262,283,o),
(221,305,c),
(221,308,l),
(270,324,o),
(297,345,o),
(311,414,cs),
(337,547,ls),
(346,595,o),
(370,609,o),
(419,609,cs),
(441,609,l),
(469,754,l),
(399,754,ls),
(266,754,o),
(194,709,o),
(168,573,cs),
(146,460,ls),
(137,412,o),
(115,394,o),
(50,394,c),
(23,255,l),
(84,250,o),
(100,225,o),
(91,178,cs),
(70,68,ls),
(40,-89,o),
(117,-144,o),
(287,-144,cs)
);
}
);
width = 407;
}
);
note = braceleft;
unicode = 123;
},
{
glyphname = bar;
layers = (
{
hints = (
{
horizontal = 1;
place = (-144, 898);
place = (-144, 898);
type = Stem;
},
{
place = (79, 113);
place = (79, 113);
type = Stem;
}
);
layerId = m01;
shapes = (
{
closed = 1;
nodes = (
(79,-144,l),
(192,-144,l),
(192,754,l),
(79,754,l)
);
}
);
width = 230;
}
);
note = bar;
unicode = 124;
},
{
glyphname = braceright;
kernLeft = bracketright;
layers = (
{
hints = (
{
horizontal = 1;
place = (-144, 143);
place = (-144, 143);
type = Stem;
},
{
horizontal = 1;
place = (216, 139);
place = (216, 139);
type = Stem;
},
{
horizontal = 1;
place = (609, 145);
place = (609, 145);
type = Stem;
},
{
place = (153, 208);
place = (153, 208);
type = Stem;
}
);
layerId = m01;
shapes = (
{
closed = 1;
nodes = (
(130,754,l),
(102,609,l),
(116,609,ls),
(168,609,o),
(192,599,o),
(183,552,cs),
(157,420,ls),
(143,351,o),
(163,327,o),
(204,305,c),
(204,302,l),
(155,286,o),
(128,265,o),
(114,196,cs),
(88,63,ls),
(79,15,o),
(54,-1,o),
(5,-1,cs),
(-17,-1,l),
(-44,-144,l),
(26,-144,ls),
(159,-144,o),
(230,-102,o),
(257,35,cs),
(279,150,ls),
(288,198,o),
(310,216,o),
(375,216,c),
(402,355,l),
(341,360,o),
(325,385,o),
(334,432,cs),
(355,542,ls),
(385,699,o),
(308,754,o),
(138,754,cs)
);
}
);
width = 407;
}
);
note = braceright;
unicode = 125;
},
{
glyphname = asciitilde;
layers = (
{
hints = (
{
horizontal = 1;
place = (279, 143);
place = (279, 143);
type = Stem;
},
{
place = (15, 447);
place = (15, 447);
type = Stem;
},
{
horizontal = 1;
place = (234, 141);
place = (234, 141);
type = Stem;
}
);
layerId = m01;
shapes = (
{
closed = 1;
nodes = (
(127,227,l),
(134,258,o),
(149,279,o),
(170,279,cs),
(217,279,o),
(242,234,o),
(316,234,cs),
(398,234,o),
(449,306,o),
(462,422,c),
(349,422,l),
(343,394,o),
(333,375,o),
(307,375,cs),
(264,375,o),
(243,422,o),
(170,422,cs),
(98,422,o),
(28,360,o),
(15,227,c)
);
}
);
width = 452;
}
);
note = asciitilde;
unicode = 126;
},
{
glyphname = Adieresis;
kernLeft = A;
kernRight = A;
layers = (
{
hints = (
{
horizontal = 1;
place = (0, 21);
target = up;
type = BottomGhost;
},
{
horizontal = 1;
place = (106, 142);
place = (106, 142);
type = Stem;
},
{
horizontal = 1;
place = (715, -20);
target = down;
type = TopGhost;
},
{
horizontal = 1;
place = (752, 143);
place = (752, 143);
type = Stem;
},
{
place = (-55, 730);
place = (-55, 730);
type = Stem;
}
);
layerId = m01;
shapes = (
{
closed = 1;
nodes = (
(460,0,l),
(675,0,l),
(543,715,l),
(334,715,l),
(-55,0,l),
(153,0,l),
(206,106,l),
(445,106,l)
);
},
{
closed = 1;
nodes = (
(466,752,l),
(641,752,l),
(668,895,l),
(493,895,l)
);
},
{
closed = 1;
nodes = (
(241,752,l),
(416,752,l),
(443,895,l),
(268,895,l)
);
},
{
closed = 1;
nodes = (
(350,391,ls),
(367,426,o),
(393,483,o),
(393,483,c),
(395,483,l),
(395,483,o),
(400,426,o),
(405,391,cs),
(425,248,l),
(278,248,l)
);
}
);
width = 718;
}
);
note = Adieresis;
unicode = 196;
},
{
glyphname = Aring;
kernLeft = A;
kernRight = A;
layers = (
{
hints = (
{
horizontal = 1;
place = (0, 21);
target = up;
type = BottomGhost;
},
{
horizontal = 1;
place = (106, 142);
place = (106, 142);
type = Stem;
},
{
horizontal = 1;
place = (715, -20);
target = down;
type = TopGhost;
},
{
horizontal = 1;
place = (876, 64);
place = (876, 64);
type = Stem;
},
{
place = (340, 69);
place = (340, 69);
type = Stem;
},
{
place = (485, 69);
place = (485, 69);
type = Stem;
},
{
horizontal = 1;
place = (735, 64);
place = (735, 64);
type = Stem;
}
);
layerId = m01;
shapes = (
{
closed = 1;
nodes = (
(460,0,l),
(675,0,l),
(543,715,l),
(334,715,l),
(-55,0,l),
(153,0,l),
(206,106,l),
(445,106,l)
);
},
{
closed = 1;
nodes = (
(505,735,o),
(554,779,o),
(554,837,cs),
(554,895,o),
(505,940,o),
(447,940,cs),
(389,940,o),
(340,895,o),
(340,837,cs),
(340,779,o),
(389,735,o),
(447,735,cs)
);
},
{
closed = 1;
nodes = (
(350,391,ls),
(367,426,o),
(393,483,o),
(393,483,c),
(395,483,l),
(395,483,o),
(400,426,o),
(405,391,cs),
(425,248,l),
(278,248,l)
);
},
{
closed = 1;
nodes = (
(424,799,o),
(409,817,o),
(409,837,cs),
(409,857,o),
(424,876,o),
(447,876,cs),
(470,876,o),
(485,857,o),
(485,837,cs),
(485,817,o),
(470,799,o),
(447,799,cs)
);
}
);
width = 718;
}
);
note = Aring;
unicode = 197;
},
{
glyphname = Ccedilla;
kernLeft = C;
kernRight = C;
layers = (
{
hints = (
{
horizontal = 1;
place = (-193, 51);
place = (-193, 51);
type = Stem;
},
{
horizontal = 1;
place = (-90, 45);
place = (-90, 45);
type = Stem;
},
{
horizontal = 1;
place = (-12, 21);
target = up;
type = BottomGhost;
},
{
horizontal = 1;
place = (557, 171);
place = (557, 171);
type = Stem;
},
{
place = (29, 210);
place = (29, 210);
type = Stem;
},
{
place = (311, 104);
place = (311, 104);
type = Stem;
},
{
place = (521, 207);
place = (521, 207);
type = Stem;
},
{
horizontal = 1;
place = (-17, 170);
place = (-17, 170);
type = Stem;
}
);
layerId = m01;
shapes = (
{
closed = 1;
nodes = (
(353,-193,o),
(415,-166,o),
(415,-108,cs),
(415,-63,o),
(379,-42,o),
(319,-45,c),
(319,-43,l),
(351,-17,l),
(360,-17,ls),
(521,-17,o),
(669,71,o),
(705,266,c),
(495,266,l),
(478,191,o),
(427,153,o),
(361,153,cs),
(271,153,o),
(239,225,o),
(239,306,cs),
(239,425,o),
(291,557,o),
(415,557,cs),
(488,557,o),
(520,512,o),
(521,450,c),
(728,450,l),
(724,546,o),
(692,623,o),
(625,673,cs),
(576,710,o),
(510,728,o),
(418,728,cs),
(182,728,o),
(29,531,o),
(29,301,cs),
(29,116,o),
(133,10,o),
(293,-12,c),
(232,-71,l),
(248,-97,l),
(257,-93,o),
(270,-90,o),
(280,-90,cs),
(300,-90,o),
(311,-95,o),
(311,-112,cs),
(311,-135,o),
(285,-142,o),
(259,-142,cs),
(235,-142,o),
(210,-136,o),
(192,-127,c),
(170,-164,l),
(197,-182,o),
(235,-193,o),
(283,-193,cs)
);
}
);
width = 706;
}
);
note = Ccedilla;
unicode = 199;
},
{
glyphname = Eacute;
kernRight = E;
layers = (
{
hints = (
{
horizontal = 1;
place = (0, 177);
place = (0, 177);
type = Stem;
},
{
horizontal = 1;
place = (292, 155);
place = (292, 155);
type = Stem;
},
{
horizontal = 1;
place = (547, 168);
place = (547, 168);
type = Stem;
},
{
horizontal = 1;
place = (746, 135);
place = (746, 135);
type = Stem;
},
{
place = (-8, 678);
place = (-8, 678);
type = Stem;
}
);
layerId = m01;
shapes = (
{
closed = 1;
nodes = (
(-8,0,l),
(546,0,l),
(580,177,l),
(232,177,l),
(254,292,l),
(535,292,l),
(565,447,l),
(285,447,l),
(303,547,l),
(637,547,l),
(670,715,l),
(130,715,l)
);
},
{
closed = 1;
nodes = (
(608,881,l),
(400,881,l),
(336,746,l),
(476,746,l)
);
}
);
width = 623;
}
);
note = Eacute;
unicode = 201;
},
{
glyphname = Ntilde;
layers = (
{
hints = (
{
horizontal = 1;
place = (0, 21);
target = up;
type = BottomGhost;
},
{
horizontal = 1;
place = (715, -20);
target = down;
type = TopGhost;
},
{
horizontal = 1;
place = (749, 109);
place = (749, 109);
type = Stem;
},
{
place = (-8, 767);
place = (-8, 767);
type = Stem;
},
{
horizontal = 1;
place = (744, 152);
place = (744, 152);
type = Stem;
}
);
layerId = m01;
shapes = (
{
closed = 1;
nodes = (
(-8,0,l),
(191,0,l),
(271,413,l),
(273,413,l),
(407,0,l),
(621,0,l),
(759,715,l),
(560,715,l),
(480,305,l),
(478,305,l),
(337,715,l),
(130,715,l)
);
},
{
closed = 1;
nodes = (
(366,744,l),
(373,771,o),
(388,786,o),
(407,786,cs),
(440,786,o),
(467,749,o),
(531,749,cs),
(603,749,o),
(648,808,o),
(662,896,c),
(568,896,l),
(562,873,o),
(552,858,o),
(529,858,cs),
(497,858,o),
(469,896,o),
(411,896,cs),
(348,896,o),
(289,847,o),
(272,744,c)
);
}
);
width = 713;
}
);
note = Ntilde;
unicode = 209;
},
{
glyphname = Odieresis;
kernLeft = C;
kernRight = O;
layers = (
{
hints = (
{
horizontal = 1;
place = (-17, 166);
place = (-17, 166);
type = Stem;
},
{
horizontal = 1;
place = (562, 166);
place = (562, 166);
type = Stem;
},
{
place = (29, 207);
place = (29, 207);
type = Stem;
},
{
place = (542, 207);
place = (542, 207);
type = Stem;
},
{
horizontal = 1;
place = (752, 143);
place = (752, 143);
type = Stem;
}
);
layerId = m01;
shapes = (
{
closed = 1;
nodes = (
(594,-16,o),
(749,175,o),
(749,404,cs),
(749,614,o),
(620,728,o),
(423,728,cs),
(187,728,o),
(31,532,o),
(29,299,cs),
(27,86,o),
(176,-17,o),
(362,-17,cs)
);
},
{
closed = 1;
nodes = (
(236,415,o),
(291,561,o),
(416,562,cs),
(509,562,o),
(542,493,o),
(542,405,cs),
(542,287,o),
(488,149,o),
(365,149,cs),
(273,149,o),
(236,218,o),
(236,299,cs)
);
},
{
closed = 1;
nodes = (
(469,752,l),
(644,752,l),
(671,895,l),
(496,895,l)
);
},
{
closed = 1;
nodes = (
(244,752,l),
(419,752,l),
(446,895,l),
(271,895,l)
);
}
);
width = 740;
}
);
note = Odieresis;
unicode = 214;
},
{
glyphname = Udieresis;
kernLeft = U;
kernRight = U;
layers = (
{
hints = (
{
horizontal = 1;
place = (-13, 166);
place = (-13, 166);
type = Stem;
},
{
horizontal = 1;
place = (715, -20);
target = down;
type = TopGhost;
},
{
horizontal = 1;
place = (752, 143);
place = (752, 143);
type = Stem;
},
{
place = (36, 206);
place = (36, 206);
type = Stem;
}
);
layerId = m01;
shapes = (
{
closed = 1;
nodes = (
(526,-13,o),
(631,80,o),
(664,252,cs),
(753,715,l),
(548,715,l),
(459,257,ls),
(446,189,o),
(409,153,o),
(346,153,cs),
(265,153,o),
(231,198,o),
(245,271,cs),
(331,715,l),
(125,715,l),
(44,296,ls),
(1,74,o),
(146,-13,o),
(338,-13,cs)
);
},
{
closed = 1;
nodes = (
(462,752,l),
(637,752,l),
(664,895,l),
(489,895,l)
);
},
{
closed = 1;
nodes = (
(237,752,l),
(412,752,l),
(439,895,l),
(264,895,l)
);
}
);
width = 703;
}
);
note = Udieresis;
unicode = 220;
},
{
glyphname = aacute;
kernLeft = a;
kernRight = a;
layers = (
{
hints = (
{
horizontal = 1;
place = (0, 8);
place = (0, 8);
type = Stem;
},
{
horizontal = 1;
place = (403, 123);
place = (403, 123);
type = Stem;
},
{
horizontal = 1;
place = (566, 155);
place = (566, 155);
type = Stem;
},
{
place = (-9, 179);
place = (-9, 179);
type = Stem;
},
{
place = (288, 181);
place = (288, 181);
type = Stem;
},
{
place = (344, 181);
place = (344, 181);
type = Stem;
},
{
horizontal = 1;
place = (342, 184);
place = (342, 184);
type = Stem;
},
{
horizontal = 1;
place = (-13, 21);
target = up;
type = BottomGhost;
},
{
horizontal = 1;
place = (-13, 113);
place = (-13, 113);
type = Stem;
}
);
layerId = m01;
shapes = (
{
closed = 1;
nodes = (
(477,0,l),
(478,8,l),
(468,18,o),
(466,41,o),
(475,84,cs),
(519,309,ls),
(538,404,o),
(508,460,o),
(461,491,cs),
(418,519,o),
(362,526,o),
(307,526,cs),
(140,526,o),
(61,450,o),
(41,342,c),
(218,342,l),
(228,382,o),
(253,403,o),
(296,403,cs),
(331,403,o),
(344,384,o),
(344,363,cs),
(344,313,o),
(298,305,o),
(192,299,cs),
(68,292,o),
(-9,245,o),
(-9,131,cs),
(-9,44,o),
(49,-13,o),
(149,-13,cs),
(195,-13,o),
(248,9,o),
(286,56,c),
(288,56,l),
(288,34,o),
(291,12,o),
(296,0,c)
);
},
{
closed = 1;
nodes = (
(192,100,o),
(170,113,o),
(170,147,cs),
(170,194,o),
(213,203,o),
(247,208,cs),
(279,213,o),
(303,219,o),
(323,228,c),
(314,183,ls),
(301,119,o),
(265,100,o),
(226,100,cs)
);
},
{
closed = 1;
nodes = (
(260,566,l),
(400,566,l),
(550,721,l),
(338,721,l)
);
}
);
width = 542;
}
);
note = aacute;
unicode = 225;
},
{
glyphname = agrave;
kernLeft = a;
kernRight = a;
layers = (
{
hints = (
{
horizontal = 1;
place = (0, 8);
place = (0, 8);
type = Stem;
},
{
horizontal = 1;
place = (403, 123);
place = (403, 123);
type = Stem;
},
{
horizontal = 1;
place = (566, 155);
place = (566, 155);
type = Stem;
},
{
place = (-9, 179);
place = (-9, 179);
type = Stem;
},
{
place = (288, 181);
place = (288, 181);
type = Stem;
},
{
place = (344, 181);
place = (344, 181);
type = Stem;
},
{
horizontal = 1;
place = (342, 184);
place = (342, 184);
type = Stem;
},
{
horizontal = 1;
place = (-13, 21);
target = up;
type = BottomGhost;
},
{
horizontal = 1;
place = (-13, 113);
place = (-13, 113);
type = Stem;
}
);
layerId = m01;
shapes = (
{
closed = 1;
nodes = (
(477,0,l),
(478,8,l),
(468,18,o),
(466,41,o),
(475,84,cs),
(519,309,ls),
(538,404,o),
(508,460,o),
(461,491,cs),
(418,519,o),
(362,526,o),
(307,526,cs),
(140,526,o),
(61,450,o),
(41,342,c),
(218,342,l),
(228,382,o),
(253,403,o),
(296,403,cs),
(331,403,o),
(344,384,o),
(344,363,cs),
(344,313,o),
(298,305,o),
(192,299,cs),
(68,292,o),
(-9,245,o),
(-9,131,cs),
(-9,44,o),
(49,-13,o),
(149,-13,cs),
(195,-13,o),
(248,9,o),
(286,56,c),
(288,56,l),
(288,34,o),
(291,12,o),
(296,0,c)
);
},
{
closed = 1;
nodes = (
(192,100,o),
(170,113,o),
(170,147,cs),
(170,194,o),
(213,203,o),
(247,208,cs),
(279,213,o),
(303,219,o),
(323,228,c),
(314,183,ls),
(301,119,o),
(265,100,o),
(226,100,cs)
);
},
{
closed = 1;
nodes = (
(270,566,l),
(410,566,l),
(365,721,l),
(162,721,l)
);
}
);
width = 542;
}
);
note = agrave;
unicode = 224;
},
{
glyphname = acircumflex;
kernLeft = a;
kernRight = a;
layers = (
{
hints = (
{
horizontal = 1;
place = (0, 8);
place = (0, 8);
type = Stem;
},
{
horizontal = 1;
place = (403, 123);
place = (403, 123);
type = Stem;
},
{
horizontal = 1;
place = (566, 149);
place = (566, 149);
type = Stem;
},
{
place = (-9, 179);
place = (-9, 179);
type = Stem;
},
{
place = (288, 181);
place = (288, 181);
type = Stem;
},
{
place = (344, 181);
place = (344, 181);
type = Stem;
},
{
horizontal = 1;
place = (342, 184);
place = (342, 184);
type = Stem;
},
{
horizontal = 1;
place = (-13, 21);
target = up;
type = BottomGhost;
},
{
horizontal = 1;
place = (-13, 113);
place = (-13, 113);
type = Stem;
},
{
horizontal = 1;
place = (629, 86);
place = (629, 86);
type = Stem;
}
);
layerId = m01;
shapes = (
{
closed = 1;
nodes = (
(477,0,l),
(478,8,l),
(468,18,o),
(466,41,o),
(475,84,cs),
(519,309,ls),
(538,404,o),
(508,460,o),
(461,491,cs),
(418,519,o),
(362,526,o),
(307,526,cs),
(140,526,o),
(61,450,o),
(41,342,c),
(218,342,l),
(228,382,o),
(253,403,o),
(296,403,cs),
(331,403,o),
(344,384,o),
(344,363,cs),
(344,313,o),
(298,305,o),
(192,299,cs),
(68,292,o),
(-9,245,o),
(-9,131,cs),
(-9,44,o),
(49,-13,o),
(149,-13,cs),
(195,-13,o),
(248,9,o),
(286,56,c),
(288,56,l),
(288,34,o),
(291,12,o),
(296,0,c)
);
},
{
closed = 1;
nodes = (
(192,100,o),
(170,113,o),
(170,147,cs),
(170,194,o),
(213,203,o),
(247,208,cs),
(279,213,o),
(303,219,o),
(323,228,c),
(314,183,ls),
(301,119,o),
(265,100,o),
(226,100,cs)
);
},
{
closed = 1;
nodes = (
(128,566,l),
(290,566,l),
(341,629,l),
(343,629,l),
(374,566,l),
(525,566,l),
(435,715,l),
(270,715,l)
);
}
);
width = 542;
}
);
note = acircumflex;
unicode = 226;
},
{
glyphname = adieresis;
kernLeft = a;
kernRight = a;
layers = (
{
hints = (
{
horizontal = 1;
place = (0, 8);
place = (0, 8);
type = Stem;
},
{
horizontal = 1;
place = (403, 123);
place = (403, 123);
type = Stem;
},
{
horizontal = 1;
place = (572, 143);
place = (572, 143);
type = Stem;
},
{
place = (-9, 179);
place = (-9, 179);
type = Stem;
},
{
place = (288, 181);
place = (288, 181);
type = Stem;
},
{
place = (344, 181);
place = (344, 181);
type = Stem;
},
{
horizontal = 1;
place = (342, 184);
place = (342, 184);
type = Stem;
},
{
horizontal = 1;
place = (-13, 21);
target = up;
type = BottomGhost;
},
{
horizontal = 1;
place = (-13, 113);
place = (-13, 113);
type = Stem;
}
);
layerId = m01;
shapes = (
{
closed = 1;
nodes = (
(477,0,l),
(478,8,l),
(468,18,o),
(466,41,o),
(475,84,cs),
(519,309,ls),
(538,404,o),
(508,460,o),
(461,491,cs),
(418,519,o),
(362,526,o),
(307,526,cs),
(140,526,o),
(61,450,o),
(41,342,c),
(218,342,l),
(228,382,o),
(253,403,o),
(296,403,cs),
(331,403,o),
(344,384,o),
(344,363,cs),
(344,313,o),
(298,305,o),
(192,299,cs),
(68,292,o),
(-9,245,o),
(-9,131,cs),
(-9,44,o),
(49,-13,o),
(149,-13,cs),
(195,-13,o),
(248,9,o),
(286,56,c),
(288,56,l),
(288,34,o),
(291,12,o),
(296,0,c)
);
},
{
closed = 1;
nodes = (
(192,100,o),
(170,113,o),
(170,147,cs),
(170,194,o),
(213,203,o),
(247,208,cs),
(279,213,o),
(303,219,o),
(323,228,c),
(314,183,ls),
(301,119,o),
(265,100,o),
(226,100,cs)
);
},
{
closed = 1;
nodes = (
(357,572,l),
(532,572,l),
(559,715,l),
(384,715,l)
);
},
{
closed = 1;
nodes = (
(132,572,l),
(307,572,l),
(334,715,l),
(159,715,l)
);
}
);
width = 542;
}
);
note = adieresis;
unicode = 228;
},
{
glyphname = atilde;
kernLeft = a;
kernRight = a;
layers = (
{
hints = (
{
horizontal = 1;
place = (0, 8);
place = (0, 8);
type = Stem;
},
{
horizontal = 1;
place = (403, 123);
place = (403, 123);
type = Stem;
},
{
horizontal = 1;
place = (564, 152);
place = (564, 152);
type = Stem;
},
{
place = (-9, 179);
place = (-9, 179);
type = Stem;
},
{
place = (288, 181);
place = (288, 181);
type = Stem;
},
{
place = (344, 181);
place = (344, 181);
type = Stem;
},
{
horizontal = 1;
place = (342, 184);
place = (342, 184);
type = Stem;
},
{
horizontal = 1;
place = (-13, 21);
target = up;
type = BottomGhost;
},
{
horizontal = 1;
place = (-13, 113);
place = (-13, 113);
type = Stem;
},
{
horizontal = 1;
place = (606, 110);
place = (606, 110);
type = Stem;
},
{
horizontal = 1;
place = (569, 109);
place = (569, 109);
type = Stem;
}
);
layerId = m01;
shapes = (
{
closed = 1;
nodes = (
(477,0,l),
(478,8,l),
(468,18,o),
(466,41,o),
(475,84,cs),
(519,309,ls),
(538,404,o),
(508,460,o),
(461,491,cs),
(418,519,o),
(362,526,o),
(307,526,cs),
(140,526,o),
(61,450,o),
(41,342,c),
(218,342,l),
(228,382,o),
(253,403,o),
(296,403,cs),
(331,403,o),
(344,384,o),
(344,363,cs),
(344,313,o),
(298,305,o),
(192,299,cs),
(68,292,o),
(-9,245,o),
(-9,131,cs),
(-9,44,o),
(49,-13,o),
(149,-13,cs),
(195,-13,o),
(248,9,o),
(286,56,c),
(288,56,l),
(288,34,o),
(291,12,o),
(296,0,c)
);
},
{
closed = 1;
nodes = (
(192,100,o),
(170,113,o),
(170,147,cs),
(170,194,o),
(213,203,o),
(247,208,cs),
(279,213,o),
(303,219,o),
(323,228,c),
(314,183,ls),
(301,119,o),
(265,100,o),
(226,100,cs)
);
},
{
closed = 1;
nodes = (
(243,564,l),
(250,591,o),
(265,606,o),
(284,606,cs),
(317,606,o),
(338,569,o),
(402,569,cs),
(474,569,o),
(519,628,o),
(533,716,c),
(439,716,l),
(433,693,o),
(423,678,o),
(400,678,cs),
(368,678,o),
(346,716,o),
(288,716,cs),
(225,716,o),
(166,667,o),
(149,564,c)
);
}
);
width = 542;
}
);
note = atilde;
unicode = 227;
},
{
glyphname = aring;
kernLeft = a;
kernRight = a;
layers = (
{
hints = (
{
horizontal = 1;
place = (0, 8);
place = (0, 8);
type = Stem;
},
{
horizontal = 1;
place = (403, 123);
place = (403, 123);
type = Stem;
},
{
horizontal = 1;
place = (696, 64);
place = (696, 64);
type = Stem;
},
{
place = (-9, 179);
place = (-9, 179);
type = Stem;
},
{
place = (288, 181);
place = (288, 181);
type = Stem;
},
{
place = (220, 69);
place = (220, 69);
type = Stem;
},
{
place = (344, 181);
place = (344, 181);
type = Stem;
},
{
horizontal = 1;
place = (342, 184);
place = (342, 184);
type = Stem;
},
{
place = (365, 69);
place = (365, 69);
type = Stem;
},
{
horizontal = 1;
place = (-13, 21);
target = up;
type = BottomGhost;
},
{
horizontal = 1;
place = (-13, 113);
place = (-13, 113);
type = Stem;
},
{
horizontal = 1;
place = (555, 64);
place = (555, 64);
type = Stem;
}
);
layerId = m01;
shapes = (
{
closed = 1;
nodes = (
(477,0,l),
(478,8,l),
(468,18,o),
(466,41,o),
(475,84,cs),
(519,309,ls),
(538,404,o),
(508,460,o),
(461,491,cs),
(418,519,o),
(362,526,o),
(307,526,cs),
(140,526,o),
(61,450,o),
(41,342,c),
(218,342,l),
(228,382,o),
(253,403,o),
(296,403,cs),
(331,403,o),
(344,384,o),
(344,363,cs),
(344,313,o),
(298,305,o),
(192,299,cs),
(68,292,o),
(-9,245,o),
(-9,131,cs),
(-9,44,o),
(49,-13,o),
(149,-13,cs),
(195,-13,o),
(248,9,o),
(286,56,c),
(288,56,l),
(288,34,o),
(291,12,o),
(296,0,c)
);
},
{
closed = 1;
nodes = (
(192,100,o),
(170,113,o),
(170,147,cs),
(170,194,o),
(213,203,o),
(247,208,cs),
(279,213,o),
(303,219,o),
(323,228,c),
(314,183,ls),
(301,119,o),
(265,100,o),
(226,100,cs)
);
},
{
closed = 1;
nodes = (
(385,555,o),
(434,599,o),
(434,657,cs),
(434,715,o),
(385,760,o),
(327,760,cs),
(269,760,o),
(220,715,o),
(220,657,cs),
(220,599,o),
(269,555,o),
(327,555,cs)
);
},
{
closed = 1;
nodes = (
(304,619,o),
(289,637,o),
(289,657,cs),
(289,677,o),
(304,696,o),
(327,696,cs),
(350,696,o),
(365,677,o),
(365,657,cs),
(365,637,o),
(350,619,o),
(327,619,cs)
);
}
);
width = 542;
}
);
note = aring;
unicode = 229;
},
{
glyphname = ccedilla;
kernLeft = c;
kernRight = c;
layers = (
{
hints = (
{
horizontal = 1;
place = (-193, 51);
place = (-193, 51);
type = Stem;
},
{
horizontal = 1;
place = (-90, 45);
place = (-90, 45);
type = Stem;
},
{
horizontal = 1;
place = (-11, 21);
target = up;
type = BottomGhost;
},
{
horizontal = 1;
place = (394, 131);
place = (394, 131);
type = Stem;
},
{
place = (9, 187);
place = (9, 187);
type = Stem;
},
{
place = (370, 176);
place = (370, 176);
type = Stem;
},
{
place = (220, 104);
place = (220, 104);
type = Stem;
},
{
horizontal = 1;
place = (-16, 132);
place = (-16, 132);
type = Stem;
}
);
layerId = m01;
shapes = (
{
closed = 1;
nodes = (
(262,-193,o),
(324,-166,o),
(324,-108,cs),
(324,-63,o),
(288,-42,o),
(228,-45,c),
(228,-43,l),
(261,-16,l),
(269,-16,ls),
(401,-15,o),
(511,63,o),
(535,206,c),
(360,206,l),
(345,145,o),
(309,116,o),
(267,116,cs),
(213,116,o),
(196,159,o),
(196,208,cs),
(196,282,o),
(228,394,o),
(307,394,cs),
(354,394,o),
(367,362,o),
(370,321,c),
(546,321,l),
(543,462,o),
(444,525,o),
(311,525,cs),
(129,525,o),
(9,387,o),
(9,210,cs),
(9,72,o),
(95,6,o),
(204,-11,c),
(141,-71,l),
(157,-97,l),
(166,-93,o),
(179,-90,o),
(189,-90,cs),
(209,-90,o),
(220,-95,o),
(220,-112,cs),
(220,-135,o),
(194,-142,o),
(168,-142,cs),
(144,-142,o),
(119,-136,o),
(101,-127,c),
(79,-164,l),
(106,-182,o),
(144,-193,o),
(192,-193,cs)
);
}
);
width = 550;
}
);
note = ccedilla;
unicode = 231;
},
{
glyphname = eacute;
kernLeft = c;
kernRight = e;
layers = (
{
hints = (
{
horizontal = 1;
place = (-14, 127);
place = (-14, 127);
type = Stem;
},
{
horizontal = 1;
place = (209, 100);
place = (209, 100);
type = Stem;
},
{
horizontal = 1;
place = (401, 126);
place = (401, 126);
type = Stem;
},
{
horizontal = 1;
place = (566, 155);
place = (566, 155);
type = Stem;
},
{
place = (9, 177);
place = (9, 177);
type = Stem;
},
{
place = (372, 171);
place = (372, 171);
type = Stem;
},
{
horizontal = 1;
place = (-14, 166);
place = (-14, 166);
type = Stem;
}
);
layerId = m01;
shapes = (
{
closed = 1;
nodes = (
(538,209,l),
(557,339,o),
(528,438,o),
(445,491,cs),
(408,514,o),
(363,527,o),
(300,527,cs),
(129,527,o),
(9,394,o),
(9,221,cs),
(9,68,o),
(123,-14,o),
(273,-14,cs),
(331,-14,o),
(382,-1,o),
(431,29,cs),
(475,56,o),
(509,97,o),
(526,152,c),
(346,152,l),
(333,124,o),
(304,113,o),
(273,113,cs),
(205,113,o),
(187,161,o),
(186,209,c)
);
},
{
closed = 1;
nodes = (
(241,566,l),
(381,566,l),
(531,721,l),
(319,721,l)
);
},
{
closed = 1;
nodes = (
(353,401,o),
(374,359,o),
(372,309,c),
(199,309,l),
(218,377,o),
(261,401,o),
(299,401,cs)
);
}
);
width = 553;
}
);
note = eacute;
unicode = 233;
},
{
glyphname = egrave;
kernLeft = c;
kernRight = e;
layers = (
{
hints = (
{
horizontal = 1;
place = (-14, 127);
place = (-14, 127);
type = Stem;
},
{
horizontal = 1;
place = (209, 100);
place = (209, 100);
type = Stem;
},
{
horizontal = 1;
place = (401, 126);
place = (401, 126);
type = Stem;
},
{
horizontal = 1;
place = (566, 155);
place = (566, 155);
type = Stem;
},
{
place = (9, 177);
place = (9, 177);
type = Stem;
},
{
place = (372, 171);
place = (372, 171);
type = Stem;
},
{
horizontal = 1;
place = (-14, 166);
place = (-14, 166);
type = Stem;
}
);
layerId = m01;
shapes = (
{
closed = 1;
nodes = (
(538,209,l),
(557,339,o),
(528,438,o),
(445,491,cs),
(408,514,o),
(363,527,o),
(300,527,cs),
(129,527,o),
(9,394,o),
(9,221,cs),
(9,68,o),
(123,-14,o),
(273,-14,cs),
(331,-14,o),
(382,-1,o),
(431,29,cs),
(475,56,o),
(509,97,o),
(526,152,c),
(346,152,l),
(333,124,o),
(304,113,o),
(273,113,cs),
(205,113,o),
(187,161,o),
(186,209,c)
);
},
{
closed = 1;
nodes = (
(249,566,l),
(389,566,l),
(344,721,l),
(141,721,l)
);
},
{
closed = 1;
nodes = (
(353,401,o),
(374,359,o),
(372,309,c),
(199,309,l),
(218,377,o),
(261,401,o),
(299,401,cs)
);
}
);
width = 553;
}
);
note = egrave;
unicode = 232;
},
{
glyphname = ecircumflex;
kernLeft = c;
kernRight = e;
layers = (
{
hints = (
{
horizontal = 1;
place = (-14, 127);
place = (-14, 127);
type = Stem;
},
{
horizontal = 1;
place = (209, 100);
place = (209, 100);
type = Stem;
},
{
horizontal = 1;
place = (401, 126);
place = (401, 126);
type = Stem;
},
{
horizontal = 1;
place = (566, 149);
place = (566, 149);
type = Stem;
},
{
place = (9, 177);
place = (9, 177);
type = Stem;
},
{
place = (372, 171);
place = (372, 171);
type = Stem;
},
{
horizontal = 1;
place = (-14, 166);
place = (-14, 166);
type = Stem;
},
{
horizontal = 1;
place = (629, 86);
place = (629, 86);
type = Stem;
}
);
layerId = m01;
shapes = (
{
closed = 1;
nodes = (
(538,209,l),
(557,339,o),
(528,438,o),
(445,491,cs),
(408,514,o),
(363,527,o),
(300,527,cs),
(129,527,o),
(9,394,o),
(9,221,cs),
(9,68,o),
(123,-14,o),
(273,-14,cs),
(331,-14,o),
(382,-1,o),
(431,29,cs),
(475,56,o),
(509,97,o),
(526,152,c),
(346,152,l),
(333,124,o),
(304,113,o),
(273,113,cs),
(205,113,o),
(187,161,o),
(186,209,c)
);
},
{
closed = 1;
nodes = (
(111,566,l),
(273,566,l),
(324,629,l),
(326,629,l),
(357,566,l),
(508,566,l),
(418,715,l),
(253,715,l)
);
},
{
closed = 1;
nodes = (
(353,401,o),
(374,359,o),
(372,309,c),
(199,309,l),
(218,377,o),
(261,401,o),
(299,401,cs)
);
}
);
width = 553;
}
);
note = ecircumflex;
unicode = 234;
},
{
glyphname = edieresis;
kernLeft = c;
kernRight = e;
layers = (
{
hints = (
{
horizontal = 1;
place = (-14, 127);
place = (-14, 127);
type = Stem;
},
{
horizontal = 1;
place = (209, 100);
place = (209, 100);
type = Stem;
},
{
horizontal = 1;
place = (401, 126);
place = (401, 126);
type = Stem;
},
{
horizontal = 1;
place = (572, 143);
place = (572, 143);
type = Stem;
},
{
place = (9, 177);
place = (9, 177);
type = Stem;
},
{
place = (372, 171);
place = (372, 171);
type = Stem;
},
{
horizontal = 1;
place = (-14, 166);
place = (-14, 166);
type = Stem;
}
);
layerId = m01;
shapes = (
{
closed = 1;
nodes = (
(538,209,l),
(557,339,o),
(528,438,o),
(445,491,cs),
(408,514,o),
(363,527,o),
(300,527,cs),
(129,527,o),
(9,394,o),
(9,221,cs),
(9,68,o),
(123,-14,o),
(273,-14,cs),
(331,-14,o),
(382,-1,o),
(431,29,cs),
(475,56,o),
(509,97,o),
(526,152,c),
(346,152,l),
(333,124,o),
(304,113,o),
(273,113,cs),
(205,113,o),
(187,161,o),
(186,209,c)
);
},
{
closed = 1;
nodes = (
(115,572,l),
(290,572,l),
(317,715,l),
(142,715,l)
);
},
{
closed = 1;
nodes = (
(340,572,l),
(515,572,l),
(542,715,l),
(367,715,l)
);
},
{
closed = 1;
nodes = (
(353,401,o),
(374,359,o),
(372,309,c),
(199,309,l),
(218,377,o),
(261,401,o),
(299,401,cs)
);
}
);
width = 553;
}
);
note = edieresis;
unicode = 235;
},
{
glyphname = iacute;
kernLeft = b;
layers = (
{
hints = (
{
horizontal = 1;
place = (0, 21);
target = up;
type = BottomGhost;
},
{
horizontal = 1;
place = (510, -20);
target = down;
type = TopGhost;
},
{
horizontal = 1;
place = (566, 155);
place = (566, 155);
type = Stem;
},
{
place = (-17, 411);
place = (-17, 411);
type = Stem;
}
);
layerId = m01;
shapes = (
{
closed = 1;
nodes = (
(-17,0,l),
(169,0,l),
(268,510,l),
(82,510,l)
);
},
{
closed = 1;
nodes = (
(104,566,l),
(244,566,l),
(394,721,l),
(182,721,l)
);
}
);
width = 253;
}
);
note = iacute;
unicode = 237;
},
{
glyphname = igrave;
kernLeft = b;
layers = (
{
hints = (
{
horizontal = 1;
place = (0, 21);
target = up;
type = BottomGhost;
},
{
horizontal = 1;
place = (510, -20);
target = down;
type = TopGhost;
},
{
horizontal = 1;
place = (566, 155);
place = (566, 155);
type = Stem;
},
{
place = (-17, 285);
place = (-17, 285);
type = Stem;
}
);
layerId = m01;
shapes = (
{
closed = 1;
nodes = (
(-17,0,l),
(169,0,l),
(268,510,l),
(82,510,l)
);
},
{
closed = 1;
nodes = (
(126,566,l),
(266,566,l),
(221,721,l),
(18,721,l)
);
}
);
width = 253;
}
);
note = igrave;
unicode = 236;
},
{
glyphname = icircumflex;
kernLeft = b;
layers = (
{
hints = (
{
horizontal = 1;
place = (0, 21);
target = up;
type = BottomGhost;
},
{
horizontal = 1;
place = (510, -20);
target = down;
type = TopGhost;
},
{
horizontal = 1;
place = (566, 149);
place = (566, 149);
type = Stem;
},
{
place = (-19, 397);
place = (-19, 397);
type = Stem;
},
{
horizontal = 1;
place = (629, 86);
place = (629, 86);
type = Stem;
}
);
layerId = m01;
shapes = (
{
closed = 1;
nodes = (
(-17,0,l),
(169,0,l),
(268,510,l),
(82,510,l)
);
},
{
closed = 1;
nodes = (
(-19,566,l),
(143,566,l),
(194,629,l),
(196,629,l),
(227,566,l),
(378,566,l),
(288,715,l),
(123,715,l)
);
}
);
width = 253;
}
);
note = icircumflex;
unicode = 238;
},
{
glyphname = idieresis;
kernLeft = b;
layers = (
{
hints = (
{
horizontal = 1;
place = (0, 21);
target = up;
type = BottomGhost;
},
{
horizontal = 1;
place = (510, -20);
target = down;
type = TopGhost;
},
{
horizontal = 1;
place = (572, 143);
place = (572, 143);
type = Stem;
},
{
place = (-17, 391);
place = (-17, 391);
type = Stem;
}
);
layerId = m01;
shapes = (
{
closed = 1;
nodes = (
(-17,0,l),
(169,0,l),
(268,510,l),
(82,510,l)
);
},
{
closed = 1;
nodes = (
(208,572,l),
(347,572,l),
(374,715,l),
(235,715,l)
);
},
{
closed = 1;
nodes = (
(27,572,l),
(166,572,l),
(193,715,l),
(54,715,l)
);
}
);
width = 253;
}
);
note = idieresis;
unicode = 239;
},
{
glyphname = ntilde;
kernLeft = m;
kernRight = h;
layers = (
{
hints = (
{
horizontal = 1;
place = (0, 21);
target = up;
type = BottomGhost;
},
{
horizontal = 1;
place = (377, 133);
place = (377, 133);
type = Stem;
},
{
horizontal = 1;
place = (564, 152);
place = (564, 152);
type = Stem;
},
{
place = (370, 191);
place = (370, 191);
type = Stem;
},
{
horizontal = 1;
place = (526, -20);
target = down;
type = TopGhost;
},
{
horizontal = 1;
place = (606, 110);
place = (606, 110);
type = Stem;
},
{
horizontal = 1;
place = (569, 109);
place = (569, 109);
type = Stem;
}
);
layerId = m01;
shapes = (
{
closed = 1;
nodes = (
(260,510,l),
(82,510,l),
(-17,0,l),
(169,0,l),
(223,281,ls),
(234,335,o),
(270,377,o),
(316,377,cs),
(365,377,o),
(376,342,o),
(367,297,cs),
(309,0,l),
(495,0,l),
(554,306,ls),
(582,449,o),
(521,526,o),
(416,526,cs),
(343,526,o),
(285,485,o),
(247,430,c),
(244,430,l)
);
},
{
closed = 1;
nodes = (
(258,564,l),
(265,591,o),
(280,606,o),
(299,606,cs),
(332,606,o),
(353,569,o),
(417,569,cs),
(489,569,o),
(534,628,o),
(548,716,c),
(454,716,l),
(448,693,o),
(438,678,o),
(415,678,cs),
(383,678,o),
(361,716,o),
(303,716,cs),
(240,716,o),
(181,667,o),
(164,564,c)
);
}
);
width = 575;
}
);
note = ntilde;
unicode = 241;
},
{
glyphname = oacute;
kernLeft = c;
kernRight = o;
layers = (
{
hints = (
{
horizontal = 1;
place = (-16, 126);
place = (-16, 126);
type = Stem;
},
{
horizontal = 1;
place = (398, 127);
place = (398, 127);
type = Stem;
},
{
horizontal = 1;
place = (566, 155);
place = (566, 155);
type = Stem;
},
{
place = (10, 187);
place = (10, 187);
type = Stem;
},
{
place = (374, 189);
place = (374, 189);
type = Stem;
}
);
layerId = m01;
shapes = (
{
closed = 1;
nodes = (
(446,-16,o),
(564,117,o),
(563,293,cs),
(562,454,o),
(437,525,o),
(307,525,cs),
(126,525,o),
(10,387,o),
(10,214,cs),
(10,54,o),
(137,-16,o),
(263,-16,cs)
);
},
{
closed = 1;
nodes = (
(196,272,o),
(222,398,o),
(303,398,cs),
(357,398,o),
(374,349,o),
(374,299,cs),
(375,229,o),
(348,110,o),
(266,110,cs),
(213,110,o),
(197,155,o),
(197,207,cs)
);
},
{
closed = 1;
nodes = (
(251,566,l),
(391,566,l),
(541,721,l),
(329,721,l)
);
}
);
width = 572;
}
);
note = oacute;
unicode = 243;
},
{
glyphname = ograve;
kernLeft = c;
kernRight = o;
layers = (
{
hints = (
{
horizontal = 1;
place = (-16, 126);
place = (-16, 126);
type = Stem;
},
{
horizontal = 1;
place = (398, 127);
place = (398, 127);
type = Stem;
},
{
horizontal = 1;
place = (566, 155);
place = (566, 155);
type = Stem;
},
{
place = (10, 187);
place = (10, 187);
type = Stem;
},
{
place = (374, 189);
place = (374, 189);
type = Stem;
}
);
layerId = m01;
shapes = (
{
closed = 1;
nodes = (
(446,-16,o),
(564,117,o),
(563,293,cs),
(562,454,o),
(437,525,o),
(307,525,cs),
(126,525,o),
(10,387,o),
(10,214,cs),
(10,54,o),
(137,-16,o),
(263,-16,cs)
);
},
{
closed = 1;
nodes = (
(196,272,o),
(222,398,o),
(303,398,cs),
(357,398,o),
(374,349,o),
(374,299,cs),
(375,229,o),
(348,110,o),
(266,110,cs),
(213,110,o),
(197,155,o),
(197,207,cs)
);
},
{
closed = 1;
nodes = (
(262,566,l),
(402,566,l),
(357,721,l),
(154,721,l)
);
}
);
width = 572;
}
);
note = ograve;
unicode = 242;
},
{
glyphname = ocircumflex;
kernLeft = c;
kernRight = o;
layers = (
{
hints = (
{
horizontal = 1;
place = (-16, 126);
place = (-16, 126);
type = Stem;
},
{
horizontal = 1;
place = (398, 127);
place = (398, 127);
type = Stem;
},
{
horizontal = 1;
place = (566, 149);
place = (566, 149);
type = Stem;
},
{
place = (10, 187);
place = (10, 187);
type = Stem;
},
{
place = (374, 189);
place = (374, 189);
type = Stem;
},
{
horizontal = 1;
place = (629, 86);
place = (629, 86);
type = Stem;
}
);
layerId = m01;
shapes = (
{
closed = 1;
nodes = (
(446,-16,o),
(564,117,o),
(563,293,cs),
(562,454,o),
(437,525,o),
(307,525,cs),
(126,525,o),
(10,387,o),
(10,214,cs),
(10,54,o),
(137,-16,o),
(263,-16,cs)
);
},
{
closed = 1;
nodes = (
(196,272,o),
(222,398,o),
(303,398,cs),
(357,398,o),
(374,349,o),
(374,299,cs),
(375,229,o),
(348,110,o),
(266,110,cs),
(213,110,o),
(197,155,o),
(197,207,cs)
);
},
{
closed = 1;
nodes = (
(125,566,l),
(287,566,l),
(338,629,l),
(340,629,l),
(371,566,l),
(522,566,l),
(432,715,l),
(267,715,l)
);
}
);
width = 572;
}
);
note = ocircumflex;
unicode = 244;
},
{
glyphname = odieresis;
kernLeft = c;
kernRight = o;
layers = (
{
hints = (
{
horizontal = 1;
place = (-16, 126);
place = (-16, 126);
type = Stem;
},
{
horizontal = 1;
place = (398, 127);
place = (398, 127);
type = Stem;
},
{
horizontal = 1;
place = (572, 143);
place = (572, 143);
type = Stem;
},
{
place = (10, 187);
place = (10, 187);
type = Stem;
},
{
place = (374, 189);
place = (374, 189);
type = Stem;
}
);
layerId = m01;
shapes = (
{
closed = 1;
nodes = (
(446,-16,o),
(564,117,o),
(563,293,cs),
(562,454,o),
(437,525,o),
(307,525,cs),
(126,525,o),
(10,387,o),
(10,214,cs),
(10,54,o),
(137,-16,o),
(263,-16,cs)
);
},
{
closed = 1;
nodes = (
(196,272,o),
(222,398,o),
(303,398,cs),
(357,398,o),
(374,349,o),
(374,299,cs),
(375,229,o),
(348,110,o),
(266,110,cs),
(213,110,o),
(197,155,o),
(197,207,cs)
);
},
{
closed = 1;
nodes = (
(353,572,l),
(528,572,l),
(555,715,l),
(380,715,l)
);
},
{
closed = 1;
nodes = (
(128,572,l),
(303,572,l),
(330,715,l),
(155,715,l)
);
}
);
width = 572;
}
);
note = odieresis;
unicode = 246;
},
{
glyphname = otilde;
kernLeft = c;
kernRight = o;
layers = (
{
hints = (
{
horizontal = 1;
place = (-16, 126);
place = (-16, 126);
type = Stem;
},
{
horizontal = 1;
place = (398, 127);
place = (398, 127);
type = Stem;
},
{
horizontal = 1;
place = (564, 152);
place = (564, 152);
type = Stem;
},
{
place = (10, 187);
place = (10, 187);
type = Stem;
},
{
place = (374, 189);
place = (374, 189);
type = Stem;
},
{
horizontal = 1;
place = (606, 110);
place = (606, 110);
type = Stem;
},
{
horizontal = 1;
place = (569, 109);
place = (569, 109);
type = Stem;
}
);
layerId = m01;
shapes = (
{
closed = 1;
nodes = (
(446,-16,o),
(564,117,o),
(563,293,cs),
(562,454,o),
(437,525,o),
(307,525,cs),
(126,525,o),
(10,387,o),
(10,214,cs),
(10,54,o),
(137,-16,o),
(263,-16,cs)
);
},
{
closed = 1;
nodes = (
(196,272,o),
(222,398,o),
(303,398,cs),
(357,398,o),
(374,349,o),
(374,299,cs),
(375,229,o),
(348,110,o),
(266,110,cs),
(213,110,o),
(197,155,o),
(197,207,cs)
);
},
{
closed = 1;
nodes = (
(239,564,l),
(246,591,o),
(261,606,o),
(280,606,cs),
(313,606,o),
(334,569,o),
(398,569,cs),
(470,569,o),
(515,628,o),
(529,716,c),
(435,716,l),
(429,693,o),
(419,678,o),
(396,678,cs),
(364,678,o),
(342,716,o),
(284,716,cs),
(221,716,o),
(162,667,o),
(145,564,c)
);
}
);
width = 572;
}
);
note = otilde;
unicode = 245;
},
{
glyphname = uacute;
kernLeft = u;
kernRight = u;
layers = (
{
hints = (
{
horizontal = 1;
place = (0, 135);
place = (0, 135);
type = Stem;
},
{
horizontal = 1;
place = (510, -20);
target = down;
type = TopGhost;
},
{
horizontal = 1;
place = (566, 155);
place = (566, 155);
type = Stem;
},
{
place = (9, 194);
place = (9, 194);
type = Stem;
},
{
horizontal = 1;
place = (-16, 21);
target = up;
type = BottomGhost;
}
);
layerId = m01;
shapes = (
{
closed = 1;
nodes = (
(312,0,l),
(489,0,l),
(588,510,l),
(402,510,l),
(347,225,ls),
(336,166,o),
(300,135,o),
(254,135,cs),
(205,135,o),
(197,178,o),
(206,223,cs),
(262,510,l),
(76,510,l),
(15,195,ls),
(-12,58,o),
(54,-16,o),
(161,-16,cs),
(236,-16,o),
(288,24,o),
(324,81,c),
(327,81,l)
);
},
{
closed = 1;
nodes = (
(268,566,l),
(408,566,l),
(558,721,l),
(346,721,l)
);
}
);
width = 572;
}
);
note = uacute;
unicode = 250;
},
{
glyphname = ugrave;
kernLeft = u;
kernRight = u;
layers = (
{
hints = (
{
horizontal = 1;
place = (0, 135);
place = (0, 135);
type = Stem;
},
{
horizontal = 1;
place = (510, -20);
target = down;
type = TopGhost;
},
{
horizontal = 1;
place = (566, 155);
place = (566, 155);
type = Stem;
},
{
place = (9, 194);
place = (9, 194);
type = Stem;
},
{
horizontal = 1;
place = (-16, 21);
target = up;
type = BottomGhost;
}
);
layerId = m01;
shapes = (
{
closed = 1;
nodes = (
(312,0,l),
(489,0,l),
(588,510,l),
(402,510,l),
(347,225,ls),
(336,166,o),
(300,135,o),
(254,135,cs),
(205,135,o),
(197,178,o),
(206,223,cs),
(262,510,l),
(76,510,l),
(15,195,ls),
(-12,58,o),
(54,-16,o),
(161,-16,cs),
(236,-16,o),
(288,24,o),
(324,81,c),
(327,81,l)
);
},
{
closed = 1;
nodes = (
(274,566,l),
(414,566,l),
(369,721,l),
(166,721,l)
);
}
);
width = 572;
}
);
note = ugrave;
unicode = 249;
},
{
glyphname = ucircumflex;
kernLeft = u;
kernRight = u;
layers = (
{
hints = (
{
horizontal = 1;
place = (0, 135);
place = (0, 135);
type = Stem;
},
{
horizontal = 1;
place = (510, -20);
target = down;
type = TopGhost;
},
{
horizontal = 1;
place = (566, 149);
place = (566, 149);
type = Stem;
},
{
place = (9, 194);
place = (9, 194);
type = Stem;
},
{
horizontal = 1;
place = (-16, 21);
target = up;
type = BottomGhost;
},
{
horizontal = 1;
place = (629, 86);
place = (629, 86);
type = Stem;
}
);
layerId = m01;
shapes = (
{
closed = 1;
nodes = (
(312,0,l),
(489,0,l),
(588,510,l),
(402,510,l),
(347,225,ls),
(336,166,o),
(300,135,o),
(254,135,cs),
(205,135,o),
(197,178,o),
(206,223,cs),
(262,510,l),
(76,510,l),
(15,195,ls),
(-12,58,o),
(54,-16,o),
(161,-16,cs),
(236,-16,o),
(288,24,o),
(324,81,c),
(327,81,l)
);
},
{
closed = 1;
nodes = (
(142,566,l),
(304,566,l),
(355,629,l),
(357,629,l),
(388,566,l),
(539,566,l),
(449,715,l),
(284,715,l)
);
}
);
width = 572;
}
);
note = ucircumflex;
unicode = 251;
},
{
glyphname = udieresis;
kernLeft = u;
kernRight = u;
layers = (
{
hints = (
{
horizontal = 1;
place = (0, 135);
place = (0, 135);
type = Stem;
},
{
horizontal = 1;
place = (510, -20);
target = down;
type = TopGhost;
},
{
horizontal = 1;
place = (572, 143);
place = (572, 143);
type = Stem;
},
{
place = (9, 194);
place = (9, 194);
type = Stem;
},
{
horizontal = 1;
place = (-16, 21);
target = up;
type = BottomGhost;
}
);
layerId = m01;
shapes = (
{
closed = 1;
nodes = (
(312,0,l),
(489,0,l),
(588,510,l),
(402,510,l),
(347,225,ls),
(336,166,o),
(300,135,o),
(254,135,cs),
(205,135,o),
(197,178,o),
(206,223,cs),
(262,510,l),
(76,510,l),
(15,195,ls),
(-12,58,o),
(54,-16,o),
(161,-16,cs),
(236,-16,o),
(288,24,o),
(324,81,c),
(327,81,l)
);
},
{
closed = 1;
nodes = (
(368,572,l),
(543,572,l),
(570,715,l),
(395,715,l)
);
},
{
closed = 1;
nodes = (
(143,572,l),
(318,572,l),
(345,715,l),
(170,715,l)
);
}
);
width = 572;
}
);
note = udieresis;
unicode = 252;
},
{
glyphname = dagger;
layers = (
{
hints = (
{
horizontal = 1;
place = (-169, 21);
target = up;
type = BottomGhost;
},
{
horizontal = 1;
place = (350, 160);
place = (350, 160);
type = Stem;
},
{
horizontal = 1;
place = (715, -20);
target = down;
type = TopGhost;
},
{
place = (50, 569);
place = (50, 569);
type = Stem;
}
);
layerId = m01;
shapes = (
{
closed = 1;
nodes = (
(50,350,l),
(216,350,l),
(116,-169,l),
(321,-169,l),
(421,350,l),
(587,350,l),
(619,510,l),
(453,510,l),
(492,715,l),
(287,715,l),
(248,510,l),
(82,510,l)
);
}
);
width = 603;
}
);
note = dagger;
unicode = 8224;
},
{
glyphname = degree;
layers = (
{
hints = (
{
horizontal = 1;
place = (381, 93);
place = (381, 93);
type = Stem;
},
{
horizontal = 1;
place = (606, 93);
place = (606, 93);
type = Stem;
},
{
place = (79, 103);
place = (79, 103);
type = Stem;
},
{
place = (308, 103);
place = (308, 103);
type = Stem;
}
);
layerId = m01;
shapes = (
{
closed = 1;
nodes = (
(334,381,o),
(411,449,o),
(411,539,cs),
(411,629,o),
(334,699,o),
(245,699,cs),
(155,699,o),
(79,629,o),
(79,539,cs),
(79,449,o),
(155,381,o),
(245,381,cs)
);
},
{
closed = 1;
nodes = (
(205,474,o),
(182,505,o),
(182,539,cs),
(182,573,o),
(205,606,o),
(245,606,cs),
(284,606,o),
(308,573,o),
(308,539,cs),
(308,505,o),
(284,474,o),
(245,474,cs)
);
}
);
width = 388;
}
);
note = degree;
unicode = 176;
},
{
glyphname = cent;
layers = (
{
hints = (
{
horizontal = 1;
place = (-11, 21);
target = up;
type = BottomGhost;
},
{
horizontal = 1;
place = (321, 273);
place = (321, 273);
type = Stem;
},
{
place = (9, 178);
place = (9, 178);
type = Stem;
},
{
place = (372, 173);
place = (372, 173);
type = Stem;
}
);
layerId = m01;
shapes = (
{
closed = 1;
nodes = (
(376,594,l),
(315,594,l),
(301,524,l),
(129,516,o),
(9,378,o),
(9,206,cs),
(9,69,o),
(96,5,o),
(197,-11,c),
(177,-114,l),
(238,-114,l),
(257,-16,l),
(402,-14,o),
(507,63,o),
(531,206,c),
(361,206,l),
(347,152,o),
(319,123,o),
(282,115,c),
(336,389,l),
(361,379,o),
(371,354,o),
(372,321,c),
(545,321,l),
(545,447,o),
(467,509,o),
(362,522,c)
);
},
{
closed = 1;
nodes = (
(187,269,o),
(212,367,o),
(275,390,c),
(223,121,l),
(196,136,o),
(187,167,o),
(187,203,cs)
);
}
);
width = 550;
}
);
note = cent;
unicode = 162;
},
{
glyphname = sterling;
layers = (
{
hints = (
{
horizontal = 1;
place = (-8, 21);
target = up;
type = BottomGhost;
},
{
horizontal = 1;
place = (34, 144);
place = (34, 144);
type = Stem;
},
{
horizontal = 1;
place = (288, 98);
place = (288, 98);
type = Stem;
},
{
horizontal = 1;
place = (547, 152);
place = (547, 152);
type = Stem;
},
{
place = (80, 201);
place = (80, 201);
type = Stem;
},
{
place = (433, 187);
place = (433, 187);
type = Stem;
},
{
horizontal = 1;
place = (-16, 173);
place = (-16, 173);
type = Stem;
}
);
layerId = m01;
shapes = (
{
closed = 1;
nodes = (
(407,288,l),
(427,386,l),
(294,386,l),
(288,414,o),
(281,439,o),
(281,465,cs),
(281,518,o),
(310,547,o),
(355,547,cs),
(421,547,o),
(438,500,o),
(433,444,c),
(620,444,l),
(636,639,o),
(503,699,o),
(356,699,cs),
(217,699,o),
(80,631,o),
(80,480,cs),
(80,444,o),
(90,415,o),
(101,386,c),
(59,386,l),
(39,288,l),
(121,288,l),
(116,218,o),
(64,159,o),
(4,130,c),
(72,-8,l),
(113,17,o),
(147,34,o),
(189,34,cs),
(256,34,o),
(318,-16,o),
(416,-16,cs),
(470,-16,o),
(524,4,o),
(563,31,c),
(503,185,l),
(484,171,o),
(455,157,o),
(424,157,cs),
(375,157,o),
(331,178,o),
(276,178,cs),
(253,178,o),
(241,175,o),
(225,170,c),
(223,173,l),
(265,205,o),
(299,237,o),
(305,288,c)
);
}
);
width = 607;
}
);
note = sterling;
unicode = 163;
},
{
glyphname = section;
layers = (
{
hints = (
{
horizontal = 1;
place = (-191, 140);
place = (-191, 140);
type = Stem;
},
{
horizontal = 1;
place = (593, 135);
place = (593, 135);
type = Stem;
},
{
place = (158, 177);
place = (158, 177);
type = Stem;
},
{
place = (461, 158);
place = (461, 158);
type = Stem;
},
{
place = (37, 167);
place = (37, 167);
type = Stem;
},
{
place = (351, 174);
place = (351, 174);
type = Stem;
},
{
place = (448, 175);
place = (448, 175);
type = Stem;
}
);
layerId = m01;
shapes = (
{
closed = 1;
nodes = (
(619,523,l),
(629,672,o),
(520,728,o),
(396,728,cs),
(270,728,o),
(158,657,o),
(158,529,cs),
(158,497,o),
(169,471,o),
(179,458,c),
(95,434,o),
(37,386,o),
(37,295,cs),
(37,213,o),
(91,166,o),
(191,116,cs),
(299,62,o),
(351,42,o),
(351,-1,cs),
(351,-34,o),
(316,-51,o),
(286,-51,cs),
(238,-51,o),
(206,-29,o),
(209,18,c),
(44,18,l),
(35,-132,o),
(157,-191,o),
(283,-191,cs),
(415,-190,o),
(525,-123,o),
(525,7,cs),
(525,51,o),
(514,84,o),
(494,107,c),
(560,127,o),
(623,167,o),
(623,256,cs),
(623,339,o),
(569,385,o),
(478,434,cs),
(376,489,o),
(335,508,o),
(335,543,cs),
(335,576,o),
(362,593,o),
(395,593,cs),
(447,593,o),
(463,566,o),
(461,523,c)
);
},
{
closed = 1;
nodes = (
(416,271,o),
(448,255,o),
(448,228,cs),
(448,201,o),
(418,192,o),
(400,189,c),
(372,207,o),
(339,225,o),
(315,240,cs),
(237,284,o),
(204,301,o),
(204,327,cs),
(204,354,o),
(227,363,o),
(246,367,c),
(278,347,o),
(315,326,o),
(348,308,cs)
);
}
);
width = 647;
}
);
note = section;
unicode = 167;
},
{
glyphname = bullet;
layers = (
{
hints = (
{
horizontal = 1;
place = (158, 320);
place = (158, 320);
type = Stem;
},
{
place = (45, 320);
place = (45, 320);
type = Stem;
}
);
layerId = m01;
shapes = (
{
closed = 1;
nodes = (
(293,158,o),
(365,230,o),
(365,318,cs),
(365,406,o),
(293,478,o),
(205,478,cs),
(117,478,o),
(45,406,o),
(45,318,cs),
(45,230,o),
(117,158,o),
(205,158,cs)
);
}
);
width = 390;
}
);
note = bullet;
unicode = 8226;
},
{
glyphname = paragraph;
layers = (
{
hints = (
{
horizontal = 1;
place = (0, 21);
target = up;
type = BottomGhost;
},
{
horizontal = 1;
place = (603, 112);
place = (603, 112);
type = Stem;
},
{
place = (75, 579);
place = (75, 579);
type = Stem;
}
);
layerId = m01;
shapes = (
{
closed = 1;
nodes = (
(290,329,l),
(227,0,l),
(343,0,l),
(460,603,l),
(518,603,l),
(401,0,l),
(516,0,l),
(654,715,l),
(305,715,ls),
(238,715,o),
(188,698,o),
(149,664,cs),
(94,617,o),
(75,553,o),
(75,492,cs),
(75,397,o),
(139,329,o),
(249,329,cs)
);
}
);
width = 617;
}
);
note = paragraph;
unicode = 182;
},
{
glyphname = germandbls;
kernLeft = germandbls;
kernRight = germandbls;
layers = (
{
hints = (
{
horizontal = 1;
place = (-9, 148);
place = (-9, 148);
type = Stem;
},
{
horizontal = 1;
place = (338, 103);
place = (338, 103);
type = Stem;
},
{
horizontal = 1;
place = (583, 145);
place = (583, 145);
type = Stem;
},
{
place = (397, 182);
place = (397, 182);
type = Stem;
},
{
horizontal = 1;
place = (0, 21);
target = up;
type = BottomGhost;
},
{
place = (420, 173);
place = (420, 173);
type = Stem;
}
);
layerId = m01;
shapes = (
{
closed = 1;
nodes = (
(473,-9,o),
(579,81,o),
(579,235,cs),
(579,318,o),
(535,366,o),
(484,389,c),
(484,392,l),
(557,420,o),
(594,482,o),
(593,548,cs),
(591,690,o),
(457,728,o),
(360,728,cs),
(211,728,o),
(108,652,o),
(81,510,cs),
(-17,0,l),
(169,0,l),
(266,501,ls),
(277,558,o),
(309,583,o),
(352,583,cs),
(392,583,o),
(420,559,o),
(420,521,cs),
(420,452,o),
(367,441,o),
(311,441,cs),
(309,441,l),
(289,338,l),
(302,338,ls),
(367,338,o),
(397,307,o),
(397,254,cs),
(397,173,o),
(345,139,o),
(292,139,cs),
(271,139,o),
(259,141,o),
(248,143,c),
(222,7,l),
(254,-4,o),
(288,-9,o),
(329,-9,cs)
);
}
);
width = 594;
}
);
note = germandbls;
unicode = 223;
},
{
glyphname = registered;
kernLeft = registered;
layers = (
{
hints = (
{
horizontal = 1;
place = (244, 41);
place = (244, 41);
type = Stem;
},
{
horizontal = 1;
place = (446, 57);
place = (446, 57);
type = Stem;
},
{
horizontal = 1;
place = (552, 63);
place = (552, 63);
type = Stem;
},
{
horizontal = 1;
place = (686, 42);
place = (686, 42);
type = Stem;
},
{
place = (67, 48);
place = (67, 48);
type = Stem;
},
{
place = (198, 82);
place = (198, 82);
type = Stem;
},
{
place = (346, 81);
place = (346, 81);
type = Stem;
},
{
place = (499, 48);
place = (499, 48);
type = Stem;
}
);
layerId = m01;
shapes = (
{
closed = 1;
nodes = (
(441,244,o),
(547,347,o),
(547,486,cs),
(547,625,o),
(441,728,o),
(307,728,cs),
(173,728,o),
(67,625,o),
(67,486,cs),
(67,347,o),
(173,244,o),
(307,244,cs)
);
},
{
closed = 1;
nodes = (
(197,285,o),
(115,370,o),
(115,486,cs),
(115,601,o),
(197,686,o),
(307,686,cs),
(417,686,o),
(499,601,o),
(499,486,cs),
(499,370,o),
(417,285,o),
(307,285,cs)
);
},
{
closed = 1;
nodes = (
(198,360,l),
(280,360,l),
(280,446,l),
(308,446,ls),
(330,446,o),
(339,439,o),
(343,419,cs),
(348,395,o),
(346,364,o),
(353,360,c),
(434,360,l),
(434,366,l),
(423,371,o),
(428,403,o),
(421,433,cs),
(416,453,o),
(408,468,o),
(385,476,c),
(385,478,l),
(412,488,o),
(427,510,o),
(427,539,cs),
(427,591,o),
(379,615,o),
(326,615,cs),
(198,615,l)
);
},
{
closed = 1;
nodes = (
(280,552,l),
(314,552,ls),
(337,552,o),
(346,544,o),
(346,528,cs),
(346,511,o),
(335,503,o),
(314,503,cs),
(280,503,l)
);
}
);
width = 523;
}
);
note = registered;
unicode = 174;
},
{
glyphname = copyright;
kernLeft = copyright;
kernRight = copyright;
layers = (
{
hints = (
{
horizontal = 1;
place = (-17, 54);
place = (-17, 54);
type = Stem;
},
{
horizontal = 1;
place = (136, 115);
place = (136, 115);
type = Stem;
},
{
horizontal = 1;
place = (468, 115);
place = (468, 115);
type = Stem;
},
{
horizontal = 1;
place = (673, 55);
place = (673, 55);
type = Stem;
},
{
place = (55, 64);
place = (55, 64);
type = Stem;
},
{
place = (211, 140);
place = (211, 140);
type = Stem;
},
{
place = (729, 64);
place = (729, 64);
type = Stem;
}
);
layerId = m01;
shapes = (
{
closed = 1;
nodes = (
(630,-17,o),
(793,141,o),
(793,355,cs),
(793,569,o),
(630,728,o),
(424,728,cs),
(218,728,o),
(55,569,o),
(55,355,cs),
(55,141,o),
(218,-17,o),
(424,-17,cs)
);
},
{
closed = 1;
nodes = (
(250,37,o),
(119,173,o),
(119,355,cs),
(119,537,o),
(250,673,o),
(424,673,cs),
(598,673,o),
(729,537,o),
(729,355,cs),
(729,173,o),
(598,37,o),
(424,37,cs)
);
},
{
closed = 1;
nodes = (
(491,136,o),
(536,152,o),
(573,187,cs),
(603,216,o),
(625,258,o),
(629,306,c),
(496,306,l),
(492,276,o),
(469,251,o),
(430,251,cs),
(380,251,o),
(351,296,o),
(351,359,cs),
(351,422,o),
(375,468,o),
(428,468,cs),
(465,468,o),
(487,444,o),
(492,416,c),
(624,416,l),
(618,471,o),
(593,519,o),
(548,549,cs),
(516,570,o),
(475,583,o),
(428,583,cs),
(299,583,o),
(211,488,o),
(211,359,cs),
(211,231,o),
(297,136,o),
(428,136,cs)
);
}
);
width = 805;
}
);
note = copyright;
unicode = 169;
},
{
glyphname = trademark;
layers = (
{
hints = (
{
horizontal = 1;
place = (634, 81);
place = (634, 81);
type = Stem;
},
{
place = (104, 633);
place = (104, 633);
type = Stem;
},
{
horizontal = 1;
place = (443, 138);
place = (443, 138);
type = Stem;
},
{
place = (471, 64);
place = (471, 64);
type = Stem;
}
);
layerId = m01;
shapes = (
{
closed = 1;
nodes = (
(345,443,l),
(433,443,l),
(462,593,l),
(464,593,l),
(479,443,l),
(546,443,l),
(622,593,l),
(624,593,l),
(595,443,l),
(685,443,l),
(737,715,l),
(605,715,l),
(543,581,l),
(541,581,l),
(530,715,l),
(397,715,l)
);
},
{
closed = 1;
nodes = (
(104,634,l),
(176,634,l),
(139,443,l),
(237,443,l),
(274,634,l),
(347,634,l),
(362,715,l),
(119,715,l)
);
}
);
width = 707;
}
);
note = trademark;
unicode = 8482;
},
{
glyphname = acute;
layers = (
{
hints = (
{
horizontal = 1;
place = (566, 155);
place = (566, 155);
type = Stem;
},
{
place = (216, 290);
place = (216, 290);
type = Stem;
}
);
layerId = m01;
shapes = (
{
closed = 1;
nodes = (
(216,566,l),
(356,566,l),
(506,721,l),
(294,721,l)
);
}
);
width = 492;
}
);
note = acute;
unicode = 180;
},
{
glyphname = dieresis;
layers = (
{
hints = (
{
horizontal = 1;
place = (572, 143);
place = (572, 143);
type = Stem;
},
{
place = (107, 427);
place = (107, 427);
type = Stem;
}
);
layerId = m01;
shapes = (
{
closed = 1;
nodes = (
(332,572,l),
(507,572,l),
(534,715,l),
(359,715,l)
);
},
{
closed = 1;
nodes = (
(107,572,l),
(282,572,l),
(309,715,l),
(134,715,l)
);
}
);
width = 492;
}
);
note = dieresis;
unicode = 168;
},
{
glyphname = notequal;
layers = (
{
hints = (
{
horizontal = 1;
place = (115, 154);
place = (115, 154);
type = Stem;
},
{
horizontal = 1;
place = (347, 154);
place = (347, 154);
type = Stem;
},
{
place = (16, 541);
place = (16, 541);
type = Stem;
}
);
layerId = m01;
shapes = (
{
closed = 1;
nodes = (
(61,347,l),
(260,347,l),
(211,269,l),
(46,269,l),
(16,115,l),
(116,115,l),
(68,38,l),
(181,38,l),
(228,115,l),
(482,115,l),
(512,269,l),
(324,269,l),
(372,347,l),
(527,347,l),
(557,501,l),
(467,501,l),
(518,583,l),
(406,583,l),
(355,501,l),
(91,501,l)
);
}
);
width = 554;
}
);
note = notequal;
unicode = 8800;
},
{
glyphname = AE;
kernLeft = AE;
kernRight = E;
layers = (
{
hints = (
{
horizontal = 1;
place = (0, 177);
place = (0, 177);
type = Stem;
},
{
horizontal = 1;
place = (292, 155);
place = (292, 155);
type = Stem;
},
{
horizontal = 1;
place = (547, 168);
place = (547, 168);
type = Stem;
},
{
place = (-55, 1103);
place = (-55, 1103);
type = Stem;
},
{
horizontal = 1;
place = (100, 138);
place = (100, 138);
type = Stem;
}
);
layerId = m01;
shapes = (
{
closed = 1;
nodes = (
(380,0,l),
(924,0,l),
(958,177,l),
(620,177,l),
(642,292,l),
(913,292,l),
(943,447,l),
(673,447,l),
(691,547,l),
(1015,547,l),
(1048,715,l),
(323,715,l),
(-55,0,l),
(148,0,l),
(199,100,l),
(399,100,l)
);
},
{
closed = 1;
nodes = (
(428,545,l),
(485,545,l),
(426,238,l),
(270,238,l)
);
}
);
width = 1001;
}
);
note = AE;
unicode = 198;
},
{
glyphname = Oslash;
kernLeft = C;
kernRight = O;
layers = (
{
hints = (
{
horizontal = 1;
place = (-17, 166);
place = (-17, 166);
type = Stem;
},
{
horizontal = 1;
place = (562, 166);
place = (562, 166);
type = Stem;
},
{
place = (29, 202);
place = (29, 202);
type = Stem;
},
{
place = (547, 202);
place = (547, 202);
type = Stem;
}
);
layerId = m01;
shapes = (
{
closed = 1;
nodes = (
(594,-16,o),
(749,175,o),
(749,404,cs),
(749,497,o),
(723,570,o),
(678,624,c),
(747,702,l),
(686,758,l),
(616,679,l),
(564,711,o),
(498,728,o),
(423,728,cs),
(187,728,o),
(31,532,o),
(29,299,cs),
(28,211,o),
(53,142,o),
(95,91,c),
(22,8,l),
(83,-48,l),
(158,36,l),
(214,0,o),
(285,-17,o),
(362,-17,cs)
);
},
{
closed = 1;
nodes = (
(547,287,o),
(493,149,o),
(365,149,cs),
(329,149,o),
(301,158,o),
(280,174,c),
(540,468,l),
(545,448,o),
(547,427,o),
(547,405,cs)
);
},
{
closed = 1;
nodes = (
(231,415,o),
(286,562,o),
(416,562,cs),
(448,562,o),
(474,554,o),
(493,541,c),
(236,250,l),
(232,265,o),
(231,282,o),
(231,299,cs)
);
}
);
width = 740;
}
);
note = Oslash;
unicode = 216;
},
{
glyphname = infinity;
layers = (
{
hints = (
{
horizontal = 1;
place = (113, 136);
place = (113, 136);
type = Stem;
},
{
horizontal = 1;
place = (359, 137);
place = (359, 137);
type = Stem;
},
{
place = (21, 142);
place = (21, 142);
type = Stem;
},
{
place = (572, 140);
place = (572, 140);
type = Stem;
}
);
layerId = m01;
shapes = (
{
closed = 1;
nodes = (
(275,113,o),
(323,155,o),
(369,214,c),
(415,155,o),
(460,113,o),
(542,113,cs),
(640,113,o),
(712,185,o),
(712,305,cs),
(712,424,o),
(640,496,o),
(542,496,cs),
(460,496,o),
(415,454,o),
(369,395,c),
(323,454,o),
(275,496,o),
(190,496,cs),
(84,496,o),
(21,412,o),
(21,305,cs),
(21,197,o),
(83,113,o),
(190,113,cs)
);
},
{
closed = 1;
nodes = (
(236,359,o),
(257,333,o),
(274,304,c),
(257,275,o),
(236,249,o),
(207,249,cs),
(177,249,o),
(163,274,o),
(163,305,cs),
(163,335,o),
(177,359,o),
(207,359,cs)
);
},
{
closed = 1;
nodes = (
(499,249,o),
(479,275,o),
(462,304,c),
(479,333,o),
(499,359,o),
(527,359,cs),
(557,359,o),
(572,335,o),
(572,305,cs),
(572,274,o),
(557,249,o),
(527,249,cs)
);
}
);
width = 725;
}
);
note = infinity;
unicode = 8734;
},
{
glyphname = plusminus;
layers = (
{
hints = (
{
horizontal = 1;
place = (0, 146);
place = (0, 146);
type = Stem;
},
{
horizontal = 1;
place = (301, 157);
place = (301, 157);
type = Stem;
},
{
place = (-6, 555);
place = (-6, 555);
type = Stem;
}
);
layerId = m01;
shapes = (
{
closed = 1;
nodes = (
(52,301,l),
(203,301,l),
(180,181,l),
(344,181,l),
(367,301,l),
(518,301,l),
(549,458,l),
(398,458,l),
(420,576,l),
(256,576,l),
(234,458,l),
(83,458,l)
);
},
{
closed = 1;
nodes = (
(-6,0,l),
(460,0,l),
(488,146,l),
(22,146,l)
);
}
);
width = 554;
}
);
note = plusminus;
unicode = 177;
},
{
glyphname = lessequal;
layers = (
{
hints = (
{
horizontal = 1;
place = (0, 128);
place = (0, 128);
type = Stem;
},
{
place = (-10, 517);
place = (-10, 517);
type = Stem;
}
);
layerId = m01;
shapes = (
{
closed = 1;
nodes = (
(-10,0,l),
(397,0,l),
(421,128,l),
(14,128,l)
);
},
{
closed = 1;
nodes = (
(423,136,l),
(453,289,l),
(315,328,ls),
(275,339,o),
(222,350,o),
(222,350,c),
(222,352,l),
(222,352,o),
(282,365,o),
(324,376,cs),
(478,415,l),
(507,571,l),
(76,449,l),
(41,268,l)
);
}
);
width = 495;
}
);
note = lessequal;
unicode = 8804;
},
{
glyphname = greaterequal;
layers = (
{
hints = (
{
horizontal = 1;
place = (0, 128);
place = (0, 128);
type = Stem;
},
{
place = (-2, 492);
place = (-2, 492);
type = Stem;
}
);
layerId = m01;
shapes = (
{
closed = 1;
nodes = (
(429,128,l),
(22,128,l),
(-2,0,l),
(405,0,l)
);
},
{
closed = 1;
nodes = (
(108,571,l),
(78,418,l),
(216,379,ls),
(256,368,o),
(309,357,o),
(309,357,c),
(309,355,l),
(309,355,o),
(249,342,o),
(207,331,cs),
(53,292,l),
(24,136,l),
(455,258,l),
(490,439,l)
);
}
);
width = 495;
}
);
note = greaterequal;
unicode = 8805;
},
{
glyphname = yen;
layers = (
{
hints = (
{
horizontal = 1;
place = (0, 184);
place = (0, 184);
type = Stem;
},
{
horizontal = 1;
place = (235, 70);
place = (235, 70);
type = Stem;
},
{
horizontal = 1;
place = (686, -20);
target = down;
type = TopGhost;
},
{
place = (45, 697);
place = (45, 697);
type = Stem;
},
{
horizontal = 1;
place = (114, 70);
place = (114, 70);
type = Stem;
}
);
layerId = m01;
shapes = (
{
closed = 1;
nodes = (
(68,235,l),
(228,235,l),
(218,184,l),
(58,184,l),
(45,114,l),
(205,114,l),
(183,0,l),
(373,0,l),
(395,114,l),
(556,114,l),
(569,184,l),
(408,184,l),
(418,235,l),
(579,235,l),
(593,305,l),
(457,305,l),
(742,686,l),
(529,686,l),
(426,535,ls),
(392,485,o),
(363,429,o),
(363,429,c),
(361,429,l),
(361,429,o),
(349,487,o),
(332,548,cs),
(292,686,l),
(81,686,l),
(218,305,l),
(82,305,l)
);
}
);
width = 663;
}
);
note = yen;
unicode = 165;
},
{
glyphname = mu;
layers = (
{
hints = (
{
horizontal = 1;
place = (-169, 21);
target = up;
type = BottomGhost;
},
{
horizontal = 1;
place = (-11, 21);
target = up;
type = BottomGhost;
},
{
horizontal = 1;
place = (510, -20);
target = down;
type = TopGhost;
},
{
place = (-50, 644);
place = (-50, 644);
type = Stem;
},
{
horizontal = 1;
place = (0, 139);
place = (0, 139);
type = Stem;
}
);
layerId = m01;
shapes = (
{
closed = 1;
nodes = (
(-50,-169,l),
(132,-169,l),
(165,1,l),
(166,1,l),
(174,-5,o),
(189,-11,o),
(207,-11,cs),
(253,-11,o),
(296,20,o),
(329,75,c),
(332,75,l),
(318,0,l),
(495,0,l),
(594,510,l),
(408,510,l),
(354,230,ls),
(344,176,o),
(312,139,o),
(263,139,cs),
(219,139,o),
(201,167,o),
(212,223,cs),
(268,510,l),
(82,510,l)
);
}
);
width = 580;
}
);
note = mu;
unicode = 181;
},
{
glyphname = partialdiff;
layers = (
{
hints = (
{
horizontal = 1;
place = (-16, 126);
place = (-16, 126);
type = Stem;
},
{
horizontal = 1;
place = (356, 123);
place = (356, 123);
type = Stem;
},
{
horizontal = 1;
place = (722, -20);
target = down;
type = TopGhost;
},
{
place = (14, 190);
place = (14, 190);
type = Stem;
},
{
place = (373, 202);
place = (373, 202);
type = Stem;
}
);
layerId = m01;
shapes = (
{
closed = 1;
nodes = (
(352,470,o),
(318,479,o),
(272,479,cs),
(117,479,o),
(14,369,o),
(14,214,cs),
(14,83,o),
(105,-16,o),
(273,-16,cs),
(476,-16,o),
(575,108,o),
(575,323,cs),
(575,581,o),
(444,709,o),
(162,722,c),
(162,564,l),
(289,550,o),
(356,510,o),
(377,448,c)
);
},
{
closed = 1;
nodes = (
(229,110,o),
(204,149,o),
(204,216,cs),
(204,298,o),
(241,356,o),
(303,356,cs),
(349,356,o),
(373,321,o),
(373,259,cs),
(373,187,o),
(344,110,o),
(275,110,cs)
);
}
);
width = 588;
}
);
note = partialdiff;
unicode = 8706;
},
{
glyphname = summation;
layers = (
{
hints = (
{
horizontal = 1;
place = (-100, 167);
place = (-100, 167);
type = Stem;
},
{
horizontal = 1;
place = (557, 158);
place = (557, 158);
type = Stem;
},
{
place = (84, 567);
place = (84, 567);
type = Stem;
}
);
layerId = m01;
shapes = (
{
closed = 1;
nodes = (
(651,-100,l),
(651,67,l),
(313,67,l),
(313,69,l),
(505,279,l),
(505,359,l),
(320,555,l),
(320,557,l),
(641,557,l),
(641,715,l),
(84,715,l),
(84,560,l),
(306,317,l),
(306,315,l),
(84,65,l),
(84,-100,l)
);
}
);
width = 694;
}
);
note = summation;
unicode = 8721;
},
{
glyphname = product;
layers = (
{
hints = (
{
horizontal = 1;
place = (547, 168);
place = (547, 168);
type = Stem;
},
{
place = (91, 203);
place = (91, 203);
type = Stem;
},
{
place = (529, 203);
place = (529, 203);
type = Stem;
}
);
layerId = m01;
shapes = (
{
closed = 1;
nodes = (
(91,715,l),
(91,-100,l),
(294,-100,l),
(294,547,l),
(529,547,l),
(529,-100,l),
(732,-100,l),
(732,715,l)
);
}
);
width = 783;
}
);
note = product;
unicode = 8719;
},
{
glyphname = pi;
layers = (
{
hints = (
{
horizontal = 1;
place = (0, 21);
target = up;
type = BottomGhost;
},
{
horizontal = 1;
place = (397, 113);
place = (397, 113);
type = Stem;
},
{
place = (28, 639);
place = (28, 639);
type = Stem;
},
{
horizontal = 1;
place = (-8, 21);
target = up;
type = BottomGhost;
},
{
place = (347, 188);
place = (347, 188);
type = Stem;
}
);
layerId = m01;
shapes = (
{
closed = 1;
nodes = (
(286,397,l),
(397,397,l),
(353,167,ls),
(326,27,o),
(388,-8,o),
(481,-8,cs),
(520,-8,o),
(535,-4,o),
(558,2,c),
(583,130,l),
(542,126,o),
(528,136,o),
(535,171,cs),
(579,397,l),
(644,397,l),
(667,510,l),
(63,510,l),
(40,397,l),
(104,397,l),
(28,0,l),
(210,0,l)
);
}
);
width = 644;
}
);
note = pi;
unicode = 960;
},
{
glyphname = integral;
layers = (
{
hints = (
{
horizontal = 1;
place = (-175, 149);
place = (-175, 149);
type = Stem;
},
{
horizontal = 1;
place = (592, 149);
place = (592, 149);
type = Stem;
},
{
place = (112, 189);
place = (112, 189);
type = Stem;
}
);
layerId = m01;
shapes = (
{
closed = 1;
nodes = (
(112,23,ls),
(112,-29,o),
(79,-30,o),
(15,-26,c),
(15,-165,l),
(46,-172,o),
(88,-175,o),
(117,-175,cs),
(182,-175,o),
(227,-161,o),
(258,-129,cs),
(284,-102,o),
(301,-63,o),
(301,13,cs),
(301,543,ls),
(301,595,o),
(334,596,o),
(398,592,c),
(398,731,l),
(367,738,o),
(325,741,o),
(298,741,cs),
(231,741,o),
(186,727,o),
(155,695,cs),
(129,668,o),
(112,629,o),
(112,553,cs)
);
}
);
width = 393;
}
);
note = integral;
unicode = 8747;
},
{
glyphname = ordfeminine;
layers = (
{
hints = (
{
horizontal = 1;
place = (236, 7);
place = (236, 7);
type = Stem;
},
{
horizontal = 1;
place = (537, 162);
place = (537, 162);
type = Stem;
},
{
place = (48, 160);
place = (48, 160);
type = Stem;
},
{
place = (313, 162);
place = (313, 162);
type = Stem;
},
{
place = (362, 161);
place = (362, 161);
type = Stem;
},
{
horizontal = 1;
place = (225, 96);
place = (225, 96);
type = Stem;
},
{
horizontal = 1;
place = (592, 107);
place = (592, 107);
type = Stem;
}
);
layerId = m01;
shapes = (
{
closed = 1;
nodes = (
(481,236,l),
(482,243,l),
(473,252,o),
(472,272,o),
(480,310,cs),
(518,508,ls),
(535,591,o),
(508,641,o),
(467,668,cs),
(429,692,o),
(381,699,o),
(332,699,cs),
(185,699,o),
(116,632,o),
(98,537,c),
(256,537,l),
(265,572,o),
(285,593,o),
(323,592,cs),
(352,592,o),
(362,574,o),
(362,555,cs),
(362,514,o),
(329,505,o),
(246,500,cs),
(119,492,o),
(48,451,o),
(48,348,cs),
(48,271,o),
(101,225,o),
(189,225,cs),
(229,225,o),
(278,241,o),
(311,285,c),
(313,285,l),
(313,266,o),
(316,247,o),
(320,236,c)
);
},
{
closed = 1;
nodes = (
(229,321,o),
(208,335,o),
(208,365,cs),
(208,407,o),
(247,416,o),
(277,420,cs),
(305,424,o),
(326,430,o),
(344,438,c),
(336,397,ls),
(324,341,o),
(293,321,o),
(258,321,cs)
);
}
);
width = 514;
}
);
note = ordfeminine;
unicode = 170;
},
{
glyphname = ordmasculine;
layers = (
{
hints = (
{
horizontal = 1;
place = (223, 109);
place = (223, 109);
type = Stem;
},
{
horizontal = 1;
place = (589, 110);
place = (589, 110);
type = Stem;
},
{
place = (46, 167);
place = (46, 167);
type = Stem;
},
{
place = (365, 169);
place = (365, 169);
type = Stem;
}
);
layerId = m01;
shapes = (
{
closed = 1;
nodes = (
(428,223,o),
(535,344,o),
(534,499,cs),
(533,641,o),
(424,699,o),
(310,699,cs),
(151,699,o),
(46,576,o),
(46,423,cs),
(46,282,o),
(157,223,o),
(268,223,cs)
);
},
{
closed = 1;
nodes = (
(212,476,o),
(233,589,o),
(304,589,cs),
(352,589,o),
(365,544,o),
(365,504,cs),
(366,438,o),
(344,332,o),
(272,332,cs),
(225,332,o),
(213,373,o),
(213,412,cs)
);
}
);
width = 510;
}
);
note = ordmasculine;
unicode = 186;
},
{
glyphname = Omega;
layers = (
{
hints = (
{
horizontal = 1;
place = (0, 155);
place = (0, 155);
type = Stem;
},
{
horizontal = 1;
place = (561, 167);
place = (561, 167);
type = Stem;
},
{
place = (38, 200);
place = (38, 200);
type = Stem;
},
{
place = (531, 210);
place = (531, 210);
type = Stem;
}
);
layerId = m01;
shapes = (
{
closed = 1;
nodes = (
(532,327,o),
(485,156,o),
(373,149,c),
(345,0,l),
(656,0,l),
(686,155,l),
(599,155,l),
(599,158,l),
(697,216,o),
(741,321,o),
(741,444,cs),
(741,639,o),
(587,728,o),
(429,728,cs),
(199,728,o),
(38,548,o),
(38,330,cs),
(38,258,o),
(67,192,o),
(112,158,c),
(112,155,l),
(7,155,l),
(-23,0,l),
(288,0,l),
(316,149,l),
(262,162,o),
(238,209,o),
(238,280,cs),
(238,395,o),
(278,561,o),
(413,561,cs),
(498,561,o),
(530,506,o),
(531,432,cs)
);
}
);
width = 732;
}
);
note = Omega;
unicode = 8486;
},
{
glyphname = ae;
kernLeft = a;
kernRight = e;
layers = (
{
hints = (
{
horizontal = 1;
place = (-13, 113);
place = (-13, 113);
type = Stem;
},
{
horizontal = 1;
place = (209, 100);
place = (209, 100);
type = Stem;
},
{
horizontal = 1;
place = (403, 123);
place = (403, 123);
type = Stem;
},
{
place = (-9, 179);
place = (-9, 179);
type = Stem;
},
{
place = (682, 171);
place = (682, 171);
type = Stem;
},
{
horizontal = 1;
place = (342, 184);
place = (342, 184);
type = Stem;
},
{
horizontal = 1;
place = (-14, 127);
place = (-14, 127);
type = Stem;
},
{
horizontal = 1;
place = (-14, 166);
place = (-14, 166);
type = Stem;
},
{
horizontal = 1;
place = (401, 126);
place = (401, 126);
type = Stem;
}
);
layerId = m01;
shapes = (
{
closed = 1;
nodes = (
(140,526,o),
(61,450,o),
(41,342,c),
(218,342,l),
(228,382,o),
(252,403,o),
(296,403,cs),
(330,403,o),
(344,384,o),
(344,363,cs),
(344,314,o),
(298,305,o),
(192,299,cs),
(68,292,o),
(-9,245,o),
(-9,134,cs),
(-9,47,o),
(55,-13,o),
(186,-13,cs),
(290,-13,o),
(347,25,o),
(380,71,c),
(421,14,o),
(490,-14,o),
(578,-14,cs),
(636,-14,o),
(693,0,o),
(742,30,cs),
(786,57,o),
(819,97,o),
(836,152,c),
(656,152,l),
(643,124,o),
(614,113,o),
(585,113,cs),
(515,113,o),
(501,161,o),
(500,209,c),
(848,209,l),
(867,339,o),
(838,438,o),
(755,491,cs),
(718,514,o),
(671,527,o),
(613,527,cs),
(550,527,o),
(500,509,o),
(462,477,c),
(432,510,o),
(380,526,o),
(307,526,cs)
);
},
{
closed = 1;
nodes = (
(192,100,o),
(170,113,o),
(170,147,cs),
(170,194,o),
(213,203,o),
(247,208,cs),
(279,213,o),
(303,219,o),
(323,228,c),
(314,183,ls),
(301,119,o),
(265,100,o),
(226,100,cs)
);
},
{
closed = 1;
nodes = (
(662,401,o),
(684,359,o),
(682,309,c),
(513,309,l),
(531,377,o),
(570,401,o),
(608,401,cs)
);
}
);
width = 863;
}
);
note = ae;
unicode = 230;
},
{
glyphname = oslash;
kernLeft = c;
kernRight = o;
layers = (
{
hints = (
{
horizontal = 1;
place = (-16, 126);
place = (-16, 126);
type = Stem;
},
{
horizontal = 1;
place = (398, 127);
place = (398, 127);
type = Stem;
},
{
place = (9, 183);
place = (9, 183);
type = Stem;
},
{
place = (377, 185);
place = (377, 185);
type = Stem;
}
);
layerId = m01;
shapes = (
{
closed = 1;
nodes = (
(10,10,l),
(57,-35,l),
(111,22,l),
(154,-3,o),
(207,-16,o),
(260,-16,cs),
(443,-16,o),
(563,117,o),
(562,293,cs),
(561,358,o),
(541,408,o),
(508,445,c),
(559,499,l),
(512,544,l),
(458,486,l),
(414,512,o),
(362,525,o),
(308,525,cs),
(127,525,o),
(9,388,o),
(9,214,cs),
(9,150,o),
(29,100,o),
(61,64,c)
);
},
{
closed = 1;
nodes = (
(242,110,o),
(225,118,o),
(213,131,c),
(377,305,l),
(377,304,ls),
(378,229,o),
(347,110,o),
(265,110,cs)
);
},
{
closed = 1;
nodes = (
(325,398,o),
(342,389,o),
(354,375,c),
(192,203,l),
(192,277,o),
(222,398,o),
(302,398,cs)
);
}
);
width = 572;
}
);
note = oslash;
unicode = 248;
},
{
glyphname = questiondown;
kernRight = questiondown;
layers = (
{
hints = (
{
horizontal = 1;
place = (-140, 155);
place = (-140, 155);
type = Stem;
},
{
horizontal = 1;
place = (397, 191);
place = (397, 191);
type = Stem;
},
{
place = (-23, 203);
place = (-23, 203);
type = Stem;
}
);
layerId = m01;
shapes = (
{
closed = 1;
nodes = (
(220,330,l),
(216,308,o),
(212,289,o),
(192,274,cs),
(174,260,o),
(147,247,o),
(92,219,cs),
(18,183,o),
(-23,123,o),
(-23,43,cs),
(-23,-105,o),
(116,-140,o),
(219,-140,cs),
(376,-140,o),
(491,-68,o),
(517,97,c),
(326,97,l),
(316,40,o),
(281,15,o),
(239,15,cs),
(204,15,o),
(180,31,o),
(180,65,cs),
(180,120,o),
(272,140,o),
(323,182,cs),
(361,214,o),
(371,246,o),
(387,330,c)
);
},
{
closed = 1;
nodes = (
(453,588,l),
(261,588,l),
(224,397,l),
(416,397,l)
);
}
);
width = 559;
}
);
note = questiondown;
unicode = 191;
},
{
glyphname = exclamdown;
kernRight = exclamdown;
layers = (
{
hints = (
{
horizontal = 1;
place = (397, 191);
place = (397, 191);
type = Stem;
},
{
place = (-37, 330);
place = (-37, 330);
type = Stem;
}
);
layerId = m01;
shapes = (
{
closed = 1;
nodes = (
(199,330,l),
(100,330,l),
(-1,59,l),
(-37,-127,l),
(155,-127,l),
(188,47,l)
);
},
{
closed = 1;
nodes = (
(293,588,l),
(101,588,l),
(64,397,l),
(256,397,l)
);
}
);
width = 269;
}
);
note = exclamdown;
unicode = 161;
},
{
glyphname = logicalnot;
layers = (
{
hints = (
{
horizontal = 1;
place = (281, 161);
place = (281, 161);
type = Stem;
},
{
place = (48, 459);
place = (48, 459);
type = Stem;
}
);
layerId = m01;
shapes = (
{
closed = 1;
nodes = (
(48,281,l),
(304,281,l),
(273,123,l),
(445,123,l),
(507,442,l),
(79,442,l)
);
}
);
width = 526;
}
);
note = logicalnot;
unicode = 172;
},
{
glyphname = radical;
layers = (
{
hints = (
{
horizontal = 1;
place = (185, 158);
place = (185, 158);
type = Stem;
},
{
horizontal = 1;
place = (715, -20);
target = down;
type = TopGhost;
},
{
place = (31, 663);
place = (31, 663);
type = Stem;
}
);
layerId = m01;
shapes = (
{
closed = 1;
nodes = (
(31,185,l),
(96,185,l),
(225,-100,l),
(420,-100,l),
(694,715,l),
(500,715,l),
(345,235,ls),
(326,177,o),
(314,123,o),
(314,123,c),
(312,123,l),
(312,123,o),
(297,176,o),
(274,234,cs),
(230,343,l),
(31,343,l)
);
}
);
width = 652;
}
);
note = radical;
unicode = 8730;
},
{
glyphname = florin;
layers = (
{
hints = (
{
horizontal = 1;
place = (-158, 7);
place = (-158, 7);
type = Stem;
},
{
horizontal = 1;
place = (306, 114);
place = (306, 114);
type = Stem;
},
{
horizontal = 1;
place = (562, 135);
place = (562, 135);
type = Stem;
},
{
place = (-41, 514);
place = (-41, 514);
type = Stem;
},
{
horizontal = 1;
place = (691, -20);
target = down;
type = TopGhost;
}
);
layerId = m01;
shapes = (
{
closed = 1;
nodes = (
(43,306,l),
(117,306,l),
(55,19,ls),
(44,-32,o),
(29,-35,o),
(-18,-33,c),
(-41,-151,l),
(26,-160,o),
(122,-169,o),
(177,-127,cs),
(214,-98,o),
(231,-60,o),
(243,-3,cs),
(309,306,l),
(412,306,l),
(434,420,l),
(334,420,l),
(354,514,ls),
(367,568,o),
(389,565,o),
(448,562,c),
(473,691,l),
(395,701,o),
(297,704,o),
(239,660,cs),
(200,631,o),
(179,591,o),
(168,536,cs),
(142,420,l),
(65,420,l)
);
}
);
width = 444;
}
);
note = florin;
unicode = 402;
},
{
glyphname = approxequal;
layers = (
{
hints = (
{
horizontal = 1;
place = (112, 188);
place = (112, 188);
type = Stem;
},
{
horizontal = 1;
place = (328, 195);
place = (328, 195);
type = Stem;
},
{
place = (-3, 548);
place = (-3, 548);
type = Stem;
},
{
horizontal = 1;
place = (367, 156);
place = (367, 156);
type = Stem;
},
{
horizontal = 1;
place = (335, 154);
place = (335, 154);
type = Stem;
},
{
horizontal = 1;
place = (144, 156);
place = (144, 156);
type = Stem;
}
);
layerId = m01;
shapes = (
{
closed = 1;
nodes = (
(149,328,l),
(157,355,o),
(171,367,o),
(192,367,cs),
(239,367,o),
(318,335,o),
(390,335,cs),
(485,335,o),
(532,397,o),
(545,523,c),
(428,523,l),
(423,499,o),
(415,489,o),
(389,489,cs),
(346,489,o),
(267,523,o),
(195,523,cs),
(112,523,o),
(49,471,o),
(33,328,c)
);
},
{
closed = 1;
nodes = (
(112,105,l),
(119,132,o),
(133,144,o),
(154,144,cs),
(201,144,o),
(280,112,o),
(352,112,cs),
(447,112,o),
(494,174,o),
(508,300,c),
(391,300,l),
(386,276,o),
(377,266,o),
(351,266,cs),
(308,266,o),
(230,300,o),
(158,300,cs),
(75,300,o),
(12,248,o),
(-3,105,c)
);
}
);
width = 521;
}
);
note = approxequal;
unicode = 8776;
},
{
glyphname = Delta;
layers = (
{
hints = (
{
horizontal = 1;
place = (0, 153);
place = (0, 153);
type = Stem;
},
{
horizontal = 1;
place = (715, -20);
target = down;
type = TopGhost;
},
{
place = (-28, 664);
place = (-28, 664);
type = Stem;
}
);
layerId = m01;
shapes = (
{
closed = 1;
nodes = (
(613,0,l),
(636,122,l),
(524,715,l),
(314,715,l),
(-5,122,l),
(-28,0,l)
);
},
{
closed = 1;
nodes = (
(340,412,ls),
(358,447,o),
(383,504,o),
(383,504,c),
(384,504,l),
(384,504,o),
(390,447,o),
(395,412,cs),
(432,153,l),
(209,153,l)
);
}
);
width = 685;
}
);
note = Delta;
unicode = 8710;
},
{
glyphname = guillemotleft;
kernLeft = guillemotleft;
kernRight = guillemotleft;
layers = (
{
hints = (
{
horizontal = 1;
place = (24, 441);
place = (24, 441);
type = Stem;
},
{
place = (14, 410);
place = (14, 410);
type = Stem;
}
);
layerId = m01;
shapes = (
{
closed = 1;
nodes = (
(149,24,l),
(178,175,l),
(110,239,l),
(110,241,l),
(203,305,l),
(234,465,l),
(49,340,l),
(14,160,l)
);
},
{
closed = 1;
nodes = (
(339,24,l),
(368,175,l),
(304,239,l),
(304,241,l),
(393,305,l),
(424,465,l),
(243,340,l),
(208,160,l)
);
}
);
width = 425;
}
);
note = guillemotleft;
unicode = 171;
},
{
glyphname = guillemotright;
kernLeft = guillemotright;
kernRight = guillemotright;
layers = (
{
hints = (
{
horizontal = 1;
place = (24, 441);
place = (24, 441);
type = Stem;
},
{
place = (-5, 410);
place = (-5, 410);
type = Stem;
}
);
layerId = m01;
shapes = (
{
closed = 1;
nodes = (
(270,465,l),
(241,314,l),
(309,250,l),
(309,248,l),
(216,184,l),
(185,24,l),
(370,149,l),
(405,329,l)
);
},
{
closed = 1;
nodes = (
(80,465,l),
(51,314,l),
(115,250,l),
(115,248,l),
(26,184,l),
(-5,24,l),
(176,149,l),
(211,329,l)
);
}
);
width = 425;
}
);
note = guillemotright;
unicode = 187;
},
{
glyphname = ellipsis;
kernLeft = comma;
kernRight = comma;
layers = (
{
hints = (
{
horizontal = 1;
place = (0, 191);
place = (0, 191);
type = Stem;
},
{
place = (-22, 759);
place = (-22, 759);
type = Stem;
}
);
layerId = m01;
shapes = (
{
closed = 1;
nodes = (
(508,0,l),
(700,0,l),
(737,191,l),
(545,191,l)
);
},
{
closed = 1;
nodes = (
(243,0,l),
(435,0,l),
(472,191,l),
(280,191,l)
);
},
{
closed = 1;
nodes = (
(-22,0,l),
(169,0,l),
(206,191,l),
(15,191,l)
);
}
);
width = 777;
}
);
note = ellipsis;
unicode = 8230;
},
{
glyphname = Agrave;
kernLeft = A;
kernRight = A;
layers = (
{
hints = (
{
horizontal = 1;
place = (0, 21);
target = up;
type = BottomGhost;
},
{
horizontal = 1;
place = (106, 142);
place = (106, 142);
type = Stem;
},
{
horizontal = 1;
place = (715, -20);
target = down;
type = TopGhost;
},
{
horizontal = 1;
place = (746, 135);
place = (746, 135);
type = Stem;
},
{
place = (-55, 730);
place = (-55, 730);
type = Stem;
}
);
layerId = m01;
shapes = (
{
closed = 1;
nodes = (
(460,0,l),
(675,0,l),
(543,715,l),
(334,715,l),
(-55,0,l),
(153,0,l),
(206,106,l),
(445,106,l)
);
},
{
closed = 1;
nodes = (
(390,746,l),
(530,746,l),
(500,881,l),
(296,881,l)
);
},
{
closed = 1;
nodes = (
(350,391,ls),
(367,426,o),
(393,483,o),
(393,483,c),
(395,483,l),
(395,483,o),
(400,426,o),
(405,391,cs),
(425,248,l),
(278,248,l)
);
}
);
width = 718;
}
);
note = Agrave;
unicode = 192;
},
{
glyphname = Atilde;
kernLeft = A;
kernRight = A;
layers = (
{
hints = (
{
horizontal = 1;
place = (0, 21);
target = up;
type = BottomGhost;
},
{
horizontal = 1;
place = (106, 142);
place = (106, 142);
type = Stem;
},
{
horizontal = 1;
place = (715, -20);
target = down;
type = TopGhost;
},
{
place = (-55, 730);
place = (-55, 730);
type = Stem;
},
{
horizontal = 1;
place = (744, 152);
place = (744, 152);
type = Stem;
},
{
horizontal = 1;
place = (749, 109);
place = (749, 109);
type = Stem;
}
);
layerId = m01;
shapes = (
{
closed = 1;
nodes = (
(460,0,l),
(675,0,l),
(543,715,l),
(334,715,l),
(-55,0,l),
(153,0,l),
(206,106,l),
(445,106,l)
);
},
{
closed = 1;
nodes = (
(341,744,l),
(348,771,o),
(363,786,o),
(382,786,cs),
(415,786,o),
(442,749,o),
(506,749,cs),
(578,749,o),
(623,808,o),
(637,896,c),
(543,896,l),
(537,873,o),
(527,858,o),
(504,858,cs),
(472,858,o),
(444,896,o),
(386,896,cs),
(323,896,o),
(264,847,o),
(247,744,c)
);
},
{
closed = 1;
nodes = (
(350,391,ls),
(367,426,o),
(393,483,o),
(393,483,c),
(395,483,l),
(395,483,o),
(400,426,o),
(405,391,cs),
(425,248,l),
(278,248,l)
);
}
);
width = 718;
}
);
note = Atilde;
unicode = 195;
},
{
glyphname = Otilde;
kernLeft = C;
kernRight = O;
layers = (
{
hints = (
{
horizontal = 1;
place = (-17, 166);
place = (-17, 166);
type = Stem;
},
{
horizontal = 1;
place = (562, 166);
place = (562, 166);
type = Stem;
},
{
place = (29, 207);
place = (29, 207);
type = Stem;
},
{
place = (542, 207);
place = (542, 207);
type = Stem;
},
{
horizontal = 1;
place = (744, 152);
place = (744, 152);
type = Stem;
},
{
horizontal = 1;
place = (749, 109);
place = (749, 109);
type = Stem;
}
);
layerId = m01;
shapes = (
{
closed = 1;
nodes = (
(594,-16,o),
(749,175,o),
(749,404,cs),
(749,614,o),
(620,728,o),
(423,728,cs),
(187,728,o),
(31,532,o),
(29,299,cs),
(27,86,o),
(176,-17,o),
(362,-17,cs)
);
},
{
closed = 1;
nodes = (
(236,415,o),
(291,561,o),
(416,562,cs),
(509,562,o),
(542,493,o),
(542,405,cs),
(542,287,o),
(488,149,o),
(365,149,cs),
(273,149,o),
(236,218,o),
(236,299,cs)
);
},
{
closed = 1;
nodes = (
(341,744,l),
(348,771,o),
(363,786,o),
(382,786,cs),
(415,786,o),
(442,749,o),
(506,749,cs),
(578,749,o),
(623,808,o),
(637,896,c),
(543,896,l),
(537,873,o),
(527,858,o),
(504,858,cs),
(472,858,o),
(444,896,o),
(386,896,cs),
(323,896,o),
(264,847,o),
(247,744,c)
);
}
);
width = 740;
}
);
note = Otilde;
unicode = 213;
},
{
glyphname = OE;
kernLeft = C;
kernRight = E;
layers = (
{
hints = (
{
horizontal = 1;
place = (-17, 166);
place = (-17, 166);
type = Stem;
},
{
horizontal = 1;
place = (292, 155);
place = (292, 155);
type = Stem;
},
{
horizontal = 1;
place = (547, 168);
place = (547, 168);
type = Stem;
},
{
place = (29, 207);
place = (29, 207);
type = Stem;
},
{
horizontal = 1;
place = (0, 177);
place = (0, 177);
type = Stem;
},
{
horizontal = 1;
place = (562, 166);
place = (562, 166);
type = Stem;
},
{
horizontal = 1;
place = (0, 149);
place = (0, 149);
type = Stem;
}
);
layerId = m01;
shapes = (
{
closed = 1;
nodes = (
(403,-17,o),
(468,9,o),
(520,52,c),
(510,0,l),
(1006,0,l),
(1040,177,l),
(708,177,l),
(730,292,l),
(995,292,l),
(1025,447,l),
(761,447,l),
(779,547,l),
(1097,547,l),
(1130,715,l),
(606,715,l),
(595,658,l),
(553,706,o),
(493,728,o),
(416,728,cs),
(183,728,o),
(31,532,o),
(29,299,cs),
(27,86,o),
(163,-17,o),
(326,-17,cs)
);
},
{
closed = 1;
nodes = (
(236,415,o),
(290,561,o),
(412,562,cs),
(505,563,o),
(536,493,o),
(536,405,cs),
(536,287,o),
(484,149,o),
(361,149,cs),
(269,149,o),
(236,218,o),
(236,299,cs)
);
}
);
width = 1083;
}
);
note = OE;
unicode = 338;
},
{
glyphname = oe;
kernLeft = c;
kernRight = e;
layers = (
{
hints = (
{
horizontal = 1;
place = (-16, 126);
place = (-16, 126);
type = Stem;
},
{
horizontal = 1;
place = (209, 100);
place = (209, 100);
type = Stem;
},
{
horizontal = 1;
place = (398, 127);
place = (398, 127);
type = Stem;
},
{
place = (9, 187);
place = (9, 187);
type = Stem;
},
{
place = (723, 171);
place = (723, 171);
type = Stem;
},
{
horizontal = 1;
place = (-14, 127);
place = (-14, 127);
type = Stem;
},
{
horizontal = 1;
place = (-14, 166);
place = (-14, 166);
type = Stem;
},
{
horizontal = 1;
place = (401, 126);
place = (401, 126);
type = Stem;
}
);
layerId = m01;
shapes = (
{
closed = 1;
nodes = (
(333,-16,o),
(395,9,o),
(441,52,c),
(483,8,o),
(547,-14,o),
(621,-14,cs),
(683,-14,o),
(734,0,o),
(783,30,cs),
(827,57,o),
(860,97,o),
(877,152,c),
(697,152,l),
(684,124,o),
(656,113,o),
(626,113,cs),
(558,113,o),
(543,161,o),
(542,209,c),
(889,209,l),
(908,339,o),
(879,438,o),
(796,491,cs),
(759,514,o),
(715,527,o),
(657,527,cs),
(585,527,o),
(525,502,o),
(479,461,c),
(440,505,o),
(379,525,o),
(303,525,cs),
(122,525,o),
(9,385,o),
(9,211,cs),
(9,51,o),
(129,-16,o),
(255,-16,cs)
);
},
{
closed = 1;
nodes = (
(195,272,o),
(221,398,o),
(302,398,cs),
(356,398,o),
(368,349,o),
(368,304,cs),
(369,229,o),
(347,110,o),
(265,110,cs),
(212,110,o),
(196,155,o),
(196,199,cs)
);
},
{
closed = 1;
nodes = (
(703,401,o),
(725,359,o),
(723,309,c),
(555,309,l),
(573,377,o),
(611,401,o),
(649,401,cs)
);
}
);
width = 904;
}
);
note = oe;
unicode = 339;
},
{
glyphname = endash;
kernLeft = hyphen;
kernRight = hyphen;
layers = (
{
hints = (
{
horizontal = 1;
place = (174, 161);
place = (174, 161);
type = Stem;
},
{
place = (24, 527);
place = (24, 527);
type = Stem;
}
);
layerId = m01;
shapes = (
{
closed = 1;
nodes = (
(24,174,l),
(519,174,l),
(551,335,l),
(56,335,l)
);
}
);
width = 578;
}
);
note = endash;
unicode = 8211;
},
{
glyphname = emdash;
kernLeft = hyphen;
kernRight = hyphen;
layers = (
{
hints = (
{
horizontal = 1;
place = (174, 161);
place = (174, 161);
type = Stem;
},
{
place = (24, 911);
place = (24, 911);
type = Stem;
}
);
layerId = m01;
shapes = (
{
closed = 1;
nodes = (
(24,174,l),
(903,174,l),
(935,335,l),
(56,335,l)
);
}
);
width = 961;
}
);
note = emdash;
unicode = 8212;
},
{
glyphname = quotedblleft;
kernLeft = quotedblleft;
kernRight = quotedblleft;
layers = (
{
hints = (
{
horizontal = 1;
place = (391, 168);
place = (391, 168);
type = Stem;
},
{
horizontal = 1;
place = (718, -20);
target = down;
type = TopGhost;
},
{
place = (61, 446);
place = (61, 446);
type = Stem;
}
);
layerId = m01;
shapes = (
{
closed = 1;
nodes = (
(507,718,l),
(448,716,o),
(397,698,o),
(365,666,cs),
(336,637,o),
(320,597,o),
(309,539,cs),
(280,391,l),
(440,391,l),
(472,559,l),
(403,559,l),
(411,609,o),
(444,643,o),
(493,648,c)
);
},
{
closed = 1;
nodes = (
(288,718,l),
(229,716,o),
(178,698,o),
(146,666,cs),
(117,637,o),
(101,597,o),
(90,539,cs),
(61,391,l),
(221,391,l),
(253,559,l),
(184,559,l),
(192,609,o),
(225,643,o),
(274,648,c)
);
}
);
width = 449;
}
);
note = quotedblleft;
unicode = 8220;
},
{
glyphname = quotedblright;
kernLeft = quotedblright;
kernRight = quotedblright;
layers = (
{
hints = (
{
horizontal = 1;
place = (547, 168);
place = (547, 168);
type = Stem;
},
{
place = (56, 446);
place = (56, 446);
type = Stem;
}
);
layerId = m01;
shapes = (
{
closed = 1;
nodes = (
(56,388,l),
(115,390,o),
(166,408,o),
(198,440,cs),
(227,469,o),
(243,509,o),
(254,567,cs),
(283,715,l),
(123,715,l),
(91,547,l),
(160,547,l),
(152,497,o),
(119,463,o),
(70,458,c)
);
},
{
closed = 1;
nodes = (
(275,388,l),
(334,390,o),
(385,408,o),
(417,440,cs),
(446,469,o),
(462,509,o),
(473,567,cs),
(502,715,l),
(342,715,l),
(310,547,l),
(379,547,l),
(371,497,o),
(338,463,o),
(289,458,c)
);
}
);
width = 449;
}
);
note = quotedblright;
unicode = 8221;
},
{
glyphname = quoteleft;
kernLeft = quotedblleft;
kernRight = quotedblleft;
layers = (
{
hints = (
{
horizontal = 1;
place = (391, 168);
place = (391, 168);
type = Stem;
},
{
horizontal = 1;
place = (718, -20);
target = down;
type = TopGhost;
},
{
place = (61, 227);
place = (61, 227);
type = Stem;
}
);
layerId = m01;
shapes = (
{
closed = 1;
nodes = (
(288,718,l),
(229,716,o),
(178,698,o),
(146,666,cs),
(117,637,o),
(101,597,o),
(90,539,cs),
(61,391,l),
(221,391,l),
(253,559,l),
(184,559,l),
(192,609,o),
(225,643,o),
(274,648,c)
);
}
);
width = 230;
}
);
note = quoteleft;
unicode = 8216;
},
{
glyphname = quoteright;
kernLeft = quotedblright;
kernRight = quotedblright;
layers = (
{
hints = (
{
horizontal = 1;
place = (547, 168);
place = (547, 168);
type = Stem;
},
{
place = (56, 227);
place = (56, 227);
type = Stem;
}
);
layerId = m01;
shapes = (
{
closed = 1;
nodes = (
(56,388,l),
(115,390,o),
(166,408,o),
(198,440,cs),
(227,469,o),
(243,509,o),
(254,567,cs),
(283,715,l),
(123,715,l),
(91,547,l),
(160,547,l),
(152,497,o),
(119,463,o),
(70,458,c)
);
}
);
width = 230;
}
);
note = quoteright;
unicode = 8217;
},
{
glyphname = divide;
kernLeft = minus;
kernRight = minus;
layers = (
{
hints = (
{
place = (44, 165);
place = (44, 165);
type = Stem;
},
{
place = (254, 153);
place = (254, 153);
type = Stem;
},
{
place = (452, 165);
place = (452, 165);
type = Stem;
},
{
place = (43, 496);
place = (43, 496);
type = Stem;
}
);
layerId = m01;
shapes = (
{
closed = 1;
nodes = (
(43,254,l),
(509,254,l),
(539,407,l),
(73,407,l)
);
},
{
closed = 1;
nodes = (
(218,452,l),
(410,452,l),
(442,617,l),
(250,617,l)
);
},
{
closed = 1;
nodes = (
(139,44,l),
(331,44,l),
(363,209,l),
(171,209,l)
);
}
);
width = 554;
}
);
note = divide;
unicode = 247;
},
{
glyphname = lozenge;
layers = (
{
hints = (
{
horizontal = 1;
place = (0, 21);
target = up;
type = BottomGhost;
},
{
horizontal = 1;
place = (715, -20);
target = down;
type = TopGhost;
},
{
place = (25, 604);
place = (25, 604);
type = Stem;
},
{
horizontal = 1;
place = (0, 155);
place = (0, 155);
type = Stem;
},
{
horizontal = 1;
place = (560, 155);
place = (560, 155);
type = Stem;
}
);
layerId = m01;
shapes = (
{
closed = 1;
nodes = (
(427,715,l),
(226,715,l),
(25,358,l),
(227,0,l),
(428,0,l),
(629,357,l)
);
},
{
closed = 1;
nodes = (
(325,560,l),
(327,560,l),
(433,354,l),
(329,155,l),
(327,155,l),
(220,360,l)
);
}
);
width = 632;
}
);
note = lozenge;
unicode = 9674;
},
{
glyphname = ydieresis;
kernLeft = yacute;
kernRight = yacute;
layers = (
{
hints = (
{
horizontal = 1;
place = (-169, 146);
place = (-169, 146);
type = Stem;
},
{
horizontal = 1;
place = (510, -20);
target = down;
type = TopGhost;
},
{
horizontal = 1;
place = (572, 143);
place = (572, 143);
type = Stem;
},
{
place = (-17, 625);
place = (-17, 625);
type = Stem;
}
);
layerId = m01;
shapes = (
{
closed = 1;
nodes = (
(-17,-169,l),
(115,-169,ls),
(216,-169,o),
(284,-122,o),
(333,-27,cs),
(608,510,l),
(421,510,l),
(325,305,ls),
(300,252,o),
(272,180,o),
(272,180,c),
(270,180,l),
(270,180,o),
(268,258,o),
(262,311,cs),
(241,510,l),
(47,510,l),
(129,88,ls),
(134,64,o),
(138,42,o),
(138,26,cs),
(138,-12,o),
(110,-23,o),
(77,-23,cs),
(11,-23,l)
);
},
{
closed = 1;
nodes = (
(360,572,l),
(535,572,l),
(562,715,l),
(387,715,l)
);
},
{
closed = 1;
nodes = (
(135,572,l),
(310,572,l),
(337,715,l),
(162,715,l)
);
}
);
width = 553;
}
);
note = ydieresis;
unicode = 255;
},
{
glyphname = Ydieresis;
kernLeft = Yacute;
kernRight = Yacute;
layers = (
{
hints = (
{
horizontal = 1;
place = (0, 21);
target = up;
type = BottomGhost;
},
{
horizontal = 1;
place = (715, -20);
target = down;
type = TopGhost;
},
{
horizontal = 1;
place = (752, 143);
place = (752, 143);
type = Stem;
},
{
place = (81, 685);
place = (81, 685);
type = Stem;
}
);
layerId = m01;
shapes = (
{
closed = 1;
nodes = (
(184,0,l),
(390,0,l),
(437,245,l),
(766,715,l),
(544,715,l),
(441,556,ls),
(405,501,o),
(370,440,o),
(370,440,c),
(368,440,l),
(368,440,o),
(359,501,o),
(343,556,cs),
(301,715,l),
(81,715,l),
(232,253,l)
);
},
{
closed = 1;
nodes = (
(447,752,l),
(622,752,l),
(649,895,l),
(474,895,l)
);
},
{
closed = 1;
nodes = (
(222,752,l),
(397,752,l),
(424,895,l),
(249,895,l)
);
}
);
width = 673;
}
);
note = Ydieresis;
unicode = 376;
},
{
glyphname = fraction;
layers = (
{
hints = (
{
horizontal = 1;
place = (0, 21);
target = up;
type = BottomGhost;
},
{
horizontal = 1;
place = (715, -20);
target = down;
type = TopGhost;
},
{
place = (-208, 772);
place = (-208, 772);
type = Stem;
}
);
layerId = m01;
shapes = (
{
closed = 1;
nodes = (
(-208,0,l),
(-96,0,l),
(564,715,l),
(453,715,l)
);
}
);
width = 319;
}
);
note = fraction;
unicode = 8260;
},
{
glyphname = Euro;
layers = (
{
hints = (
{
horizontal = 1;
place = (-16, 153);
place = (-16, 153);
type = Stem;
},
{
horizontal = 1;
place = (242, 70);
place = (242, 70);
type = Stem;
},
{
horizontal = 1;
place = (363, 70);
place = (363, 70);
type = Stem;
},
{
horizontal = 1;
place = (547, 152);
place = (547, 152);
type = Stem;
},
{
place = (492, 190);
place = (492, 190);
type = Stem;
}
);
layerId = m01;
shapes = (
{
closed = 1;
nodes = (
(46,433,l),
(32,363,l),
(71,363,l),
(68,346,o),
(66,330,o),
(65,312,c),
(22,312,l),
(9,242,l),
(65,242,l),
(75,72,o),
(187,-16,o),
(347,-16,cs),
(509,-15,o),
(623,74,o),
(660,248,c),
(468,248,l),
(450,182,o),
(412,137,o),
(353,137,cs),
(292,137,o),
(265,177,o),
(263,242,c),
(390,242,l),
(403,312,l),
(265,312,l),
(266,330,o),
(268,347,o),
(271,363,c),
(413,363,l),
(427,433,l),
(288,433,l),
(319,521,o),
(372,547,o),
(412,547,cs),
(476,547,o),
(495,494,o),
(492,439,c),
(682,439,l),
(685,607,o),
(592,699,o),
(420,699,cs),
(293,699,o),
(143,619,o),
(87,433,c)
);
}
);
width = 661;
}
);
note = Euro;
unicode = 8364;
},
{
glyphname = guilsinglleft;
kernLeft = guillemotleft;
kernRight = guillemotleft;
layers = (
{
hints = (
{
horizontal = 1;
place = (12, 465);
place = (12, 465);
type = Stem;
},
{
place = (14, 235);
place = (14, 235);
type = Stem;
}
);
layerId = m01;
shapes = (
{
closed = 1;
nodes = (
(159,12,l),
(191,174,l),
(123,238,l),
(123,240,l),
(216,304,l),
(249,477,l),
(49,340,l),
(14,158,l)
);
}
);
width = 248;
}
);
note = guilsinglleft;
unicode = 8249;
},
{
glyphname = guilsinglright;
kernLeft = guillemotright;
kernRight = guillemotright;
layers = (
{
hints = (
{
horizontal = 1;
place = (12, 465);
place = (12, 465);
type = Stem;
},
{
place = (-7, 235);
place = (-7, 235);
type = Stem;
}
);
layerId = m01;
shapes = (
{
closed = 1;
nodes = (
(83,477,l),
(51,315,l),
(119,251,l),
(119,249,l),
(26,185,l),
(-7,12,l),
(193,149,l),
(228,331,l)
);
}
);
width = 248;
}
);
note = guilsinglright;
unicode = 8250;
},
{
glyphname = fi;
kernLeft = f;
layers = (
{
hints = (
{
horizontal = 1;
place = (0, 21);
target = up;
type = BottomGhost;
},
{
horizontal = 1;
place = (397, 113);
place = (397, 113);
type = Stem;
},
{
horizontal = 1;
place = (572, 143);
place = (572, 143);
type = Stem;
},
{
place = (19, 651);
place = (19, 651);
type = Stem;
},
{
horizontal = 1;
place = (587, 128);
place = (587, 128);
type = Stem;
},
{
horizontal = 1;
place = (708, 7);
place = (708, 7);
type = Stem;
}
);
layerId = m01;
shapes = (
{
closed = 1;
nodes = (
(33,397,l),
(96,397,l),
(19,0,l),
(205,0,l),
(281,397,l),
(379,397,l),
(402,510,l),
(304,510,l),
(307,528,ls),
(315,577,o),
(348,587,o),
(390,587,cs),
(398,587,o),
(405,587,o),
(416,586,c),
(440,708,l),
(412,712,o),
(383,715,o),
(348,715,cs),
(289,715,o),
(232,706,o),
(190,672,cs),
(157,646,o),
(136,602,o),
(125,546,cs),
(118,510,l),
(56,510,l)
);
},
{
closed = 1;
nodes = (
(346,0,l),
(532,0,l),
(631,510,l),
(445,510,l)
);
},
{
closed = 1;
nodes = (
(457,572,l),
(643,572,l),
(670,715,l),
(484,715,l)
);
}
);
width = 616;
}
);
note = fi;
unicode = 64257;
},
{
glyphname = fl;
kernLeft = f;
layers = (
{
hints = (
{
horizontal = 1;
place = (0, 21);
target = up;
type = BottomGhost;
},
{
horizontal = 1;
place = (397, 113);
place = (397, 113);
type = Stem;
},
{
horizontal = 1;
place = (587, 128);
place = (587, 128);
type = Stem;
},
{
place = (19, 656);
place = (19, 656);
type = Stem;
},
{
horizontal = 1;
place = (708, 7);
place = (708, 7);
type = Stem;
}
);
layerId = m01;
shapes = (
{
closed = 1;
nodes = (
(33,397,l),
(96,397,l),
(19,0,l),
(205,0,l),
(281,397,l),
(379,397,l),
(402,510,l),
(304,510,l),
(307,528,ls),
(315,577,o),
(348,587,o),
(390,587,cs),
(398,587,o),
(405,587,o),
(416,586,c),
(440,708,l),
(412,712,o),
(383,715,o),
(348,715,cs),
(289,715,o),
(232,706,o),
(190,672,cs),
(157,646,o),
(136,602,o),
(125,546,cs),
(118,510,l),
(56,510,l)
);
},
{
closed = 1;
nodes = (
(346,0,l),
(537,0,l),
(675,715,l),
(484,715,l)
);
}
);
width = 621;
}
);
note = fl;
unicode = 64258;
},
{
glyphname = daggerdbl;
layers = (
{
hints = (
{
horizontal = 1;
place = (-169, 21);
target = up;
type = BottomGhost;
},
{
horizontal = 1;
place = (36, 160);
place = (36, 160);
type = Stem;
},
{
horizontal = 1;
place = (350, 160);
place = (350, 160);
type = Stem;
},
{
horizontal = 1;
place = (715, -20);
target = down;
type = TopGhost;
},
{
place = (-11, 630);
place = (-11, 630);
type = Stem;
}
);
layerId = m01;
shapes = (
{
closed = 1;
nodes = (
(50,350,l),
(216,350,l),
(187,196,l),
(21,196,l),
(-11,36,l),
(155,36,l),
(116,-169,l),
(321,-169,l),
(360,36,l),
(526,36,l),
(558,196,l),
(392,196,l),
(421,350,l),
(587,350,l),
(619,510,l),
(453,510,l),
(492,715,l),
(287,715,l),
(248,510,l),
(82,510,l)
);
}
);
width = 604;
}
);
note = daggerdbl;
unicode = 8225;
},
{
glyphname = periodcentered;
layers = (
{
hints = (
{
horizontal = 1;
place = (224, 191);
place = (224, 191);
type = Stem;
},
{
place = (21, 228);
place = (21, 228);
type = Stem;
}
);
layerId = m01;
shapes = (
{
closed = 1;
nodes = (
(21,224,l),
(212,224,l),
(249,415,l),
(58,415,l)
);
}
);
width = 247;
}
);
note = periodcentered;
unicode = 183;
},
{
glyphname = quotesinglbase;
kernRight = quotesinglbase;
layers = (
{
hints = (
{
horizontal = 1;
place = (0, 168);
place = (0, 168);
type = Stem;
},
{
place = (-50, 227);
place = (-50, 227);
type = Stem;
}
);
layerId = m01;
shapes = (
{
closed = 1;
nodes = (
(-50,-159,l),
(9,-157,o),
(60,-139,o),
(92,-107,cs),
(121,-78,o),
(137,-38,o),
(148,20,cs),
(177,168,l),
(17,168,l),
(-15,0,l),
(54,0,l),
(46,-50,o),
(13,-84,o),
(-36,-89,c)
);
}
);
width = 230;
}
);
note = quotesinglbase;
unicode = 8218;
},
{
glyphname = quotedblbase;
kernRight = quotesinglbase;
layers = (
{
hints = (
{
horizontal = 1;
place = (0, 168);
place = (0, 168);
type = Stem;
},
{
place = (-50, 446);
place = (-50, 446);
type = Stem;
}
);
layerId = m01;
shapes = (
{
closed = 1;
nodes = (
(-50,-159,l),
(9,-157,o),
(60,-139,o),
(92,-107,cs),
(121,-78,o),
(137,-38,o),
(148,20,cs),
(177,168,l),
(17,168,l),
(-15,0,l),
(54,0,l),
(46,-50,o),
(13,-84,o),
(-36,-89,c)
);
},
{
closed = 1;
nodes = (
(169,-159,l),
(228,-157,o),
(279,-139,o),
(311,-107,cs),
(340,-78,o),
(356,-38,o),
(367,20,cs),
(396,168,l),
(236,168,l),
(204,0,l),
(273,0,l),
(265,-50,o),
(232,-84,o),
(183,-89,c)
);
}
);
width = 449;
}
);
note = quotedblbase;
unicode = 8222;
},
{
glyphname = perthousand;
kernLeft = percent;
layers = (
{
hints = (
{
horizontal = 1;
place = (297, 95);
place = (297, 95);
type = Stem;
},
{
horizontal = 1;
place = (606, 93);
place = (606, 93);
type = Stem;
},
{
place = (64, 134);
place = (64, 134);
type = Stem;
},
{
place = (308, 136);
place = (308, 136);
type = Stem;
},
{
horizontal = 1;
place = (-17, 95);
place = (-17, 95);
type = Stem;
},
{
horizontal = 1;
place = (292, 93);
place = (292, 93);
type = Stem;
},
{
place = (472, 134);
place = (472, 134);
type = Stem;
},
{
place = (716, 136);
place = (716, 136);
type = Stem;
},
{
place = (876, 134);
place = (876, 134);
type = Stem;
},
{
place = (1120, 136);
place = (1120, 136);
type = Stem;
},
{
horizontal = 1;
place = (0, 21);
target = up;
type = BottomGhost;
},
{
horizontal = 1;
place = (686, -20);
target = down;
type = TopGhost;
}
);
layerId = m01;
shapes = (
{
closed = 1;
nodes = (
(363,297,o),
(444,408,o),
(444,530,cs),
(444,643,o),
(368,699,o),
(275,699,cs),
(145,699,o),
(64,587,o),
(64,466,cs),
(64,363,o),
(133,297,o),
(232,297,cs)
);
},
{
closed = 1;
nodes = (
(198,498,o),
(216,606,o),
(269,606,cs),
(297,606,o),
(308,582,o),
(308,545,cs),
(308,502,o),
(292,392,o),
(240,392,cs),
(204,392,o),
(198,426,o),
(198,454,cs)
);
},
{
closed = 1;
nodes = (
(771,-17,o),
(852,94,o),
(852,216,cs),
(852,329,o),
(776,385,o),
(683,385,cs),
(553,385,o),
(472,273,o),
(472,152,cs),
(472,49,o),
(541,-17,o),
(640,-17,cs)
);
},
{
closed = 1;
nodes = (
(606,184,o),
(624,292,o),
(677,292,cs),
(705,292,o),
(716,268,o),
(716,231,cs),
(716,188,o),
(700,78,o),
(648,78,cs),
(612,78,o),
(606,112,o),
(606,140,cs)
);
},
{
closed = 1;
nodes = (
(1175,-17,o),
(1256,94,o),
(1256,216,cs),
(1256,329,o),
(1180,385,o),
(1087,385,cs),
(957,385,o),
(876,273,o),
(876,152,cs),
(876,49,o),
(945,-17,o),
(1044,-17,cs)
);
},
{
closed = 1;
nodes = (
(1010,184,o),
(1028,292,o),
(1081,292,cs),
(1109,292,o),
(1120,268,o),
(1120,231,cs),
(1120,188,o),
(1104,78,o),
(1052,78,cs),
(1016,78,o),
(1010,112,o),
(1010,140,cs)
);
},
{
closed = 1;
nodes = (
(148,0,l),
(251,0,l),
(769,686,l),
(666,686,l)
);
}
);
width = 1292;
}
);
note = perthousand;
unicode = 8240;
},
{
glyphname = Acircumflex;
kernLeft = A;
kernRight = A;
layers = (
{
hints = (
{
horizontal = 1;
place = (0, 21);
target = up;
type = BottomGhost;
},
{
horizontal = 1;
place = (106, 142);
place = (106, 142);
type = Stem;
},
{
horizontal = 1;
place = (715, -20);
target = down;
type = TopGhost;
},
{
horizontal = 1;
place = (746, 137);
place = (746, 137);
type = Stem;
},
{
place = (-55, 730);
place = (-55, 730);
type = Stem;
}
);
layerId = m01;
shapes = (
{
closed = 1;
nodes = (
(460,0,l),
(675,0,l),
(543,715,l),
(334,715,l),
(-55,0,l),
(153,0,l),
(206,106,l),
(445,106,l)
);
},
{
closed = 1;
nodes = (
(235,746,l),
(399,746,l),
(446,797,l),
(448,797,l),
(483,746,l),
(632,746,l),
(539,883,l),
(374,883,l)
);
},
{
closed = 1;
nodes = (
(350,391,ls),
(367,426,o),
(393,483,o),
(393,483,c),
(395,483,l),
(395,483,o),
(400,426,o),
(405,391,cs),
(425,248,l),
(278,248,l)
);
}
);
width = 718;
}
);
note = Acircumflex;
unicode = 194;
},
{
glyphname = Ecircumflex;
kernRight = E;
layers = (
{
hints = (
{
horizontal = 1;
place = (0, 177);
place = (0, 177);
type = Stem;
},
{
horizontal = 1;
place = (292, 155);
place = (292, 155);
type = Stem;
},
{
horizontal = 1;
place = (547, 168);
place = (547, 168);
type = Stem;
},
{
horizontal = 1;
place = (746, 137);
place = (746, 137);
type = Stem;
},
{
place = (-8, 678);
place = (-8, 678);
type = Stem;
}
);
layerId = m01;
shapes = (
{
closed = 1;
nodes = (
(-8,0,l),
(546,0,l),
(580,177,l),
(232,177,l),
(254,292,l),
(535,292,l),
(565,447,l),
(285,447,l),
(303,547,l),
(637,547,l),
(670,715,l),
(130,715,l)
);
},
{
closed = 1;
nodes = (
(207,746,l),
(371,746,l),
(418,797,l),
(420,797,l),
(455,746,l),
(604,746,l),
(511,883,l),
(346,883,l)
);
}
);
width = 623;
}
);
note = Ecircumflex;
unicode = 202;
},
{
glyphname = Aacute;
kernLeft = A;
kernRight = A;
layers = (
{
hints = (
{
horizontal = 1;
place = (0, 21);
target = up;
type = BottomGhost;
},
{
horizontal = 1;
place = (106, 142);
place = (106, 142);
type = Stem;
},
{
horizontal = 1;
place = (715, -20);
target = down;
type = TopGhost;
},
{
horizontal = 1;
place = (746, 135);
place = (746, 135);
type = Stem;
},
{
place = (-55, 730);
place = (-55, 730);
type = Stem;
}
);
layerId = m01;
shapes = (
{
closed = 1;
nodes = (
(460,0,l),
(675,0,l),
(543,715,l),
(334,715,l),
(-55,0,l),
(153,0,l),
(206,106,l),
(445,106,l)
);
},
{
closed = 1;
nodes = (
(641,881,l),
(433,881,l),
(369,746,l),
(509,746,l)
);
},
{
closed = 1;
nodes = (
(350,391,ls),
(367,426,o),
(393,483,o),
(393,483,c),
(395,483,l),
(395,483,o),
(400,426,o),
(405,391,cs),
(425,248,l),
(278,248,l)
);
}
);
width = 718;
}
);
note = Aacute;
unicode = 193;
},
{
glyphname = Edieresis;
kernRight = E;
layers = (
{
hints = (
{
horizontal = 1;
place = (0, 177);
place = (0, 177);
type = Stem;
},
{
horizontal = 1;
place = (292, 155);
place = (292, 155);
type = Stem;
},
{
horizontal = 1;
place = (547, 168);
place = (547, 168);
type = Stem;
},
{
horizontal = 1;
place = (752, 143);
place = (752, 143);
type = Stem;
},
{
place = (-8, 678);
place = (-8, 678);
type = Stem;
}
);
layerId = m01;
shapes = (
{
closed = 1;
nodes = (
(-8,0,l),
(546,0,l),
(580,177,l),
(232,177,l),
(254,292,l),
(535,292,l),
(565,447,l),
(285,447,l),
(303,547,l),
(637,547,l),
(670,715,l),
(130,715,l)
);
},
{
closed = 1;
nodes = (
(436,752,l),
(611,752,l),
(638,895,l),
(463,895,l)
);
},
{
closed = 1;
nodes = (
(211,752,l),
(386,752,l),
(413,895,l),
(238,895,l)
);
}
);
width = 623;
}
);
note = Edieresis;
unicode = 203;
},
{
glyphname = Egrave;
kernRight = E;
layers = (
{
hints = (
{
horizontal = 1;
place = (0, 177);
place = (0, 177);
type = Stem;
},
{
horizontal = 1;
place = (292, 155);
place = (292, 155);
type = Stem;
},
{
horizontal = 1;
place = (547, 168);
place = (547, 168);
type = Stem;
},
{
horizontal = 1;
place = (746, 135);
place = (746, 135);
type = Stem;
},
{
place = (-8, 678);
place = (-8, 678);
type = Stem;
}
);
layerId = m01;
shapes = (
{
closed = 1;
nodes = (
(-8,0,l),
(546,0,l),
(580,177,l),
(232,177,l),
(254,292,l),
(535,292,l),
(565,447,l),
(285,447,l),
(303,547,l),
(637,547,l),
(670,715,l),
(130,715,l)
);
},
{
closed = 1;
nodes = (
(356,746,l),
(496,746,l),
(466,881,l),
(262,881,l)
);
}
);
width = 623;
}
);
note = Egrave;
unicode = 200;
},
{
glyphname = Iacute;
layers = (
{
hints = (
{
horizontal = 1;
place = (0, 21);
target = up;
type = BottomGhost;
},
{
horizontal = 1;
place = (715, -20);
target = down;
type = TopGhost;
},
{
horizontal = 1;
place = (746, 135);
place = (746, 135);
type = Stem;
},
{
place = (-8, 434);
place = (-8, 434);
type = Stem;
}
);
layerId = m01;
shapes = (
{
closed = 1;
nodes = (
(-8,0,l),
(198,0,l),
(336,715,l),
(130,715,l)
);
},
{
closed = 1;
nodes = (
(426,881,l),
(218,881,l),
(154,746,l),
(294,746,l)
);
}
);
width = 290;
}
);
note = Iacute;
unicode = 205;
},
{
glyphname = Icircumflex;
layers = (
{
hints = (
{
horizontal = 1;
place = (0, 21);
target = up;
type = BottomGhost;
},
{
horizontal = 1;
place = (715, -20);
target = down;
type = TopGhost;
},
{
horizontal = 1;
place = (746, 137);
place = (746, 137);
type = Stem;
},
{
place = (-8, 436);
place = (-8, 436);
type = Stem;
}
);
layerId = m01;
shapes = (
{
closed = 1;
nodes = (
(-8,0,l),
(198,0,l),
(336,715,l),
(130,715,l)
);
},
{
closed = 1;
nodes = (
(31,746,l),
(195,746,l),
(242,797,l),
(244,797,l),
(279,746,l),
(428,746,l),
(335,883,l),
(170,883,l)
);
}
);
width = 290;
}
);
note = Icircumflex;
unicode = 206;
},
{
glyphname = Idieresis;
layers = (
{
hints = (
{
horizontal = 1;
place = (0, 21);
target = up;
type = BottomGhost;
},
{
horizontal = 1;
place = (715, -20);
target = down;
type = TopGhost;
},
{
horizontal = 1;
place = (752, 143);
place = (752, 143);
type = Stem;
},
{
place = (-8, 474);
place = (-8, 474);
type = Stem;
}
);
layerId = m01;
shapes = (
{
closed = 1;
nodes = (
(-8,0,l),
(198,0,l),
(336,715,l),
(130,715,l)
);
},
{
closed = 1;
nodes = (
(264,752,l),
(439,752,l),
(466,895,l),
(291,895,l)
);
},
{
closed = 1;
nodes = (
(39,752,l),
(214,752,l),
(241,895,l),
(66,895,l)
);
}
);
width = 290;
}
);
note = Idieresis;
unicode = 207;
},
{
glyphname = Igrave;
layers = (
{
hints = (
{
horizontal = 1;
place = (0, 21);
target = up;
type = BottomGhost;
},
{
horizontal = 1;
place = (715, -20);
target = down;
type = TopGhost;
},
{
horizontal = 1;
place = (746, 135);
place = (746, 135);
type = Stem;
},
{
place = (-8, 344);
place = (-8, 344);
type = Stem;
}
);
layerId = m01;
shapes = (
{
closed = 1;
nodes = (
(-8,0,l),
(198,0,l),
(336,715,l),
(130,715,l)
);
},
{
closed = 1;
nodes = (
(176,746,l),
(316,746,l),
(286,881,l),
(82,881,l)
);
}
);
width = 290;
}
);
note = Igrave;
unicode = 204;
},
{
glyphname = Oacute;
kernLeft = C;
kernRight = O;
layers = (
{
hints = (
{
horizontal = 1;
place = (-17, 166);
place = (-17, 166);
type = Stem;
},
{
horizontal = 1;
place = (562, 166);
place = (562, 166);
type = Stem;
},
{
place = (29, 207);
place = (29, 207);
type = Stem;
},
{
place = (542, 207);
place = (542, 207);
type = Stem;
},
{
horizontal = 1;
place = (746, 135);
place = (746, 135);
type = Stem;
}
);
layerId = m01;
shapes = (
{
closed = 1;
nodes = (
(594,-16,o),
(749,175,o),
(749,404,cs),
(749,614,o),
(620,728,o),
(423,728,cs),
(187,728,o),
(31,532,o),
(29,299,cs),
(27,86,o),
(176,-17,o),
(362,-17,cs)
);
},
{
closed = 1;
nodes = (
(236,415,o),
(291,561,o),
(416,562,cs),
(509,562,o),
(542,493,o),
(542,405,cs),
(542,287,o),
(488,149,o),
(365,149,cs),
(273,149,o),
(236,218,o),
(236,299,cs)
);
},
{
closed = 1;
nodes = (
(641,881,l),
(433,881,l),
(369,746,l),
(509,746,l)
);
}
);
width = 740;
}
);
note = Oacute;
unicode = 211;
},
{
glyphname = Ocircumflex;
kernLeft = C;
kernRight = O;
layers = (
{
hints = (
{
horizontal = 1;
place = (-17, 166);
place = (-17, 166);
type = Stem;
},
{
horizontal = 1;
place = (562, 166);
place = (562, 166);
type = Stem;
},
{
place = (29, 207);
place = (29, 207);
type = Stem;
},
{
place = (542, 207);
place = (542, 207);
type = Stem;
},
{
horizontal = 1;
place = (746, 137);
place = (746, 137);
type = Stem;
}
);
layerId = m01;
shapes = (
{
closed = 1;
nodes = (
(594,-16,o),
(749,175,o),
(749,404,cs),
(749,614,o),
(620,728,o),
(423,728,cs),
(187,728,o),
(31,532,o),
(29,299,cs),
(27,86,o),
(176,-17,o),
(362,-17,cs)
);
},
{
closed = 1;
nodes = (
(236,415,o),
(291,561,o),
(416,562,cs),
(509,562,o),
(542,493,o),
(542,405,cs),
(542,287,o),
(488,149,o),
(365,149,cs),
(273,149,o),
(236,218,o),
(236,299,cs)
);
},
{
closed = 1;
nodes = (
(244,746,l),
(408,746,l),
(455,797,l),
(457,797,l),
(492,746,l),
(641,746,l),
(548,883,l),
(383,883,l)
);
}
);
width = 740;
}
);
note = Ocircumflex;
unicode = 212;
},
{
glyphname = Ograve;
kernLeft = C;
kernRight = O;
layers = (
{
hints = (
{
horizontal = 1;
place = (-17, 166);
place = (-17, 166);
type = Stem;
},
{
horizontal = 1;
place = (562, 166);
place = (562, 166);
type = Stem;
},
{
place = (29, 207);
place = (29, 207);
type = Stem;
},
{
place = (542, 207);
place = (542, 207);
type = Stem;
},
{
horizontal = 1;
place = (746, 135);
place = (746, 135);
type = Stem;
}
);
layerId = m01;
shapes = (
{
closed = 1;
nodes = (
(594,-16,o),
(749,175,o),
(749,404,cs),
(749,614,o),
(620,728,o),
(423,728,cs),
(187,728,o),
(31,532,o),
(29,299,cs),
(27,86,o),
(176,-17,o),
(362,-17,cs)
);
},
{
closed = 1;
nodes = (
(236,415,o),
(291,561,o),
(416,562,cs),
(509,562,o),
(542,493,o),
(542,405,cs),
(542,287,o),
(488,149,o),
(365,149,cs),
(273,149,o),
(236,218,o),
(236,299,cs)
);
},
{
closed = 1;
nodes = (
(380,746,l),
(520,746,l),
(490,881,l),
(286,881,l)
);
}
);
width = 740;
}
);
note = Ograve;
unicode = 210;
},
{
glyphname = Uacute;
kernLeft = U;
kernRight = U;
layers = (
{
hints = (
{
horizontal = 1;
place = (-13, 166);
place = (-13, 166);
type = Stem;
},
{
horizontal = 1;
place = (715, -20);
target = down;
type = TopGhost;
},
{
horizontal = 1;
place = (746, 135);
place = (746, 135);
type = Stem;
},
{
place = (36, 206);
place = (36, 206);
type = Stem;
}
);
layerId = m01;
shapes = (
{
closed = 1;
nodes = (
(526,-13,o),
(631,80,o),
(664,252,cs),
(753,715,l),
(548,715,l),
(459,257,ls),
(446,189,o),
(409,153,o),
(346,153,cs),
(265,153,o),
(231,198,o),
(245,271,cs),
(331,715,l),
(125,715,l),
(44,296,ls),
(1,74,o),
(146,-13,o),
(338,-13,cs)
);
},
{
closed = 1;
nodes = (
(639,881,l),
(431,881,l),
(367,746,l),
(507,746,l)
);
}
);
width = 703;
}
);
note = Uacute;
unicode = 218;
},
{
glyphname = Ucircumflex;
kernLeft = U;
kernRight = U;
layers = (
{
hints = (
{
horizontal = 1;
place = (-13, 166);
place = (-13, 166);
type = Stem;
},
{
horizontal = 1;
place = (715, -20);
target = down;
type = TopGhost;
},
{
horizontal = 1;
place = (746, 137);
place = (746, 137);
type = Stem;
},
{
place = (36, 206);
place = (36, 206);
type = Stem;
}
);
layerId = m01;
shapes = (
{
closed = 1;
nodes = (
(526,-13,o),
(631,80,o),
(664,252,cs),
(753,715,l),
(548,715,l),
(459,257,ls),
(446,189,o),
(409,153,o),
(346,153,cs),
(265,153,o),
(231,198,o),
(245,271,cs),
(331,715,l),
(125,715,l),
(44,296,ls),
(1,74,o),
(146,-13,o),
(338,-13,cs)
);
},
{
closed = 1;
nodes = (
(233,746,l),
(397,746,l),
(444,797,l),
(446,797,l),
(481,746,l),
(630,746,l),
(537,883,l),
(372,883,l)
);
}
);
width = 703;
}
);
note = Ucircumflex;
unicode = 219;
},
{
glyphname = Ugrave;
kernLeft = U;
kernRight = U;
layers = (
{
hints = (
{
horizontal = 1;
place = (-13, 166);
place = (-13, 166);
type = Stem;
},
{
horizontal = 1;
place = (715, -20);
target = down;
type = TopGhost;
},
{
horizontal = 1;
place = (746, 135);
place = (746, 135);
type = Stem;
},
{
place = (36, 206);
place = (36, 206);
type = Stem;
}
);
layerId = m01;
shapes = (
{
closed = 1;
nodes = (
(526,-13,o),
(631,80,o),
(664,252,cs),
(753,715,l),
(548,715,l),
(459,257,ls),
(446,189,o),
(409,153,o),
(346,153,cs),
(265,153,o),
(231,198,o),
(245,271,cs),
(331,715,l),
(125,715,l),
(44,296,ls),
(1,74,o),
(146,-13,o),
(338,-13,cs)
);
},
{
closed = 1;
nodes = (
(378,746,l),
(518,746,l),
(488,881,l),
(284,881,l)
);
}
);
width = 703;
}
);
note = Ugrave;
unicode = 217;
},
{
glyphname = dotlessi;
kernLeft = m;
kernRight = u;
layers = (
{
hints = (
{
horizontal = 1;
place = (0, 21);
target = up;
type = BottomGhost;
},
{
horizontal = 1;
place = (510, -20);
target = down;
type = TopGhost;
},
{
place = (-17, 285);
place = (-17, 285);
type = Stem;
}
);
layerId = m01;
shapes = (
{
closed = 1;
nodes = (
(-17,0,l),
(169,0,l),
(268,510,l),
(82,510,l)
);
}
);
width = 253;
}
);
note = dotlessi;
unicode = 305;
},
{
glyphname = circumflex;
layers = (
{
hints = (
{
horizontal = 1;
place = (566, 149);
place = (566, 149);
type = Stem;
},
{
place = (107, 397);
place = (107, 397);
type = Stem;
},
{
horizontal = 1;
place = (629, 86);
place = (629, 86);
type = Stem;
}
);
layerId = m01;
shapes = (
{
closed = 1;
nodes = (
(107,566,l),
(269,566,l),
(320,629,l),
(322,629,l),
(353,566,l),
(504,566,l),
(414,715,l),
(249,715,l)
);
}
);
width = 492;
}
);
note = circumflex;
unicode = 710;
},
{
glyphname = tilde;
layers = (
{
hints = (
{
horizontal = 1;
place = (564, 152);
place = (564, 152);
type = Stem;
},
{
place = (127, 384);
place = (127, 384);
type = Stem;
},
{
horizontal = 1;
place = (606, 110);
place = (606, 110);
type = Stem;
},
{
horizontal = 1;
place = (569, 109);
place = (569, 109);
type = Stem;
}
);
layerId = m01;
shapes = (
{
closed = 1;
nodes = (
(221,564,l),
(228,591,o),
(243,606,o),
(262,606,cs),
(295,606,o),
(316,569,o),
(380,569,cs),
(452,569,o),
(497,628,o),
(511,716,c),
(417,716,l),
(411,693,o),
(401,678,o),
(378,678,cs),
(346,678,o),
(324,716,o),
(266,716,cs),
(203,716,o),
(144,667,o),
(127,564,c)
);
}
);
width = 492;
}
);
note = tilde;
unicode = 732;
},
{
glyphname = macron;
layers = (
{
hints = (
{
horizontal = 1;
place = (581, 106);
place = (581, 106);
type = Stem;
},
{
place = (166, 305);
place = (166, 305);
type = Stem;
}
);
layerId = m01;
shapes = (
{
closed = 1;
nodes = (
(166,581,l),
(450,581,l),
(471,687,l),
(187,687,l)
);
}
);
width = 492;
}
);
note = macron;
unicode = 175;
},
{
glyphname = breve;
layers = (
{
hints = (
{
horizontal = 1;
place = (558, 158);
place = (558, 158);
type = Stem;
},
{
place = (178, 346);
place = (178, 346);
type = Stem;
},
{
horizontal = 1;
place = (558, 112);
place = (558, 112);
type = Stem;
}
);
layerId = m01;
shapes = (
{
closed = 1;
nodes = (
(437,558,o),
(512,612,o),
(524,716,c),
(420,716,l),
(415,693,o),
(388,670,o),
(346,670,cs),
(303,670,o),
(284,689,o),
(282,716,c),
(178,716,l),
(177,616,o),
(243,558,o),
(345,558,cs)
);
}
);
width = 492;
}
);
note = breve;
unicode = 728;
},
{
glyphname = dotaccent;
layers = (
{
hints = (
{
horizontal = 1;
place = (572, 143);
place = (572, 143);
type = Stem;
},
{
place = (214, 213);
place = (214, 213);
type = Stem;
}
);
layerId = m01;
shapes = (
{
closed = 1;
nodes = (
(214,572,l),
(400,572,l),
(427,715,l),
(241,715,l)
);
}
);
width = 492;
}
);
note = dotaccent;
unicode = 729;
},
{
glyphname = ring;
layers = (
{
hints = (
{
horizontal = 1;
place = (555, 64);
place = (555, 64);
type = Stem;
},
{
horizontal = 1;
place = (696, 64);
place = (696, 64);
type = Stem;
},
{
place = (217, 69);
place = (217, 69);
type = Stem;
},
{
place = (362, 69);
place = (362, 69);
type = Stem;
}
);
layerId = m01;
shapes = (
{
closed = 1;
nodes = (
(382,555,o),
(431,599,o),
(431,657,cs),
(431,715,o),
(382,760,o),
(324,760,cs),
(266,760,o),
(217,715,o),
(217,657,cs),
(217,599,o),
(266,555,o),
(324,555,cs)
);
},
{
closed = 1;
nodes = (
(301,619,o),
(286,637,o),
(286,657,cs),
(286,677,o),
(301,696,o),
(324,696,cs),
(347,696,o),
(362,677,o),
(362,657,cs),
(362,637,o),
(347,619,o),
(324,619,cs)
);
}
);
width = 492;
}
);
note = ring;
unicode = 730;
},
{
glyphname = cedilla;
layers = (
{
hints = (
{
horizontal = 1;
place = (-193, 51);
place = (-193, 51);
type = Stem;
},
{
horizontal = 1;
place = (-43, 43);
place = (-43, 43);
type = Stem;
},
{
place = (177, 104);
place = (177, 104);
type = Stem;
},
{
horizontal = 1;
place = (-90, 45);
place = (-90, 45);
type = Stem;
}
);
layerId = m01;
shapes = (
{
closed = 1;
nodes = (
(219,-193,o),
(281,-166,o),
(281,-108,cs),
(281,-63,o),
(245,-42,o),
(185,-45,c),
(185,-43,l),
(238,0,l),
(172,0,l),
(98,-71,l),
(114,-97,l),
(123,-93,o),
(136,-90,o),
(146,-90,cs),
(166,-90,o),
(177,-95,o),
(177,-112,cs),
(177,-135,o),
(151,-142,o),
(125,-142,cs),
(101,-142,o),
(76,-136,o),
(58,-127,c),
(36,-164,l),
(63,-182,o),
(101,-193,o),
(149,-193,cs)
);
}
);
width = 492;
}
);
note = cedilla;
unicode = 184;
},
{
glyphname = hungarumlaut;
layers = (
{
hints = (
{
horizontal = 1;
place = (566, 155);
place = (566, 155);
type = Stem;
},
{
place = (136, 468);
place = (136, 468);
type = Stem;
}
);
layerId = m01;
shapes = (
{
closed = 1;
nodes = (
(349,566,l),
(466,566,l),
(604,721,l),
(420,721,l)
);
},
{
closed = 1;
nodes = (
(136,566,l),
(253,566,l),
(391,721,l),
(207,721,l)
);
}
);
width = 492;
}
);
note = hungarumlaut;
unicode = 733;
},
{
glyphname = ogonek;
layers = (
{
hints = (
{
horizontal = 1;
place = (-179, 179);
place = (-179, 179);
type = Stem;
},
{
place = (36, 163);
place = (36, 163);
type = Stem;
},
{
horizontal = 1;
place = (-179, 99);
place = (-179, 99);
type = Stem;
}
);
layerId = m01;
shapes = (
{
closed = 1;
nodes = (
(184,-179,o),
(206,-175,o),
(221,-170,c),
(239,-78,l),
(234,-79,o),
(228,-80,o),
(221,-80,cs),
(207,-80,o),
(199,-72,o),
(199,-59,cs),
(199,-36,o),
(225,-14,o),
(246,0,c),
(128,0,l),
(83,-19,o),
(36,-47,o),
(36,-97,cs),
(36,-144,o),
(72,-179,o),
(159,-179,cs)
);
}
);
width = 492;
}
);
note = ogonek;
unicode = 731;
},
